VelekaWorld-RegularItalic.ufo
<glyph name="quotedbl" format="2">
  <advance width="331"/>
  <unicode hex="0022"/>
  <outline>
    <contour>
      <point x="376" y="676" type="curve" smooth="yes" name="n00"/>
      <point x="376" y="655"/>
      <point x="302" y="449"/>
      <point x="292" y="422" type="curve" name="n03"/>
      <point x="260" y="422" type="line"/>
      <point x="272" y="645" type="line" smooth="yes" name="n05"/>
      <point x="274.155" y="685.054"/>
      <point x="289" y="714" name="n07"/>
      <point x="334" y="714" type="curve" smooth="yes"/>
      <point x="358" y="714"/>
      <point x="376" y="700"/>
    </contour>
    <contour>
      <point x="215" y="676" type="curve" smooth="yes" name="n11"/>
      <point x="215" y="655"/>
      <point x="142" y="449"/>
      <point x="132" y="422" type="curve"/>
      <point x="100" y="422" type="line"/>
      <point x="113" y="645" type="line" smooth="yes" name="n16"/>
      <point x="115.331" y="684.982"/>
      <point x="129" y="714"/>
      <point x="174" y="714" type="curve" smooth="yes"/>
      <point x="197" y="714"/>
      <point x="215" y="700"/>
    </contour>
  </outline>
</glyph>
<glyph name="numbersign" format="2">
  <advance width="743"/>
  <unicode hex="0023"/>
  <outline>
    <contour>
      <point x="696" y="421" type="line" name="n00"/>
      <point x="539" y="421" type="line"/>
      <point x="491" y="278" type="line"/>
      <point x="652" y="278" type="line" name="n03"/>
      <point x="652" y="228" type="line" name="n04"/>
      <point x="474" y="228" type="line"/>
      <point x="389" y="-23" type="line"/>
      <point x="339" y="-7" type="line"/>
      <point x="418" y="228" type="line"/>
      <point x="273" y="228" type="line"/>
      <point x="188" y="-23" type="line"/>
      <point x="138" y="-6" type="line"/>
      <point x="218" y="228" type="line"/>
      <point x="76" y="228" type="line"/>
      <point x="76" y="278" type="line"/>
      <point x="234" y="278" type="line"/>
      <point x="283" y="421" type="line"/>
      <point x="122" y="421" type="line"/>
      <point x="122" y="472" type="line"/>
      <point x="300" y="472" type="line"/>
      <point x="380" y="708" type="line"/>
      <point x="431" y="692" type="line"/>
      <point x="355" y="472" type="line"/>
      <point x="501" y="472" type="line"/>
      <point x="580" y="708" type="line"/>
      <point x="632" y="692" type="line"/>
      <point x="556" y="472" type="line"/>
      <point x="696" y="472" type="line" name="n27"/>
    </contour>
    <contour>
      <point x="483" y="421" type="line"/>
      <point x="338" y="421" type="line"/>
      <point x="290" y="278" type="line"/>
      <point x="435" y="278" type="line"/>
    </contour>
  </outline>
</glyph>
<glyph name="percent" format="2">
  <advance width="859"/>
  <unicode hex="0025"/>
  <outline>
    <contour>
      <point x="821" y="265" type="curve" smooth="yes" name="n00"/>
      <point x="821" y="148"/>
      <point x="756" y="-16"/>
      <point x="618" y="-16" type="curve" smooth="yes" name="n03"/>
      <point x="533" y="-16"/>
      <point x="500" y="47"/>
      <point x="500" y="124" type="curve" smooth="yes" name="n06"/>
      <point x="500" y="241"/>
      <point x="565" y="404"/>
      <point x="703" y="404" type="curve" smooth="yes" name="n09"/>
      <point x="788" y="404"/>
      <point x="821" y="342"/>
    </contour>
    <contour>
      <point x="755" y="671" type="line" name="n12"/>
      <point x="196" y="0" type="line" name="n13"/>
      <point x="133" y="0" type="line" name="hr01"/>
      <point x="693" y="671" type="line"/>
    </contour>
    <contour>
      <point x="389" y="548" type="curve" smooth="yes" name="n16"/>
      <point x="389" y="431"/>
      <point x="324" y="267"/>
      <point x="186" y="267" type="curve" smooth="yes" name="n19"/>
      <point x="101" y="267"/>
      <point x="67" y="330"/>
      <point x="67" y="407" type="curve" smooth="yes" name="n22"/>
      <point x="67" y="524"/>
      <point x="133" y="687"/>
      <point x="271" y="687" type="curve" smooth="yes" name="n25"/>
      <point x="356" y="687"/>
      <point x="389" y="625"/>
    </contour>
    <contour>
      <point x="748" y="284" type="curve" smooth="yes" name="n28"/>
      <point x="748" y="319"/>
      <point x="740" y="366"/>
      <point x="695" y="366" type="curve" smooth="yes" name="n31"/>
      <point x="605" y="366"/>
      <point x="572" y="175"/>
      <point x="572" y="108" type="curve" smooth="yes" name="n34"/>
      <point x="572" y="72"/>
      <point x="580" y="21"/>
      <point x="626" y="21" type="curve" smooth="yes" name="n37"/>
      <point x="715" y="21"/>
      <point x="748" y="218"/>
    </contour>
    <contour>
      <point x="315" y="567" type="curve" smooth="yes" name="n40"/>
      <point x="315" y="602"/>
      <point x="308" y="649"/>
      <point x="263" y="649" type="curve" smooth="yes" name="n43"/>
      <point x="172" y="649"/>
      <point x="139" y="458"/>
      <point x="139" y="391" type="curve" smooth="yes" name="n46"/>
      <point x="139" y="355"/>
      <point x="148" y="305"/>
      <point x="194" y="305" type="curve" smooth="yes" name="n49"/>
      <point x="283" y="305"/>
      <point x="315" y="501"/>
    </contour>
  </outline>
</glyph>
<glyph name="ampersand" format="2">
  <advance width="704"/>
  <unicode hex="0026"/>
  <outline>
    <contour>
      <point x="673" y="316" type="line"/>
      <point x="601" y="308" type="line"/>
      <point x="573" y="249"/>
      <point x="528" y="183"/>
      <point x="477" y="129" type="curve"/>
      <point x="523" y="67"/>
      <point x="561" y="46"/>
      <point x="638" y="45" type="curve" name="n07"/>
      <point x="638" y="1" type="line"/>
      <point x="606" y="0"/>
      <point x="584.003" y="-2.0499"/>
      <point x="565" y="-3" type="curve" smooth="yes" name="n11"/>
      <point x="544.002" y="-4.0499"/>
      <point x="524" y="-4"/>
      <point x="506" y="0" type="curve"/>
      <point x="473" y="6"/>
      <point x="446" y="23"/>
      <point x="410" y="67" type="curve"/>
      <point x="351" y="23"/>
      <point x="284" y="-11" name="hr01"/>
      <point x="191" y="-11" type="curve" smooth="yes" name="n20"/>
      <point x="91" y="-11"/>
      <point x="12" y="51"/>
      <point x="12" y="155" type="curve" smooth="yes" name="n23"/>
      <point x="12" y="254"/>
      <point x="89" y="319"/>
      <point x="184" y="367" type="curve"/>
      <point x="154" y="409"/>
      <point x="130" y="449"/>
      <point x="130" y="497" type="curve" smooth="yes" name="n29"/>
      <point x="130" y="605"/>
      <point x="226" y="684"/>
      <point x="353" y="684" type="curve" smooth="yes" name="n32"/>
      <point x="462" y="684"/>
      <point x="506" y="618"/>
      <point x="506" y="552" type="curve" smooth="yes" name="n35"/>
      <point x="506" y="456"/>
      <point x="422" y="399"/>
      <point x="303" y="359" type="curve"/>
      <point x="444" y="173" type="line"/>
      <point x="478" y="211"/>
      <point x="505" y="259"/>
      <point x="521" y="293" type="curve"/>
      <point x="522" y="296"/>
      <point x="512" y="307"/>
      <point x="511" y="307" type="curve"/>
      <point x="460" y="316" type="line"/>
      <point x="460" y="362" type="line"/>
      <point x="673" y="362" type="line"/>
    </contour>
    <contour>
      <point x="408" y="543" type="curve" smooth="yes" name="n49"/>
      <point x="408" y="590"/>
      <point x="382" y="635"/>
      <point x="333" y="635" type="curve" smooth="yes" name="n52"/>
      <point x="285" y="635"/>
      <point x="220" y="599"/>
      <point x="220" y="524" type="curve" smooth="yes" name="n55"/>
      <point x="220" y="476"/>
      <point x="248" y="427"/>
      <point x="276" y="393" type="curve"/>
      <point x="354" y="424"/>
      <point x="408" y="467"/>
    </contour>
    <contour>
      <point x="377" y="107" type="curve"/>
      <point x="211" y="328" type="line"/>
      <point x="154" y="291"/>
      <point x="118" y="245"/>
      <point x="118" y="184" type="curve" smooth="yes" name="n65"/>
      <point x="118" y="104"/>
      <point x="177" y="52"/>
      <point x="242" y="52" type="curve" smooth="yes" name="n68"/>
      <point x="289" y="52"/>
      <point x="325" y="69"/>
    </contour>
  </outline>
</glyph>
<glyph name="quotesingle" format="2">
  <advance width="169"/>
  <unicode hex="0027"/>
  <outline>
    <contour>
      <point x="220" y="676" type="curve" smooth="yes" name="n00"/>
      <point x="220" y="655"/>
      <point x="143" y="449"/>
      <point x="133" y="422" type="curve" name="n03"/>
      <point x="100" y="422" type="line"/>
      <point x="113" y="645" type="line" smooth="yes" name="n05"/>
      <point x="115.334" y="685.044"/>
      <point x="131" y="714" name="n07"/>
      <point x="177" y="714" type="curve" smooth="yes"/>
      <point x="202" y="714"/>
      <point x="220" y="700"/>
    </contour>
  </outline>
</glyph>
<glyph name="period" format="2">
  <advance width="279"/>
  <unicode hex="002E"/>
  <outline>
    <contour>
      <point x="152" y="55" type="curve" smooth="yes" name="n00"/>
      <point x="152" y="18"/>
      <point x="121" y="-12"/>
      <point x="84" y="-12" type="curve" smooth="yes" name="n03"/>
      <point x="47" y="-12"/>
      <point x="18" y="18"/>
      <point x="18" y="55" type="curve" smooth="yes" name="n06"/>
      <point x="18" y="92"/>
      <point x="47" y="122"/>
      <point x="84" y="122" type="curve" smooth="yes" name="n09"/>
      <point x="121" y="122"/>
      <point x="152" y="92"/>
    </contour>
  </outline>
</glyph>
<glyph name="two" format="2">
  <advance width="556"/>
  <unicode hex="0032"/>
  <outline>
    <contour>
      <point x="535" y="538" type="curve" smooth="yes" name="n00"/>
      <point x="535" y="447"/>
      <point x="468" y="357"/>
      <point x="382" y="281" type="curve" smooth="yes"/>
      <point x="299" y="207"/>
      <point x="207" y="147"/>
      <point x="116" y="83" type="curve"/>
      <point x="396" y="83" type="line" name="n07"/>
      <point x="430" y="168" type="line" name="n08"/>
      <point x="490" y="168" type="line"/>
      <point x="459" y="0" type="line" name="n10"/>
      <point x="-21" y="0" type="line"/>
      <point x="-8" y="65" type="line"/>
      <point x="281" y="271"/>
      <point x="420" y="380"/>
      <point x="420" y="526" type="curve" smooth="yes" name="n15"/>
      <point x="420" y="602"/>
      <point x="375" y="632"/>
      <point x="318" y="632" type="curve" smooth="yes" name="n18"/>
      <point x="282" y="632"/>
      <point x="250" y="616"/>
      <point x="235" y="609" type="curve"/>
      <point x="214" y="503" type="line"/>
      <point x="207" y="498"/>
      <point x="189" y="485"/>
      <point x="158" y="485" type="curve" smooth="yes"/>
      <point x="136" y="485"/>
      <point x="103" y="493"/>
      <point x="103" y="529" type="curve" smooth="yes"/>
      <point x="103" y="603"/>
      <point x="216" y="687"/>
      <point x="350" y="687" type="curve" smooth="yes" name="n31"/>
      <point x="454" y="687"/>
      <point x="535" y="645"/>
    </contour>
  </outline>
</glyph>
<glyph name="four" format="2">
  <advance width="556"/>
  <unicode hex="0034"/>
  <outline>
    <contour>
      <point x="522" y="271" type="line" name="n00"/>
      <point x="509" y="202" type="line" name="n01"/>
      <point x="416" y="202" type="line"/>
      <point x="372" y="-27" type="line" name="n03"/>
      <point x="278" y="-27" type="line"/>
      <point x="323" y="202" type="line"/>
      <point x="21" y="202" type="line"/>
      <point x="34" y="269" type="line"/>
      <point x="437" y="687" type="line" name="n08"/>
      <point x="511" y="687" type="line"/>
      <point x="431" y="271" type="line"/>
    </contour>
    <contour>
      <point x="390" y="536" type="line"/>
      <point x="133" y="271" type="line"/>
      <point x="337" y="271" type="line"/>
    </contour>
  </outline>
</glyph>
<glyph name="seven" format="2">
  <advance width="556"/>
  <unicode hex="0037"/>
  <outline>
    <contour>
      <point x="604" y="671" type="line"/>
      <point x="596" y="628" type="line"/>
      <point x="141" y="-14" type="line"/>
      <point x="135" y="-37" type="line" name="n03"/>
      <point x="36" y="-37" type="line"/>
      <point x="481" y="590" type="line"/>
      <point x="190" y="590" type="line" name="n06"/>
      <point x="158" y="500" type="line" name="n07"/>
      <point x="94" y="500" type="line"/>
      <point x="128" y="671" type="line" name="n09"/>
    </contour>
  </outline>
</glyph>
<glyph name="eight" format="2">
  <advance width="556"/>
  <unicode hex="0038"/>
  <outline>
    <contour>
      <point x="530" y="546" type="curve" smooth="yes" name="n00"/>
      <point x="530" y="440"/>
      <point x="461" y="394"/>
      <point x="380" y="357" type="curve"/>
      <point x="432" y="334"/>
      <point x="505" y="291" name="hr01"/>
      <point x="505" y="209" type="curve" smooth="yes" name="n06"/>
      <point x="505" y="86"/>
      <point x="384" y="-16"/>
      <point x="228" y="-16" type="curve" smooth="yes" name="n09"/>
      <point x="91" y="-16"/>
      <point x="15" y="50"/>
      <point x="15" y="148" type="curve" smooth="yes" name="n12"/>
      <point x="15" y="213"/>
      <point x="56" y="298"/>
      <point x="184" y="354" type="curve"/>
      <point x="116" y="390"/>
      <point x="103" y="438" name="hr02"/>
      <point x="103" y="478" type="curve" smooth="yes" name="n18"/>
      <point x="103" y="588"/>
      <point x="196" y="687"/>
      <point x="347" y="687" type="curve" smooth="yes" name="n21"/>
      <point x="468" y="687"/>
      <point x="530" y="625"/>
    </contour>
    <contour>
      <point x="435" y="537" type="curve" smooth="yes" name="n24"/>
      <point x="435" y="598"/>
      <point x="398" y="639"/>
      <point x="338" y="639" type="curve" smooth="yes" name="n27"/>
      <point x="263" y="639"/>
      <point x="203" y="576"/>
      <point x="203" y="500" type="curve" smooth="yes" name="n30"/>
      <point x="203" y="445"/>
      <point x="253" y="411"/>
      <point x="331" y="378" type="curve"/>
      <point x="393" y="411"/>
      <point x="435" y="464"/>
    </contour>
    <contour>
      <point x="398" y="182" type="curve" smooth="yes" name="n36"/>
      <point x="398" y="244"/>
      <point x="314" y="288" name="hr05"/>
      <point x="229" y="327" type="curve"/>
      <point x="164" y="292"/>
      <point x="115" y="239"/>
      <point x="115" y="166" type="curve" smooth="yes" name="n42"/>
      <point x="115" y="96"/>
      <point x="163" y="38"/>
      <point x="246" y="38" type="curve" smooth="yes" name="n45"/>
      <point x="331" y="38"/>
      <point x="398" y="110"/>
    </contour>
  </outline>
</glyph>
<glyph name="nine" format="2">
  <advance width="556"/>
  <unicode hex="0039"/>
  <outline>
    <contour>
      <point x="557" y="478" type="curve" smooth="yes" name="n00"/>
      <point x="557" y="183"/>
      <point x="290" y="15"/>
      <point x="67" y="-55" type="curve"/>
      <point x="46" y="-8" type="line"/>
      <point x="188" y="47"/>
      <point x="303" y="111"/>
      <point x="401" y="271" type="curve"/>
      <point x="357" y="249"/>
      <point x="301" y="228"/>
      <point x="247" y="228" type="curve" smooth="yes" name="n10"/>
      <point x="164" y="228"/>
      <point x="65" y="276"/>
      <point x="65" y="405" type="curve" smooth="yes" name="n13"/>
      <point x="65" y="561"/>
      <point x="190" y="687"/>
      <point x="353" y="687" type="curve" smooth="yes" name="n16"/>
      <point x="422" y="687"/>
      <point x="557" y="664"/>
    </contour>
    <contour>
      <point x="451" y="477" type="curve" smooth="yes" name="n19"/>
      <point x="451" y="608"/>
      <point x="384" y="639"/>
      <point x="336" y="639" type="curve" smooth="yes" name="n22"/>
      <point x="248" y="639"/>
      <point x="174" y="538"/>
      <point x="174" y="425" type="curve" smooth="yes" name="n25"/>
      <point x="174" y="326"/>
      <point x="240" y="288"/>
      <point x="292" y="288" type="curve" smooth="yes" name="n28"/>
      <point x="364" y="288"/>
      <point x="423" y="339"/>
      <point x="432" y="349" type="curve"/>
      <point x="439" y="390"/>
      <point x="451" y="435"/>
    </contour>
  </outline>
</glyph>
<glyph name="semicolon" format="2">
  <advance width="279"/>
  <unicode hex="003B"/>
  <outline>
    <contour>
      <point x="225" y="427" type="curve" smooth="yes" name="n00"/>
      <point x="225" y="390"/>
      <point x="194" y="360"/>
      <point x="157" y="360" type="curve" smooth="yes" name="n03"/>
      <point x="120" y="360"/>
      <point x="90" y="390"/>
      <point x="90" y="427" type="curve" smooth="yes" name="n06"/>
      <point x="90" y="464"/>
      <point x="120" y="494"/>
      <point x="157" y="494" type="curve" smooth="yes" name="n09"/>
      <point x="194" y="494"/>
      <point x="225" y="464"/>
    </contour>
    <contour>
      <point x="159" y="48" type="curve" smooth="yes" name="n12"/>
      <point x="159" y="-66" name="hr01"/>
      <point x="54" y="-160"/>
      <point x="-55" y="-170" type="curve"/>
      <point x="-48" y="-134" type="line"/>
      <point x="34" y="-116"/>
      <point x="75" y="-76"/>
      <point x="90" y="7" type="curve" name="n19"/>
      <point x="27" y="7" type="line" name="hr02"/>
      <point x="20" y="16"/>
      <point x="17" y="30"/>
      <point x="17" y="41" type="curve" smooth="yes" name="n23"/>
      <point x="17" y="80"/>
      <point x="54" y="122"/>
      <point x="94" y="122" type="curve" smooth="yes" name="n26"/>
      <point x="140" y="122"/>
      <point x="159" y="90"/>
    </contour>
  </outline>
</glyph>
<glyph name="question" format="2">
  <advance width="485"/>
  <unicode hex="003F"/>
  <outline>
    <contour>
      <point x="463" y="543" type="curve" smooth="yes" name="n00"/>
      <point x="463" y="409"/>
      <point x="344" y="333"/>
      <point x="235" y="288" type="curve"/>
      <point x="212" y="169" type="line"/>
      <point x="145" y="169" type="line"/>
      <point x="172" y="318" type="line"/>
      <point x="263" y="347"/>
      <point x="354" y="421"/>
      <point x="354" y="533" type="curve" smooth="yes" name="n09"/>
      <point x="354" y="601"/>
      <point x="314" y="637"/>
      <point x="250" y="637" type="curve" name="n12"/>
      <point x="189" y="538" type="line" name="n13"/>
      <point x="186.747" y="538"/>
      <point x="161.25" y="538"/>
      <point x="160" y="538" type="curve"/>
      <point x="126" y="538"/>
      <point x="105" y="553"/>
      <point x="105" y="579" type="curve" smooth="yes"/>
      <point x="105" y="618"/>
      <point x="147" y="687"/>
      <point x="280" y="687" type="curve" smooth="yes" name="n22"/>
      <point x="398" y="687"/>
      <point x="463" y="632"/>
    </contour>
    <contour>
      <point x="227" y="44" type="curve" smooth="yes" name="n25"/>
      <point x="227" y="13"/>
      <point x="204" y="-16"/>
      <point x="163" y="-16" type="curve" smooth="yes" name="n28"/>
      <point x="121" y="-16"/>
      <point x="96" y="12"/>
      <point x="96" y="43" type="curve" smooth="yes" name="n31"/>
      <point x="96" y="74"/>
      <point x="121" y="104"/>
      <point x="163" y="104" type="curve" smooth="yes" name="n34"/>
      <point x="204" y="104"/>
      <point x="227" y="75"/>
    </contour>
  </outline>
</glyph>
<glyph name="A" format="2">
  <advance width="672"/>
  <unicode hex="0041"/>
  <anchor x="410" y="760" name="top"/>
  <outline>
    <contour>
      <point x="-53" y="0" type="line" name="n00"/>
      <point x="-53" y="42" type="line"/>
      <point x="3" y="48" type="line"/>
      <point x="372" y="688" type="line" name="n03"/>
      <point x="452" y="688" type="line"/>
      <point x="560" y="66" type="line" smooth="yes"/>
      <point x="562" y="53"/>
      <point x="566.047" y="48.5167"/>
      <point x="580" y="47" type="curve" smooth="yes"/>
      <point x="626" y="42" type="line"/>
      <point x="626" y="0" type="line"/>
      <point x="391" y="0" type="line"/>
      <point x="391" y="42" type="line"/>
      <point x="444.669" y="47.6384" type="line" smooth="yes"/>
      <point x="452.156" y="48.4249"/>
      <point x="456.438" y="52.6781"/>
      <point x="456.415" y="61.1493" type="curve"/>
      <point x="456" y="66" type="line"/>
      <point x="426" y="257" type="line" name="n18"/>
      <point x="199" y="257" type="line"/>
      <point x="97" y="66" type="line"/>
      <point x="96.0746" y="64.2671"/>
      <point x="95.0028" y="61.026"/>
      <point x="95.0178" y="58.8605" type="curve" smooth="yes"/>
      <point x="95.0588" y="52.9443"/>
      <point x="99.8787" y="48.8146"/>
      <point x="107.304" y="48" type="curve" smooth="yes"/>
      <point x="162" y="42" type="line"/>
      <point x="162" y="0" type="line"/>
    </contour>
    <contour>
      <point x="226" y="305" type="line"/>
      <point x="417" y="305" type="line" name="n30"/>
      <point x="374" y="565" type="line"/>
    </contour>
  </outline>
</glyph>
<glyph name="B" format="2">
  <advance width="606"/>
  <unicode hex="0042"/>
  <outline>
    <contour>
      <point x="574" y="537.792" type="curve" smooth="yes" name="n00"/>
      <point x="574" y="454.097"/>
      <point x="517.635" y="393.076"/>
      <point x="407" y="357" type="curve"/>
      <point x="507.248" y="343.173"/>
      <point x="554" y="300.759" name="hr01"/>
      <point x="554" y="223.639" type="curve" smooth="yes" name="n06"/>
      <point x="554" y="77.6661"/>
      <point x="451.552" y="0"/>
      <point x="259" y="0" type="curve" smooth="yes" name="n09"/>
      <point x="-15" y="0" type="line"/>
      <point x="-15" y="41.0667" type="line"/>
      <point x="48" y="46.0071" type="line" smooth="yes"/>
      <point x="59.2579" y="46.8899"/>
      <point x="64.5224" y="52.2363"/>
      <point x="67" y="65.075" type="curve" smooth="yes"/>
      <point x="171" y="604" type="line"/>
      <point x="170.785" y="616.653"/>
      <point x="164.657" y="622.781"/>
      <point x="151" y="624" type="curve" smooth="yes"/>
      <point x="95" y="629" type="line"/>
      <point x="95" y="671" type="line"/>
      <point x="376" y="671" type="line" smooth="yes" name="n22"/>
      <point x="509.597" y="671"/>
      <point x="574" y="627.672" name="hr02"/>
    </contour>
    <contour>
      <point x="463" y="525.432" type="curve" smooth="yes" name="n25"/>
      <point x="463" y="595.18"/>
      <point x="417.317" y="628"/>
      <point x="317.391" y="628" type="curve" smooth="yes" name="n28"/>
      <point x="307.614" y="628"/>
      <point x="297.268" y="628.314"/>
      <point x="276" y="625" type="curve"/>
      <point x="227" y="371" type="line"/>
      <point x="248.787" y="369"/>
      <point x="265" y="369"/>
      <point x="278.708" y="369" type="curve" smooth="yes" name="n35"/>
      <point x="386.047" y="369"/>
      <point x="463" y="434.907"/>
    </contour>
    <contour>
      <point x="445" y="207.524" type="curve" smooth="yes" name="n38"/>
      <point x="445" y="287.798"/>
      <point x="396.548" y="325" name="hr03"/>
      <point x="292" y="325" type="curve" smooth="yes" name="n41"/>
      <point x="268" y="325"/>
      <point x="239.957" y="323.124"/>
      <point x="217" y="319.982" type="curve"/>
      <point x="164" y="47.0108" type="line"/>
      <point x="182.038" y="44.71"/>
      <point x="195.822" y="44"/>
      <point x="222.462" y="44" type="curve" smooth="yes" name="n48"/>
      <point x="363.979" y="44"/>
      <point x="445" y="103.535"/>
    </contour>
  </outline>
</glyph>
<glyph name="F" format="2">
  <advance width="514"/>
  <unicode hex="0046"/>
  <outline>
    <contour>
      <point x="569" y="671" type="line" name="n00"/>
      <point x="538" y="510" type="line" name="n01"/>
      <point x="474" y="510" type="line"/>
      <point x="474" y="602" type="line" smooth="yes"/>
      <point x="474" y="616"/>
      <point x="469" y="621" name="hr01"/>
      <point x="454" y="621" type="curve" smooth="yes" name="n06"/>
      <point x="275" y="621" type="line"/>
      <point x="226" y="364" type="line" name="n08"/>
      <point x="354" y="364" type="line" smooth="yes" name="n09"/>
      <point x="368" y="364"/>
      <point x="375" y="369"/>
      <point x="378" y="383" type="curve"/>
      <point x="397" y="451" type="line"/>
      <point x="454" y="451" type="line"/>
      <point x="410" y="223" type="line"/>
      <point x="353" y="223" type="line" name="n16"/>
      <point x="363" y="293" type="line" smooth="yes"/>
      <point x="364.86" y="306.021"/>
      <point x="357" y="313" name="hr02"/>
      <point x="343" y="313" type="curve" smooth="yes"/>
      <point x="216" y="313" type="line" name="n21"/>
      <point x="168" y="66" type="line" smooth="yes"/>
      <point x="166" y="56"/>
      <point x="170" y="48"/>
      <point x="187" y="47" type="curve"/>
      <point x="187" y="47"/>
      <point x="235.482" y="43.2706"/>
      <point x="252" y="42" type="curve"/>
      <point x="252" y="0" type="line"/>
      <point x="-15" y="0" type="line"/>
      <point x="-15" y="42" type="line"/>
      <point x="-1.47052" y="43.1868"/>
      <point x="42" y="47"/>
      <point x="42" y="47" type="curve"/>
      <point x="55" y="48"/>
      <point x="64" y="54"/>
      <point x="67" y="66" type="curve"/>
      <point x="171" y="604" type="line" smooth="yes"/>
      <point x="173" y="615"/>
      <point x="169" y="623"/>
      <point x="151" y="624" type="curve"/>
      <point x="151" y="624"/>
      <point x="108.292" y="627.813"/>
      <point x="95" y="629" type="curve"/>
      <point x="95" y="671" type="line"/>
    </contour>
  </outline>
</glyph>
<glyph name="G" format="2">
  <advance width="687"/>
  <unicode hex="0047"/>
  <outline>
    <contour>
      <point x="675" y="282" type="line"/>
      <point x="618" y="277" type="line" smooth="yes"/>
      <point x="605" y="276"/>
      <point x="596" y="271"/>
      <point x="593" y="258" type="curve"/>
      <point x="548" y="23" type="line"/>
      <point x="528" y="18"/>
      <point x="415" y="-16"/>
      <point x="332" y="-16" type="curve" smooth="yes" name="n08"/>
      <point x="104" y="-16"/>
      <point x="48" y="156"/>
      <point x="48" y="268" type="curve" smooth="yes" name="n11"/>
      <point x="48" y="524"/>
      <point x="264" y="687"/>
      <point x="479" y="687" type="curve" smooth="yes" name="n14"/>
      <point x="544" y="687"/>
      <point x="588" y="677"/>
      <point x="665" y="653" type="curve"/>
      <point x="634" y="492" type="line"/>
      <point x="566" y="492" type="line"/>
      <point x="569" y="584" type="line"/>
      <point x="570" y="599"/>
      <point x="562" y="609"/>
      <point x="550" y="612" type="curve"/>
      <point x="545" y="614"/>
      <point x="515" y="633"/>
      <point x="467" y="633" type="curve" smooth="yes" name="n26"/>
      <point x="317" y="633"/>
      <point x="158" y="483"/>
      <point x="158" y="252" type="curve" smooth="yes" name="n29"/>
      <point x="158" y="91"/>
      <point x="280" y="37"/>
      <point x="352" y="37" type="curve" smooth="yes" name="n32"/>
      <point x="392" y="37"/>
      <point x="437" y="50"/>
      <point x="453" y="54" type="curve"/>
      <point x="492" y="258" type="line" smooth="yes"/>
      <point x="494" y="269"/>
      <point x="490" y="276"/>
      <point x="472" y="277" type="curve"/>
      <point x="472" y="277"/>
      <point x="430.261" y="280.794"/>
      <point x="417" y="282" type="curve"/>
      <point x="417" y="324" type="line"/>
      <point x="675" y="324" type="line"/>
    </contour>
  </outline>
</glyph>
<glyph name="J" format="2">
  <advance width="467"/>
  <unicode hex="004A"/>
  <outline>
    <contour>
      <point x="507" y="629" type="line"/>
      <point x="450" y="624" type="line" smooth="yes"/>
      <point x="437" y="623"/>
      <point x="428" y="617"/>
      <point x="425" y="604" type="curve"/>
      <point x="361" y="256" type="line" smooth="yes"/>
      <point x="331" y="91"/>
      <point x="283" y="-16"/>
      <point x="112" y="-16" type="curve" smooth="yes" name="n08"/>
      <point x="33" y="-16"/>
      <point x="-10" y="9"/>
      <point x="-20" y="14" type="curve"/>
      <point x="13" y="185" type="line" name="hr01"/>
      <point x="79" y="185" type="line" name="n13"/>
      <point x="79" y="63" type="line" smooth="yes"/>
      <point x="79" y="46"/>
      <point x="98" y="36" name="hr02"/>
      <point x="119" y="36" type="curve" smooth="yes" name="n17"/>
      <point x="204" y="36"/>
      <point x="234" y="113"/>
      <point x="258" y="247" type="curve" smooth="yes"/>
      <point x="324" y="604" type="line" smooth="yes"/>
      <point x="326" y="615"/>
      <point x="322" y="623"/>
      <point x="305" y="624" type="curve"/>
      <point x="305" y="624"/>
      <point x="260.791" y="627.811"/>
      <point x="247" y="629" type="curve"/>
      <point x="247" y="671" type="line" name="n28"/>
      <point x="507" y="671" type="line"/>
    </contour>
  </outline>
</glyph>
<glyph name="R" format="2">
  <advance width="641"/>
  <unicode hex="0052"/>
  <outline>
    <contour>
      <point x="615" y="0" type="line" name="n00"/>
      <point x="588" y="-12"/>
      <point x="565" y="-16" name="hr01"/>
      <point x="539.575" y="-16" type="curve" smooth="yes" name="n03"/>
      <point x="421" y="-16"/>
      <point x="404" y="71"/>
      <point x="389" y="145" type="curve" smooth="yes"/>
      <point x="366.717" y="254.928"/>
      <point x="331.311" y="296"/>
      <point x="258.83" y="296" type="curve" smooth="yes"/>
      <point x="213.213" y="296" type="line" name="n10"/>
      <point x="170" y="66" type="line"/>
      <point x="169.637" y="55.8622"/>
      <point x="172.034" y="48.4626"/>
      <point x="189" y="47" type="curve" smooth="yes"/>
      <point x="247" y="42" type="line"/>
      <point x="247" y="0" type="line" name="hr02"/>
      <point x="-13" y="0" type="line"/>
      <point x="-13" y="42" type="line"/>
      <point x="44" y="47" type="line" smooth="yes"/>
      <point x="57" y="48"/>
      <point x="66.6959" y="53.8472"/>
      <point x="69" y="66" type="curve" smooth="yes"/>
      <point x="171" y="604" type="line"/>
      <point x="171.1" y="614.917"/>
      <point x="168.962" y="622.486"/>
      <point x="152" y="624" type="curve" smooth="yes"/>
      <point x="96" y="629" type="line"/>
      <point x="96" y="671" type="line"/>
      <point x="364" y="671" type="line" smooth="yes" name="n29"/>
      <point x="475" y="671"/>
      <point x="581" y="638"/>
      <point x="581" y="523" type="curve" smooth="yes" name="n32"/>
      <point x="581" y="415"/>
      <point x="489" y="348"/>
      <point x="377" y="317" type="curve"/>
      <point x="437.797" y="291.614"/>
      <point x="460.983" y="256.698"/>
      <point x="487" y="154" type="curve" smooth="yes"/>
      <point x="506" y="79"/>
      <point x="530" y="41" name="hr03"/>
      <point x="615" y="41" type="curve" name="n41"/>
    </contour>
    <contour>
      <point x="468" y="499.397" type="curve" smooth="yes" name="n42"/>
      <point x="468" y="599.107"/>
      <point x="385.769" y="621.179"/>
      <point x="312.121" y="621.269" type="curve" smooth="yes" name="n45"/>
      <point x="294.718" y="621.291"/>
      <point x="284.369" y="620"/>
      <point x="274.787" y="619" type="curve"/>
      <point x="224" y="347" type="line" name="n49"/>
      <point x="246" y="347" type="line" smooth="yes"/>
      <point x="354" y="347"/>
      <point x="468" y="382"/>
    </contour>
  </outline>
  <guideline angle="90" name="330_v" x="310" y="0"/>
</glyph>
<glyph name="U" format="2">
  <advance width="707"/>
  <unicode hex="0055"/>
  <anchor x="440" y="710" name="top"/>
  <outline>
    <contour>
      <point x="749" y="630" type="line"/>
      <point x="691" y="625" type="line" smooth="yes"/>
      <point x="677.816" y="623.863"/>
      <point x="669.337" y="616.838"/>
      <point x="667" y="605" type="curve" smooth="yes"/>
      <point x="590" y="215" type="line" smooth="yes"/>
      <point x="560.099" y="63.5525"/>
      <point x="463.308" y="-16"/>
      <point x="308.944" y="-16" type="curve" smooth="yes" name="n08"/>
      <point x="170.684" y="-16"/>
      <point x="92" y="46.4907"/>
      <point x="92" y="156.297" type="curve" smooth="yes" name="n11"/>
      <point x="92" y="184.711"/>
      <point x="96.8923" y="225.62"/>
      <point x="105" y="265" type="curve" smooth="yes"/>
      <point x="175" y="605" type="line"/>
      <point x="174.236" y="618.957"/>
      <point x="169.486" y="623.707"/>
      <point x="155" y="625" type="curve" smooth="yes" name="n18"/>
      <point x="99" y="630" type="line"/>
      <point x="99" y="672" type="line" name="n20"/>
      <point x="359" y="672" type="line"/>
      <point x="359" y="630" type="line"/>
      <point x="300" y="625" type="line" smooth="yes"/>
      <point x="286.861" y="623.887"/>
      <point x="278.407" y="616.861"/>
      <point x="276" y="605" type="curve" smooth="yes"/>
      <point x="207" y="265" type="line" smooth="yes"/>
      <point x="200.085" y="230.924"/>
      <point x="196" y="197.311"/>
      <point x="196" y="174.476" type="curve" smooth="yes" name="n30"/>
      <point x="196" y="95.2773"/>
      <point x="247.288" y="50"/>
      <point x="337" y="50" type="curve" smooth="yes" name="n33"/>
      <point x="442.804" y="50"/>
      <point x="501.65" y="111.299"/>
      <point x="529" y="250" type="curve" smooth="yes"/>
      <point x="599" y="605" type="line"/>
      <point x="598.387" y="618.714"/>
      <point x="593.386" y="623.716"/>
      <point x="579" y="625" type="curve" smooth="yes"/>
      <point x="523" y="630" type="line"/>
      <point x="523" y="672" type="line"/>
      <point x="749" y="672" type="line"/>
    </contour>
  </outline>
</glyph>
<glyph name="Y" format="2">
  <advance width="639"/>
  <unicode hex="0059"/>
  <outline>
    <contour>
      <point x="711" y="629" type="line"/>
      <point x="655" y="625" type="line"/>
      <point x="645" y="624"/>
      <point x="634" y="615"/>
      <point x="629" y="610" type="curve"/>
      <point x="375" y="281" type="line"/>
      <point x="333" y="66" type="line"/>
      <point x="330" y="56"/>
      <point x="335" y="48"/>
      <point x="352" y="47" type="curve"/>
      <point x="352" y="47"/>
      <point x="394.221" y="43.2303"/>
      <point x="408" y="42" type="curve"/>
      <point x="408" y="0" type="line" name="n13"/>
      <point x="148" y="0" type="line"/>
      <point x="148" y="42" type="line"/>
      <point x="161.767" y="43.1868"/>
      <point x="206" y="47"/>
      <point x="206" y="47" type="curve"/>
      <point x="218" y="48"/>
      <point x="227" y="54"/>
      <point x="230" y="66" type="curve"/>
      <point x="271" y="272" type="line"/>
      <point x="159" y="610" type="line" smooth="yes"/>
      <point x="155" y="623"/>
      <point x="147" y="624"/>
      <point x="140" y="625" type="curve"/>
      <point x="140" y="625"/>
      <point x="96.8873" y="628.079"/>
      <point x="84" y="629" type="curve"/>
      <point x="84" y="671" type="line"/>
      <point x="343" y="671" type="line"/>
      <point x="343" y="629" type="line"/>
      <point x="327.514" y="628.032"/>
      <point x="279" y="625"/>
      <point x="279" y="625" type="curve"/>
      <point x="268" y="624"/>
      <point x="261" y="616"/>
      <point x="265" y="605" type="curve"/>
      <point x="347" y="345" type="line"/>
      <point x="540" y="605" type="line"/>
      <point x="546" y="614"/>
      <point x="549" y="624"/>
      <point x="532" y="625" type="curve" smooth="yes"/>
      <point x="470" y="629" type="line"/>
      <point x="470" y="671" type="line"/>
      <point x="711" y="671" type="line"/>
    </contour>
  </outline>
</glyph>
<glyph name="bracketleft" format="2">
  <advance width="420"/>
  <unicode hex="005B"/>
  <outline>
    <contour>
      <point x="471" y="661" type="line" name="n00"/>
      <point x="308" y="661" type="line"/>
      <point x="159" y="-85" type="line"/>
      <point x="312" y="-85" type="line" name="n03"/>
      <point x="312" y="-132" type="line" name="n04"/>
      <point x="54" y="-132" type="line"/>
      <point x="222" y="708" type="line"/>
      <point x="471" y="708" type="line" name="n07"/>
    </contour>
  </outline>
</glyph>
<glyph name="c" format="2">
  <advance width="435"/>
  <unicode hex="0063"/>
  <anchor x="310" y="570" name="top"/>
  <outline>
    <contour>
      <point x="403" y="424" type="curve" smooth="yes"/>
      <point x="403" y="398"/>
      <point x="390" y="367"/>
      <point x="326" y="359" type="curve"/>
      <point x="269" y="436" type="line" name="n04"/>
      <point x="161" y="431"/>
      <point x="127" y="266"/>
      <point x="127" y="186" type="curve" smooth="yes" name="n07"/>
      <point x="127" y="121"/>
      <point x="150" y="53"/>
      <point x="216" y="53" type="curve" smooth="yes" name="n10"/>
      <point x="269" y="53"/>
      <point x="325" y="93"/>
      <point x="382" y="149" type="curve"/>
      <point x="382" y="86" type="line"/>
      <point x="341" y="46"/>
      <point x="275" y="-12"/>
      <point x="186" y="-12" type="curve" smooth="yes" name="n17"/>
      <point x="91" y="-12"/>
      <point x="32" y="55"/>
      <point x="32" y="174" type="curve" smooth="yes" name="n20"/>
      <point x="32" y="353"/>
      <point x="165" y="494"/>
      <point x="301" y="494" type="curve" smooth="yes" name="n23"/>
      <point x="373" y="494"/>
      <point x="403" y="454"/>
    </contour>
  </outline>
</glyph>
<glyph name="e" format="2">
  <advance width="434"/>
  <unicode hex="0065"/>
  <anchor x="320" y="570" name="top"/>
  <outline>
    <contour>
      <point x="417" y="389.061" type="curve" smooth="yes" name="n00"/>
      <point x="417" y="305.755"/>
      <point x="291.531" y="229.325"/>
      <point x="133" y="220" type="curve"/>
      <point x="130.666" y="204.827"/>
      <point x="129" y="183.991"/>
      <point x="129" y="169.966" type="curve" smooth="yes" name="n06"/>
      <point x="129" y="98.2512"/>
      <point x="168.141" y="48"/>
      <point x="224" y="48" type="curve" smooth="yes" name="n09"/>
      <point x="266.082" y="48"/>
      <point x="315.562" y="76.2324"/>
      <point x="394" y="145" type="curve"/>
      <point x="394" y="82" type="line"/>
      <point x="334.356" y="23.9678"/>
      <point x="257.67" y="-12"/>
      <point x="189.235" y="-12" type="curve" smooth="yes" name="n16"/>
      <point x="94.7063" y="-12"/>
      <point x="32" y="56.625"/>
      <point x="32" y="171.608" type="curve" smooth="yes" name="n19"/>
      <point x="32" y="334.985"/>
      <point x="158.596" y="493"/>
      <point x="288.195" y="493" type="curve" smooth="yes" name="n22"/>
      <point x="359.158" y="493"/>
      <point x="417" y="445.623"/>
    </contour>
    <contour>
      <point x="328" y="391.913" type="curve" smooth="yes" name="n25"/>
      <point x="328" y="422.441"/>
      <point x="304.683" y="447"/>
      <point x="275.756" y="447" type="curve" smooth="yes" name="n28"/>
      <point x="222.455" y="447"/>
      <point x="162.015" y="363.619"/>
      <point x="137" y="258" type="curve"/>
      <point x="235.658" y="267.285"/>
      <point x="328" y="331.163"/>
    </contour>
  </outline>
</glyph>
<glyph name="l" format="2">
  <advance width="265"/>
  <unicode hex="006C"/>
  <outline>
    <contour>
      <point x="263" y="26" type="line"/>
      <point x="247" y="20"/>
      <point x="171" y="-12"/>
      <point x="124" y="-12" type="curve" smooth="yes" name="n03"/>
      <point x="63" y="-12"/>
      <point x="39" y="18"/>
      <point x="39" y="61" type="curve" smooth="yes"/>
      <point x="39" y="71"/>
      <point x="40" y="83"/>
      <point x="42" y="96" type="curve"/>
      <point x="152" y="668" type="line"/>
      <point x="63" y="677" type="line"/>
      <point x="63" y="707" type="line"/>
      <point x="219" y="737" type="line" name="n13"/>
      <point x="258" y="737" type="line"/>
      <point x="136" y="99" type="line" smooth="yes"/>
      <point x="131" y="72"/>
      <point x="154" y="44"/>
      <point x="182" y="44" type="curve" smooth="yes" name="n18"/>
      <point x="201" y="44"/>
      <point x="252" y="61"/>
      <point x="263" y="64" type="curve"/>
    </contour>
  </outline>
</glyph>
<glyph name="n" format="2">
  <advance width="529"/>
  <unicode hex="006E"/>
  <anchor x="275" y="569" name="top"/>
  <outline>
    <contour>
      <point x="526.5" y="20" type="line"/>
      <point x="510" y="14"/>
      <point x="435" y="-12" name="n02"/>
      <point x="389.12" y="-12" type="curve" smooth="yes"/>
      <point x="370.489" y="-12"/>
      <point x="310.805" y="-7.71285"/>
      <point x="310.804" y="35.7956" type="curve"/>
      <point x="310.804" y="39.2738"/>
      <point x="311.186" y="43.0027"/>
      <point x="312" y="47" type="curve" smooth="yes"/>
      <point x="373" y="354" type="line" smooth="yes"/>
      <point x="373.868" y="358.367"/>
      <point x="374.887" y="366.487"/>
      <point x="374.887" y="372.795" type="curve" smooth="yes" name="n13"/>
      <point x="374.888" y="410.88"/>
      <point x="348.288" y="423"/>
      <point x="330.079" y="423" type="curve" smooth="yes" name="n16"/>
      <point x="297" y="423"/>
      <point x="229" y="383"/>
      <point x="185" y="336" type="curve"/>
      <point x="116" y="0" type="line" name="n20"/>
      <point x="23" y="0" type="line"/>
      <point x="110" y="425" type="line"/>
      <point x="26" y="434" type="line"/>
      <point x="26" y="463" type="line"/>
      <point x="177" y="494" type="line"/>
      <point x="217" y="494" type="line"/>
      <point x="198" y="401" type="line"/>
      <point x="242" y="446"/>
      <point x="317" y="494"/>
      <point x="391.084" y="494" type="curve" smooth="yes" name="n30"/>
      <point x="445.733" y="494"/>
      <point x="477.07" y="467.88"/>
      <point x="477.068" y="407.663" type="curve" smooth="yes" name="n33"/>
      <point x="477.067" y="395.248"/>
      <point x="475.735" y="381.383"/>
      <point x="473" y="366" type="curve" smooth="yes"/>
      <point x="420" y="84" type="line" smooth="yes"/>
      <point x="419.418" y="80.8401"/>
      <point x="419.147" y="77.9153"/>
      <point x="419.147" y="75.2083" type="curve" smooth="yes"/>
      <point x="419.15" y="45.3624"/>
      <point x="452.121" y="42"/>
      <point x="464.485" y="42" type="curve" smooth="yes"/>
      <point x="481" y="42"/>
      <point x="503" y="48"/>
      <point x="526.5" y="55" type="curve"/>
    </contour>
  </outline>
</glyph>
<glyph name="s" format="2">
  <advance width="370"/>
  <unicode hex="0073"/>
  <outline>
    <contour>
      <point x="349" y="427.711" type="curve" smooth="yes"/>
      <point x="349" y="397.54"/>
      <point x="322.811" y="379.665"/>
      <point x="277" y="376" type="curve"/>
      <point x="232" y="437" type="line"/>
      <point x="225.418" y="441.937"/>
      <point x="214.987" y="445"/>
      <point x="204.76" y="445" type="curve" smooth="yes" name="n07"/>
      <point x="174.121" y="445"/>
      <point x="148" y="414.84"/>
      <point x="148" y="382.423" type="curve" smooth="yes" name="n10"/>
      <point x="148" y="350.405"/>
      <point x="173.482" y="317.273"/>
      <point x="232.107" y="270.777" type="curve" smooth="yes"/>
      <point x="298.545" y="218.085"/>
      <point x="323" y="182.094"/>
      <point x="323" y="136.113" type="curve" smooth="yes" name="n16"/>
      <point x="323" y="51.4779"/>
      <point x="241.142" y="-12"/>
      <point x="132" y="-12" type="curve" smooth="yes" name="n19"/>
      <point x="48.5" y="-12"/>
      <point x="-8" y="25.1286"/>
      <point x="-8" y="80" type="curve" smooth="yes"/>
      <point x="-8" y="113.605"/>
      <point x="12.6227" y="134" name="hr01"/>
      <point x="44.973" y="134" type="curve" smooth="yes" name="n25"/>
      <point x="66" y="134"/>
      <point x="89.5525" y="125.383"/>
      <point x="104" y="113" type="curve"/>
      <point x="85" y="64" type="line"/>
      <point x="101.819" y="39.9733"/>
      <point x="123.459" y="28" name="hr02"/>
      <point x="150.066" y="28" type="curve" smooth="yes" name="n32"/>
      <point x="196.103" y="28"/>
      <point x="231" y="62.0516"/>
      <point x="231" y="108.81" type="curve" smooth="yes" name="n35"/>
      <point x="231" y="143.189"/>
      <point x="212.135" y="167.724"/>
      <point x="149" y="217" type="curve" smooth="yes"/>
      <point x="95.3446" y="258.877"/>
      <point x="68" y="304.011"/>
      <point x="68" y="349.643" type="curve" smooth="yes" name="n41"/>
      <point x="68" y="429.025"/>
      <point x="150.749" y="494"/>
      <point x="245.354" y="494" type="curve" smooth="yes" name="n44"/>
      <point x="308.107" y="494"/>
      <point x="349" y="465.412"/>
    </contour>
  </outline>
</glyph>
<glyph name="z" format="2">
  <advance width="444"/>
  <unicode hex="007A"/>
  <outline>
    <contour>
      <point x="450" y="468" type="line"/>
      <point x="111" y="71" type="line"/>
      <point x="195" y="93" type="line"/>
      <point x="232.129" y="73.3103"/>
      <point x="275.525" y="59"/>
      <point x="298.104" y="59" type="curve" smooth="yes" name="n05"/>
      <point x="317.94" y="59"/>
      <point x="334.966" y="70.0395"/>
      <point x="349" y="92" type="curve"/>
      <point x="294" y="153" type="line"/>
      <point x="306.162" y="175.453"/>
      <point x="330.424" y="191"/>
      <point x="353.299" y="191" type="curve" smooth="yes"/>
      <point x="383.89" y="191"/>
      <point x="407" y="160.761"/>
      <point x="407" y="122.204" type="curve" smooth="yes"/>
      <point x="407" y="53.139"/>
      <point x="332.85" y="-12"/>
      <point x="255.903" y="-12" type="curve" smooth="yes" name="n18"/>
      <point x="229.604" y="-12"/>
      <point x="200.445" y="-3.70012"/>
      <point x="174.423" y="11.1924" type="curve" smooth="yes"/>
      <point x="151.71" y="24.1914"/>
      <point x="128.603" y="31"/>
      <point x="108.554" y="31" type="curve" smooth="yes"/>
      <point x="94.4599" y="31"/>
      <point x="84.6352" y="27.6352"/>
      <point x="78" y="21" type="curve"/>
      <point x="53" y="-26" type="line"/>
      <point x="-16" y="11" type="line"/>
      <point x="323" y="408" type="line"/>
      <point x="235" y="389" type="line"/>
      <point x="200.598" y="408.112"/>
      <point x="172.87" y="418"/>
      <point x="153.675" y="418" type="curve" smooth="yes" name="n34"/>
      <point x="130.938" y="418"/>
      <point x="106.086" y="405.504"/>
      <point x="96" y="389" type="curve"/>
      <point x="149" y="325" type="line"/>
      <point x="137.972" y="307.355"/>
      <point x="111.232" y="292" name="hr01"/>
      <point x="89.8502" y="292" type="curve" smooth="yes" name="n41"/>
      <point x="61.219" y="292"/>
      <point x="39" y="319.533"/>
      <point x="39" y="358.517" type="curve" smooth="yes"/>
      <point x="39" y="426.344"/>
      <point x="106.261" y="494"/>
      <point x="177.261" y="494" type="curve" smooth="yes" name="n47"/>
      <point x="202.309" y="494"/>
      <point x="229.529" y="485.58"/>
      <point x="273.006" y="463.359" type="curve" smooth="yes"/>
      <point x="300.934" y="449.086"/>
      <point x="315.317" y="444"/>
      <point x="328.548" y="444" type="curve" smooth="yes"/>
      <point x="335.753" y="444"/>
      <point x="343.349" y="446.174"/>
      <point x="353" y="451" type="curve"/>
      <point x="375" y="507" type="line"/>
    </contour>
  </outline>
</glyph>
<glyph name="asciitilde" format="2">
  <advance width="833"/>
  <unicode hex="007E"/>
  <outline>
    <contour>
      <point x="754" y="306" type="line"/>
      <point x="677" y="253"/>
      <point x="623" y="236"/>
      <point x="568.475" y="236" type="curve" smooth="yes" name="n03"/>
      <point x="530.979" y="236"/>
      <point x="496.67" y="244.04"/>
      <point x="427.379" y="268.485" type="curve" smooth="yes"/>
      <point x="378.959" y="285.566"/>
      <point x="329.541" y="303"/>
      <point x="284.321" y="303" type="curve" smooth="yes" name="n09"/>
      <point x="226" y="303"/>
      <point x="161" y="274"/>
      <point x="94" y="225" type="curve"/>
      <point x="94" y="290" type="line"/>
      <point x="165" y="341"/>
      <point x="230" y="361"/>
      <point x="284" y="361" type="curve" smooth="yes" name="n16"/>
      <point x="321.193" y="361"/>
      <point x="358.992" y="352.163"/>
      <point x="433.143" y="326.134" type="curve" smooth="yes"/>
      <point x="502.105" y="301.926"/>
      <point x="535.12" y="294"/>
      <point x="567" y="294" type="curve" smooth="yes" name="n22"/>
      <point x="615" y="294"/>
      <point x="674" y="313"/>
      <point x="754" y="371" type="curve"/>
    </contour>
  </outline>
</glyph>
<glyph name="cent" format="2">
  <advance width="556"/>
  <unicode hex="00A2"/>
  <outline>
    <contour>
      <point x="519" y="467" type="curve"/>
      <point x="498" y="318" type="line"/>
      <point x="438" y="318" type="line"/>
      <point x="440" y="334"/>
      <point x="448" y="422"/>
      <point x="420" y="430" type="curve"/>
      <point x="416" y="432"/>
      <point x="398" y="443"/>
      <point x="369" y="446" type="curve"/>
      <point x="291" y="37" type="line"/>
      <point x="320" y="40"/>
      <point x="343" y="47"/>
      <point x="346" y="48" type="curve"/>
      <point x="382" y="56"/>
      <point x="393" y="149"/>
      <point x="395" y="165" type="curve"/>
      <point x="455" y="165" type="line"/>
      <point x="434" y="18" type="line"/>
      <point x="394" y="-5"/>
      <point x="349" y="-12" name="n19"/>
      <point x="282" y="-12" type="curve"/>
      <point x="263" y="-110" type="line" name="n21"/>
      <point x="201" y="-110" type="line"/>
      <point x="221" y="-9" type="line"/>
      <point x="109" y="9"/>
      <point x="55" y="90"/>
      <point x="55" y="172" type="curve" smooth="yes" name="n26"/>
      <point x="55" y="314"/>
      <point x="147" y="468"/>
      <point x="316" y="492" type="curve"/>
      <point x="336" y="592" type="line" name="n30"/>
      <point x="397" y="592" type="line"/>
      <point x="378" y="494" type="line"/>
      <point x="443" y="493"/>
      <point x="476" y="484"/>
    </contour>
    <contour>
      <point x="306" y="437" type="line"/>
      <point x="219" y="403"/>
      <point x="156" y="302"/>
      <point x="156" y="185" type="curve" smooth="yes" name="n38"/>
      <point x="156" y="110"/>
      <point x="184" y="64"/>
      <point x="232" y="44" type="curve"/>
    </contour>
  </outline>
</glyph>
<glyph name="brokenbar" format="2">
  <advance width="345"/>
  <unicode hex="00A6"/>
  <outline>
    <contour>
      <point x="198" y="336" type="line" name="n00"/>
      <point x="147" y="336" type="line" name="n01"/>
      <point x="147" y="736" type="line" name="n02"/>
      <point x="198" y="736" type="line"/>
    </contour>
    <contour>
      <point x="198" y="-198" type="line" name="n04"/>
      <point x="147" y="-198" type="line"/>
      <point x="147" y="202" type="line"/>
      <point x="198" y="202" type="line"/>
    </contour>
  </outline>
</glyph>
<glyph name="section" format="2">
  <advance width="500"/>
  <unicode hex="00A7"/>
  <outline>
    <contour>
      <point x="498" y="693" type="curve"/>
      <point x="473" y="562" type="line"/>
      <point x="413" y="562" type="line"/>
      <point x="417" y="644" type="line"/>
      <point x="389" y="662"/>
      <point x="361" y="670"/>
      <point x="335" y="670" type="curve" smooth="yes" name="n06"/>
      <point x="295" y="670"/>
      <point x="226" y="640"/>
      <point x="226" y="580" type="curve" smooth="yes" name="n09"/>
      <point x="226" y="514"/>
      <point x="334" y="495"/>
      <point x="405" y="437" type="curve" smooth="yes"/>
      <point x="436" y="411"/>
      <point x="458" y="378"/>
      <point x="458" y="332" type="curve" smooth="yes" name="n15"/>
      <point x="458" y="250"/>
      <point x="384" y="179" name="hr01"/>
      <point x="303" y="145" type="curve"/>
      <point x="351" y="118"/>
      <point x="384" y="85"/>
      <point x="384" y="38" type="curve" smooth="yes" name="n21"/>
      <point x="384" y="-73"/>
      <point x="272" y="-140"/>
      <point x="159" y="-140" type="curve" smooth="yes" name="n24"/>
      <point x="106" y="-140"/>
      <point x="56" y="-129"/>
      <point x="12" y="-107" type="curve"/>
      <point x="35" y="23" type="line"/>
      <point x="99" y="23" type="line"/>
      <point x="96" y="-66" type="line"/>
      <point x="123" y="-84"/>
      <point x="153" y="-91"/>
      <point x="177" y="-91" type="curve" smooth="yes" name="n33"/>
      <point x="220" y="-91"/>
      <point x="291" y="-59"/>
      <point x="291" y="2" type="curve" smooth="yes" name="n36"/>
      <point x="291" y="70"/>
      <point x="161" y="109"/>
      <point x="111" y="150" type="curve" smooth="yes"/>
      <point x="80" y="176"/>
      <point x="58" y="208"/>
      <point x="58" y="256" type="curve" smooth="yes" name="n42"/>
      <point x="58" y="345"/>
      <point x="120" y="405"/>
      <point x="207" y="442" type="curve"/>
      <point x="161" y="470"/>
      <point x="131" y="502" name="hr02"/>
      <point x="131" y="548" type="curve" smooth="yes" name="n48"/>
      <point x="131" y="667"/>
      <point x="246" y="718"/>
      <point x="362" y="718" type="curve" smooth="yes" name="n51"/>
      <point x="404" y="718"/>
      <point x="460" y="710"/>
    </contour>
    <contour>
      <point x="362" y="305" type="curve" smooth="yes" name="n54"/>
      <point x="362" y="348"/>
      <point x="337" y="382"/>
      <point x="255" y="419" type="curve"/>
      <point x="180" y="391"/>
      <point x="153" y="330"/>
      <point x="153" y="289" type="curve" smooth="yes" name="n60"/>
      <point x="153" y="241"/>
      <point x="173" y="214"/>
      <point x="261" y="168" type="curve"/>
      <point x="319" y="201"/>
      <point x="362" y="250"/>
    </contour>
  </outline>
</glyph>
<glyph name="threesuperior" format="2">
  <advance width="360"/>
  <unicode hex="00B3"/>
  <outline>
    <contour>
      <point x="400" y="706" type="curve" smooth="yes" name="n00"/>
      <point x="400" y="662"/>
      <point x="363" y="620"/>
      <point x="296" y="599" type="curve"/>
      <point x="338" y="592"/>
      <point x="375" y="569" name="hr01"/>
      <point x="375" y="521" type="curve" smooth="yes" name="n06"/>
      <point x="375" y="442"/>
      <point x="288" y="376"/>
      <point x="184" y="376" type="curve" smooth="yes" name="n09"/>
      <point x="103" y="376"/>
      <point x="67" y="414"/>
      <point x="67" y="444" type="curve" smooth="yes"/>
      <point x="67" y="456"/>
      <point x="74" y="481" name="hr02"/>
      <point x="106" y="481" type="curve" smooth="yes" name="n15"/>
      <point x="120" y="481"/>
      <point x="132" y="476"/>
      <point x="132" y="476" type="curve"/>
      <point x="142" y="425" type="line"/>
      <point x="148" y="422"/>
      <point x="167" y="412" name="hr03"/>
      <point x="191" y="412" type="curve" smooth="yes" name="n22"/>
      <point x="257" y="412"/>
      <point x="306" y="457"/>
      <point x="306" y="513" type="curve" smooth="yes" name="n25"/>
      <point x="306" y="564"/>
      <point x="262" y="573"/>
      <point x="233" y="573" type="curve" smooth="yes" name="n28"/>
      <point x="210" y="573"/>
      <point x="190" y="570"/>
      <point x="190" y="570" type="curve"/>
      <point x="196" y="612" type="line" name="n32"/>
      <point x="280" y="607"/>
      <point x="330" y="647" name="hr04"/>
      <point x="330" y="698" type="curve" smooth="yes" name="n35"/>
      <point x="330" y="741"/>
      <point x="294" y="757"/>
      <point x="265" y="757" type="curve" smooth="yes" name="n38"/>
      <point x="234" y="757"/>
      <point x="212" y="743"/>
      <point x="207" y="739" type="curve"/>
      <point x="198" y="683" type="line"/>
      <point x="198" y="683"/>
      <point x="177" y="674"/>
      <point x="164" y="674" type="curve" smooth="yes"/>
      <point x="153" y="674"/>
      <point x="132" y="683"/>
      <point x="132" y="706" type="curve" smooth="yes"/>
      <point x="132" y="758"/>
      <point x="215" y="792"/>
      <point x="286" y="792" type="curve" smooth="yes" name="n51"/>
      <point x="354" y="792"/>
      <point x="400" y="764"/>
    </contour>
  </outline>
</glyph>
<glyph name="acute" format="2">
  <advance width="291"/>
  <unicode hex="00B4"/>
  <outline>
    <contour>
      <point x="378" y="689" type="curve" smooth="yes"/>
      <point x="378" y="670"/>
      <point x="369.138" y="657.789"/>
      <point x="354" y="648" type="curve" smooth="yes"/>
      <point x="204" y="551" type="line" name="n04"/>
      <point x="134" y="551" type="line"/>
      <point x="270" y="707" type="line" smooth="yes"/>
      <point x="283" y="722"/>
      <point x="297" y="732" name="n08"/>
      <point x="327" y="732" type="curve" smooth="yes"/>
      <point x="362" y="732"/>
      <point x="378" y="709"/>
    </contour>
  </outline>
</glyph>
<glyph name="onesuperior" format="2">
  <advance width="360"/>
  <unicode hex="00B9"/>
  <outline>
    <contour>
      <point x="326" y="792" type="line" name="n00"/>
      <point x="253" y="437" type="line" smooth="yes"/>
      <point x="250.748" y="426.049"/>
      <point x="254.988" y="419.838"/>
      <point x="267" y="419" type="curve" smooth="yes" name="n04"/>
      <point x="310" y="416" type="line"/>
      <point x="310" y="383" type="line" name="n06"/>
      <point x="115" y="383" type="line"/>
      <point x="115" y="417" type="line"/>
      <point x="170" y="419" type="line"/>
      <point x="184" y="420"/>
      <point x="190" y="426"/>
      <point x="192" y="437" type="curve" smooth="yes"/>
      <point x="252" y="732" type="line"/>
      <point x="156" y="721" type="line"/>
      <point x="156" y="753" type="line"/>
      <point x="305" y="792" type="line"/>
    </contour>
  </outline>
</glyph>
<glyph name="ordmasculine" format="2">
  <advance width="329"/>
  <unicode hex="00BA"/>
  <outline>
    <contour>
      <point x="361" y="563" type="curve" smooth="yes" name="n00"/>
      <point x="361" y="466"/>
      <point x="289" y="376"/>
      <point x="188" y="376" type="curve" smooth="yes" name="n03"/>
      <point x="117" y="376"/>
      <point x="73" y="419"/>
      <point x="73" y="489" type="curve" smooth="yes" name="n06"/>
      <point x="73" y="586"/>
      <point x="143" y="679"/>
      <point x="245" y="679" type="curve" smooth="yes" name="n09"/>
      <point x="308" y="679"/>
      <point x="361" y="644"/>
    </contour>
    <contour>
      <point x="329" y="338" type="line" name="n12"/>
      <point x="322" y="306" type="line" name="n13"/>
      <point x="35" y="306" type="line"/>
      <point x="42" y="338" type="line"/>
    </contour>
    <contour>
      <point x="295" y="565" type="curve" smooth="yes" name="n16"/>
      <point x="295" y="622"/>
      <point x="271" y="653"/>
      <point x="238" y="653" type="curve" smooth="yes" name="n19"/>
      <point x="182" y="653"/>
      <point x="139" y="570"/>
      <point x="139" y="492" type="curve" smooth="yes" name="n22"/>
      <point x="139" y="432"/>
      <point x="164" y="403"/>
      <point x="196" y="403" type="curve" smooth="yes" name="n25"/>
      <point x="258" y="403"/>
      <point x="295" y="494"/>
    </contour>
  </outline>
</glyph>
<glyph name="onequarter" format="2">
  <advance width="878"/>
  <unicode hex="00BC"/>
  <outline>
    <contour>
      <point x="790" y="162" type="line" name="n00"/>
      <point x="780" y="116" type="line" name="n01"/>
      <point x="708" y="116" type="line"/>
      <point x="679" y="-21" type="line" name="n03"/>
      <point x="621" y="-21" type="line"/>
      <point x="649" y="116" type="line" name="hr02"/>
      <point x="443" y="116" type="line"/>
      <point x="452" y="160" type="line"/>
      <point x="724" y="410" type="line"/>
      <point x="770" y="410" type="line"/>
      <point x="718" y="162" type="line"/>
    </contour>
    <contour>
      <point x="752" y="698" type="line"/>
      <point x="171" y="0" type="line" name="n12"/>
      <point x="100" y="0" type="line"/>
      <point x="681" y="698" type="line"/>
    </contour>
    <contour>
      <point x="279" y="701" type="line" name="n15"/>
      <point x="206" y="346" type="line" smooth="yes"/>
      <point x="203.748" y="335.049"/>
      <point x="209" y="329"/>
      <point x="220" y="329" type="curve"/>
      <point x="263" y="325" type="line"/>
      <point x="263" y="292" type="line"/>
      <point x="68" y="292" type="line"/>
      <point x="68" y="326" type="line"/>
      <point x="123" y="329" type="line"/>
      <point x="137" y="329"/>
      <point x="143" y="335"/>
      <point x="146" y="346" type="curve"/>
      <point x="205" y="641" type="line"/>
      <point x="109" y="630" type="line"/>
      <point x="109" y="662" type="line"/>
      <point x="258" y="701" type="line"/>
    </contour>
    <contour>
      <point x="694" y="329" type="line"/>
      <point x="515" y="162" type="line"/>
      <point x="660" y="162" type="line" name="n34"/>
    </contour>
  </outline>
</glyph>
<glyph name="threequarters" format="2">
  <advance width="878"/>
  <unicode hex="00BE"/>
  <outline>
    <contour>
      <point x="822" y="162" type="line" name="n00"/>
      <point x="812" y="116" type="line" name="n01"/>
      <point x="740" y="116" type="line"/>
      <point x="712" y="-21" type="line" name="n03"/>
      <point x="654" y="-21" type="line"/>
      <point x="682" y="116" type="line" name="hr02"/>
      <point x="475" y="116" type="line"/>
      <point x="484" y="160" type="line"/>
      <point x="757" y="410" type="line"/>
      <point x="802" y="410" type="line"/>
      <point x="750" y="162" type="line"/>
    </contour>
    <contour>
      <point x="798" y="698" type="line"/>
      <point x="217" y="0" type="line" name="n12"/>
      <point x="146" y="0" type="line"/>
      <point x="727" y="698" type="line"/>
    </contour>
    <contour>
      <point x="383" y="618" type="curve" smooth="yes" name="n15"/>
      <point x="383" y="574"/>
      <point x="346" y="531"/>
      <point x="278" y="510" type="curve"/>
      <point x="320" y="503"/>
      <point x="357" y="481" name="hr03"/>
      <point x="357" y="432" type="curve" smooth="yes" name="n21"/>
      <point x="357" y="352"/>
      <point x="269" y="286"/>
      <point x="164" y="286" type="curve" smooth="yes" name="n24"/>
      <point x="81" y="286"/>
      <point x="45" y="323"/>
      <point x="45" y="354" type="curve" smooth="yes"/>
      <point x="45" y="366"/>
      <point x="51" y="392" name="hr04"/>
      <point x="84" y="392" type="curve" smooth="yes" name="n30"/>
      <point x="98" y="392"/>
      <point x="111" y="386"/>
      <point x="111" y="386" type="curve"/>
      <point x="121" y="335" type="line"/>
      <point x="127" y="332"/>
      <point x="147" y="322" name="hr05"/>
      <point x="171" y="322" type="curve" smooth="yes" name="n37"/>
      <point x="238" y="322"/>
      <point x="287" y="367"/>
      <point x="287" y="423" type="curve" smooth="yes" name="n40"/>
      <point x="287" y="490"/>
      <point x="216" y="487"/>
      <point x="169" y="481" type="curve"/>
      <point x="176" y="524" type="line" name="n44"/>
      <point x="262" y="519"/>
      <point x="312" y="559"/>
      <point x="312" y="610" type="curve" smooth="yes" name="n47"/>
      <point x="312" y="653"/>
      <point x="276" y="669"/>
      <point x="246" y="669" type="curve" smooth="yes" name="n50"/>
      <point x="214" y="669"/>
      <point x="192" y="656"/>
      <point x="187" y="652" type="curve"/>
      <point x="178" y="595" type="line"/>
      <point x="178" y="595"/>
      <point x="156" y="586"/>
      <point x="143" y="586" type="curve" smooth="yes"/>
      <point x="131" y="586"/>
      <point x="111" y="595"/>
      <point x="111" y="619" type="curve" smooth="yes"/>
      <point x="111" y="671"/>
      <point x="195" y="706"/>
      <point x="267" y="706" type="curve" smooth="yes" name="n63"/>
      <point x="336" y="706"/>
      <point x="383" y="677"/>
    </contour>
    <contour>
      <point x="727" y="329" type="line"/>
      <point x="547" y="162" type="line"/>
      <point x="692" y="162" type="line" name="n68"/>
    </contour>
  </outline>
</glyph>
<glyph name="questiondown" format="2">
  <advance width="485"/>
  <unicode hex="00BF"/>
  <outline>
    <contour>
      <point x="380" y="435" type="curve" smooth="yes" name="n00"/>
      <point x="380" y="404"/>
      <point x="355" y="373"/>
      <point x="314" y="373" type="curve" smooth="yes" name="n03"/>
      <point x="272" y="373"/>
      <point x="250" y="403"/>
      <point x="250" y="434" type="curve" smooth="yes" name="n06"/>
      <point x="250" y="465"/>
      <point x="272" y="494"/>
      <point x="314" y="494" type="curve" smooth="yes" name="n09"/>
      <point x="355" y="494"/>
      <point x="380" y="466"/>
    </contour>
    <contour>
      <point x="371" y="-101" type="curve" smooth="yes"/>
      <point x="371" y="-140"/>
      <point x="329" y="-209"/>
      <point x="196" y="-209" type="curve" smooth="yes" name="n15"/>
      <point x="78" y="-209"/>
      <point x="13" y="-154"/>
      <point x="13" y="-66" type="curve" smooth="yes" name="n18"/>
      <point x="13" y="69"/>
      <point x="132" y="145"/>
      <point x="241" y="190" type="curve"/>
      <point x="264" y="309" type="line"/>
      <point x="332" y="309" type="line"/>
      <point x="304" y="160" type="line"/>
      <point x="213" y="131"/>
      <point x="122" y="57"/>
      <point x="122" y="-55" type="curve" smooth="yes" name="n27"/>
      <point x="122" y="-123"/>
      <point x="162" y="-159"/>
      <point x="227" y="-159" type="curve" name="n30"/>
      <point x="232.722" y="-149.558"/>
      <point x="287" y="-60"/>
      <point x="287" y="-60" type="curve" name="n33"/>
      <point x="316" y="-60" type="line" smooth="yes"/>
      <point x="350" y="-60"/>
      <point x="371" y="-75"/>
    </contour>
  </outline>
</glyph>
<glyph name="Thorn" format="2">
  <advance width="565"/>
  <unicode hex="00DE"/>
  <outline>
    <contour>
      <point x="545" y="385" type="curve" smooth="yes" name="n00"/>
      <point x="545" y="224"/>
      <point x="415" y="125"/>
      <point x="241" y="125" type="curve" smooth="yes"/>
      <point x="221" y="125"/>
      <point x="177" y="126"/>
      <point x="177" y="126" type="curve"/>
      <point x="166" y="66" type="line" smooth="yes"/>
      <point x="164" y="56"/>
      <point x="168" y="48"/>
      <point x="186" y="47" type="curve"/>
      <point x="186" y="47"/>
      <point x="229.215" y="43.2092"/>
      <point x="243" y="42" type="curve"/>
      <point x="243" y="0" type="line" name="n14"/>
      <point x="-17" y="0" type="line"/>
      <point x="-17" y="42" type="line"/>
      <point x="-2.48033" y="43.2517"/>
      <point x="41" y="47"/>
      <point x="41" y="47" type="curve"/>
      <point x="53" y="48"/>
      <point x="62" y="54"/>
      <point x="65" y="66" type="curve"/>
      <point x="170" y="604" type="line" smooth="yes"/>
      <point x="172" y="615"/>
      <point x="168" y="623"/>
      <point x="150" y="624" type="curve"/>
      <point x="150" y="624"/>
      <point x="107.528" y="627.792"/>
      <point x="94" y="629" type="curve"/>
      <point x="94" y="671" type="line"/>
      <point x="352" y="671" type="line" name="n31"/>
      <point x="352" y="629" type="line"/>
      <point x="337.016" y="627.708"/>
      <point x="294" y="624"/>
      <point x="294" y="624" type="curve"/>
      <point x="282" y="623"/>
      <point x="272" y="617"/>
      <point x="270" y="604" type="curve"/>
      <point x="259" y="545" type="line" name="n39"/>
      <point x="318" y="545" type="line" smooth="yes"/>
      <point x="481" y="545"/>
      <point x="545" y="479"/>
    </contour>
    <contour>
      <point x="441" y="369" type="curve" smooth="yes" name="n43"/>
      <point x="441" y="446"/>
      <point x="401" y="499"/>
      <point x="286" y="499" type="curve" smooth="yes" name="n46"/>
      <point x="274" y="499"/>
      <point x="258" y="498"/>
      <point x="249" y="497" type="curve"/>
      <point x="187" y="178" type="line"/>
      <point x="245" y="173"/>
      <point x="306" y="182"/>
      <point x="354" y="210" type="curve" smooth="yes"/>
      <point x="403" y="240"/>
      <point x="441" y="291"/>
    </contour>
  </outline>
</glyph>
<glyph name="germandbls" format="2">
  <advance width="556"/>
  <unicode hex="00DF"/>
  <outline>
    <contour>
      <point x="530" y="605" type="curve" smooth="yes" name="n00"/>
      <point x="530" y="547"/>
      <point x="512" y="489"/>
      <point x="496" y="434" type="curve"/>
      <point x="472" y="436"/>
      <point x="459" y="437"/>
      <point x="446" y="437" type="curve" smooth="yes"/>
      <point x="413" y="437"/>
      <point x="342" y="426"/>
      <point x="342" y="369" type="curve" smooth="yes" name="n09"/>
      <point x="342" y="332"/>
      <point x="386" y="301"/>
      <point x="430" y="266" type="curve" smooth="yes"/>
      <point x="474" y="232"/>
      <point x="517" y="195" name="hr01"/>
      <point x="517" y="146" type="curve" smooth="yes" name="n15"/>
      <point x="517" y="47"/>
      <point x="430" y="-12"/>
      <point x="327" y="-12" type="curve" smooth="yes" name="n18"/>
      <point x="259" y="-12"/>
      <point x="185" y="13"/>
      <point x="185" y="81" type="curve" smooth="yes"/>
      <point x="185" y="109"/>
      <point x="205" y="132"/>
      <point x="245" y="132" type="curve" smooth="yes" name="n24"/>
      <point x="267" y="132"/>
      <point x="279" y="125"/>
      <point x="297" y="113" type="curve"/>
      <point x="279" y="63" type="line"/>
      <point x="300" y="37"/>
      <point x="320" y="29" name="hr02"/>
      <point x="343" y="29" type="curve" smooth="yes" name="n31"/>
      <point x="385" y="29"/>
      <point x="426" y="58"/>
      <point x="426" y="113" type="curve" smooth="yes" name="n34"/>
      <point x="426" y="153"/>
      <point x="389" y="180"/>
      <point x="343" y="215" type="curve" smooth="yes"/>
      <point x="302" y="247"/>
      <point x="262" y="281"/>
      <point x="262" y="333" type="curve" smooth="yes" name="n40"/>
      <point x="262" y="416"/>
      <point x="336" y="473"/>
      <point x="424" y="481" type="curve"/>
      <point x="436" y="523"/>
      <point x="446" y="566" name="hr03"/>
      <point x="446" y="607" type="curve" smooth="yes" name="n46"/>
      <point x="446" y="662"/>
      <point x="413" y="688"/>
      <point x="369" y="688" type="curve" smooth="yes" name="n49"/>
      <point x="279" y="688"/>
      <point x="227" y="601"/>
      <point x="198" y="493" type="curve" smooth="yes"/>
      <point x="151" y="317"/>
      <point x="165" y="132"/>
      <point x="102" y="-41" type="curve" smooth="yes"/>
      <point x="78" y="-106"/>
      <point x="-14" y="-229" name="n57"/>
      <point x="-98" y="-229" type="curve" smooth="yes"/>
      <point x="-140" y="-229"/>
      <point x="-160" y="-207"/>
      <point x="-160" y="-175" type="curve" smooth="yes"/>
      <point x="-160" y="-159"/>
      <point x="-151" y="-144"/>
      <point x="-134" y="-131" type="curve"/>
      <point x="-31" y="-158" type="line"/>
      <point x="10" y="-118"/>
      <point x="34" y="17"/>
      <point x="41" y="63" type="curve" smooth="yes"/>
      <point x="99" y="455" type="line" smooth="yes"/>
      <point x="121" y="599"/>
      <point x="203" y="737"/>
      <point x="375" y="737" type="curve" smooth="yes" name="n72"/>
      <point x="469" y="737"/>
      <point x="530" y="692"/>
    </contour>
  </outline>
</glyph>
<glyph name="dotlessi" format="2">
  <advance width="266"/>
  <unicode hex="0131"/>
  <anchor x="160" y="570" name="top"/>
  <outline>
    <contour>
      <point x="263" y="29" type="line"/>
      <point x="248" y="22"/>
      <point x="172" y="-12"/>
      <point x="117" y="-12" type="curve" smooth="yes" name="n03"/>
      <point x="62.3966" y="-12"/>
      <point x="45.1913" y="21.5294"/>
      <point x="45.1913" y="58.5577" type="curve" smooth="yes"/>
      <point x="45.1913" y="67.6423"/>
      <point x="46.2269" y="76.9376"/>
      <point x="48" y="86" type="curve" smooth="yes"/>
      <point x="112" y="425" type="line"/>
      <point x="26" y="434" type="line"/>
      <point x="26" y="463" type="line"/>
      <point x="177" y="494" type="line" name="n13"/>
      <point x="218" y="494" type="line"/>
      <point x="142" y="94" type="line" smooth="yes"/>
      <point x="141.413" y="90.8303"/>
      <point x="141.129" y="87.702"/>
      <point x="141.129" y="84.649" type="curve" smooth="yes"/>
      <point x="141.129" y="61.6958"/>
      <point x="157.17" y="43"/>
      <point x="181" y="43" type="curve" smooth="yes" name="n21"/>
      <point x="204" y="43"/>
      <point x="249.575" y="61"/>
      <point x="263" y="67" type="curve"/>
    </contour>
  </outline>
</glyph>
<glyph name="jcircumflex" format="2">
  <advance width="272"/>
  <unicode hex="0135"/>
  <outline>
    <contour>
      <point x="231" y="494" type="line" name="n00"/>
      <point x="160" y="80" type="line" smooth="yes"/>
      <point x="142.855" y="-19.9752"/>
      <point x="72" y="-229" name="n03"/>
      <point x="-62" y="-229" type="curve" smooth="yes"/>
      <point x="-104" y="-229"/>
      <point x="-129" y="-206"/>
      <point x="-129" y="-176" type="curve" smooth="yes"/>
      <point x="-129" y="-151"/>
      <point x="-111" y="-137"/>
      <point x="-101" y="-131" type="curve"/>
      <point x="-1" y="-158" type="line"/>
      <point x="18" y="-137"/>
      <point x="42" y="-67"/>
      <point x="52" y="-12" type="curve" smooth="yes"/>
      <point x="127" y="425" type="line"/>
      <point x="43" y="434" type="line"/>
      <point x="43" y="463" type="line"/>
      <point x="194" y="494" type="line"/>
    </contour>
    <contour>
      <point x="369" y="551" type="line"/>
      <point x="299" y="551" type="line"/>
      <point x="217" y="643" type="line"/>
      <point x="97" y="551" type="line"/>
      <point x="27" y="551" type="line"/>
      <point x="192" y="720" type="line" name="n24"/>
      <point x="271" y="720" type="line"/>
    </contour>
  </outline>
</glyph>
<glyph name="lcedilla" format="2">
  <advance width="265"/>
  <unicode hex="013C"/>
  <outline>
    <contour>
      <point x="263" y="26" type="line"/>
      <point x="247" y="20"/>
      <point x="171" y="-12"/>
      <point x="124" y="-12" type="curve" smooth="yes" name="n03"/>
      <point x="63" y="-12"/>
      <point x="39" y="18"/>
      <point x="39" y="61" type="curve" smooth="yes"/>
      <point x="39" y="71"/>
      <point x="40" y="83"/>
      <point x="42" y="96" type="curve"/>
      <point x="152" y="668" type="line"/>
      <point x="63" y="677" type="line"/>
      <point x="63" y="707" type="line"/>
      <point x="219" y="737" type="line" name="n13"/>
      <point x="258" y="737" type="line"/>
      <point x="136" y="99" type="line" smooth="yes"/>
      <point x="131" y="72"/>
      <point x="154" y="44"/>
      <point x="182" y="44" type="curve" smooth="yes" name="n18"/>
      <point x="201" y="44"/>
      <point x="252" y="61"/>
      <point x="263" y="64" type="curve"/>
    </contour>
    <contour>
      <point x="122" y="-121" type="curve" smooth="yes" name="n22"/>
      <point x="122" y="-204"/>
      <point x="50" y="-252"/>
      <point x="-25" y="-266" type="curve"/>
      <point x="-19" y="-232" type="line"/>
      <point x="35" y="-216"/>
      <point x="55" y="-202"/>
      <point x="66" y="-145" type="curve" name="n29"/>
      <point x="13" y="-145" type="line"/>
      <point x="7" y="-138"/>
      <point x="5" y="-127"/>
      <point x="5" y="-118" type="curve" smooth="yes" name="n33"/>
      <point x="5" y="-84"/>
      <point x="34" y="-61"/>
      <point x="66" y="-61" type="curve" smooth="yes" name="n36"/>
      <point x="103" y="-61"/>
      <point x="122" y="-85"/>
    </contour>
  </outline>
</glyph>
<glyph name="Ldot" format="2">
  <advance width="651"/>
  <unicode hex="013F"/>
  <outline>
    <contour>
      <point x="483" y="185" type="line"/>
      <point x="447" y="0" type="line" name="n01"/>
      <point x="-15" y="0" type="line"/>
      <point x="-15" y="42" type="line"/>
      <point x="-1.21767" y="43.1881"/>
      <point x="43" y="47"/>
      <point x="43" y="47" type="curve"/>
      <point x="56" y="48"/>
      <point x="65" y="54"/>
      <point x="67" y="66" type="curve" smooth="yes"/>
      <point x="171" y="604" type="line" smooth="yes"/>
      <point x="173" y="615"/>
      <point x="169" y="623"/>
      <point x="152" y="624" type="curve"/>
      <point x="152" y="624"/>
      <point x="109.786" y="627.769"/>
      <point x="96" y="629" type="curve"/>
      <point x="96" y="671" type="line" name="n17"/>
      <point x="356" y="671" type="line"/>
      <point x="356" y="629" type="line"/>
      <point x="341.006" y="627.729"/>
      <point x="297" y="624"/>
      <point x="297" y="624" type="curve"/>
      <point x="282" y="623"/>
      <point x="274" y="614"/>
      <point x="272" y="604" type="curve" smooth="yes"/>
      <point x="166" y="50" type="line"/>
      <point x="363" y="50" type="line" smooth="yes" name="n27"/>
      <point x="376" y="50"/>
      <point x="384.221" y="57.9285"/>
      <point x="388" y="70" type="curve" smooth="yes"/>
      <point x="424" y="185" type="line" name="n31"/>
    </contour>
    <contour>
      <point x="646" y="340" type="curve" smooth="yes" name="n32"/>
      <point x="646" y="307"/>
      <point x="621" y="281"/>
      <point x="588" y="281" type="curve" smooth="yes" name="n35"/>
      <point x="555" y="281"/>
      <point x="529" y="307"/>
      <point x="529" y="340" type="curve" smooth="yes" name="n38"/>
      <point x="529" y="373"/>
      <point x="555" y="399"/>
      <point x="588" y="399" type="curve" smooth="yes" name="n41"/>
      <point x="621" y="399"/>
      <point x="646" y="373"/>
    </contour>
  </outline>
</glyph>
<glyph name="ldot" format="2">
  <advance width="398"/>
  <unicode hex="0140"/>
  <outline>
    <contour>
      <point x="263" y="26" type="line"/>
      <point x="247" y="20"/>
      <point x="171" y="-12"/>
      <point x="124" y="-12" type="curve" smooth="yes" name="n03"/>
      <point x="63" y="-12"/>
      <point x="39" y="18"/>
      <point x="39" y="61" type="curve" smooth="yes"/>
      <point x="39" y="71"/>
      <point x="40" y="83"/>
      <point x="42" y="96" type="curve"/>
      <point x="152" y="668" type="line"/>
      <point x="63" y="677" type="line"/>
      <point x="63" y="707" type="line"/>
      <point x="219" y="737" type="line" name="n13"/>
      <point x="258" y="737" type="line"/>
      <point x="136" y="99" type="line" smooth="yes"/>
      <point x="131" y="72"/>
      <point x="154" y="44"/>
      <point x="182" y="44" type="curve" smooth="yes" name="n18"/>
      <point x="201" y="44"/>
      <point x="252" y="61"/>
      <point x="263" y="64" type="curve"/>
    </contour>
    <contour>
      <point x="394" y="340" type="curve" smooth="yes" name="n22"/>
      <point x="394" y="307"/>
      <point x="368" y="281"/>
      <point x="335" y="281" type="curve" smooth="yes" name="n25"/>
      <point x="302" y="281"/>
      <point x="276" y="307"/>
      <point x="276" y="340" type="curve" smooth="yes" name="n28"/>
      <point x="276" y="373"/>
      <point x="302" y="399"/>
      <point x="335" y="399" type="curve" smooth="yes" name="n31"/>
      <point x="368" y="399"/>
      <point x="394" y="373"/>
    </contour>
  </outline>
</glyph>
<glyph name="Lslash" format="2">
  <advance width="518"/>
  <unicode hex="0141"/>
  <outline>
    <contour>
      <point x="483" y="185" type="line"/>
      <point x="447" y="0" type="line" name="n01"/>
      <point x="-15" y="0" type="line"/>
      <point x="-15" y="42" type="line"/>
      <point x="-1.21767" y="43.1881"/>
      <point x="43" y="47"/>
      <point x="43" y="47" type="curve"/>
      <point x="56" y="48"/>
      <point x="65" y="54"/>
      <point x="67" y="66" type="curve" smooth="yes"/>
      <point x="106" y="270" type="line"/>
      <point x="15" y="218" type="line"/>
      <point x="-9" y="267" type="line"/>
      <point x="120" y="339" type="line"/>
      <point x="171" y="604" type="line" smooth="yes"/>
      <point x="173" y="615"/>
      <point x="169" y="623"/>
      <point x="152" y="624" type="curve"/>
      <point x="152" y="624"/>
      <point x="109.786" y="627.769"/>
      <point x="96" y="629" type="curve"/>
      <point x="96" y="671" type="line" name="n21"/>
      <point x="356" y="671" type="line"/>
      <point x="356" y="629" type="line"/>
      <point x="341.006" y="627.729"/>
      <point x="297" y="624"/>
      <point x="297" y="624" type="curve"/>
      <point x="282" y="623"/>
      <point x="274" y="614"/>
      <point x="272" y="604" type="curve" smooth="yes"/>
      <point x="233" y="403" type="line"/>
      <point x="341" y="463" type="line"/>
      <point x="368" y="415" type="line"/>
      <point x="220" y="333" type="line"/>
      <point x="166" y="50" type="line"/>
      <point x="363" y="50" type="line" smooth="yes" name="n35"/>
      <point x="376" y="50"/>
      <point x="384.221" y="57.9285"/>
      <point x="388" y="70" type="curve" smooth="yes"/>
      <point x="424" y="185" type="line" name="n39"/>
    </contour>
  </outline>
</glyph>
<glyph name="lslash" format="2">
  <advance width="274"/>
  <unicode hex="0142"/>
  <outline>
    <contour>
      <point x="328" y="447" type="line"/>
      <point x="200" y="382" type="line"/>
      <point x="146" y="99" type="line" smooth="yes"/>
      <point x="141" y="72"/>
      <point x="164" y="44"/>
      <point x="191" y="44" type="curve" smooth="yes" name="n05"/>
      <point x="210" y="44"/>
      <point x="262" y="61"/>
      <point x="272" y="64" type="curve"/>
      <point x="272" y="26" type="line"/>
      <point x="257" y="20"/>
      <point x="181" y="-12"/>
      <point x="133" y="-12" type="curve" smooth="yes" name="n12"/>
      <point x="73" y="-12"/>
      <point x="48" y="18"/>
      <point x="48" y="61" type="curve" smooth="yes"/>
      <point x="48" y="71"/>
      <point x="50" y="83"/>
      <point x="52" y="96" type="curve"/>
      <point x="97" y="330" type="line"/>
      <point x="3" y="282" type="line"/>
      <point x="-19" y="326" type="line"/>
      <point x="109" y="391" type="line"/>
      <point x="162" y="668" type="line"/>
      <point x="73" y="677" type="line"/>
      <point x="73" y="707" type="line"/>
      <point x="229" y="737" type="line" name="n26"/>
      <point x="268" y="737" type="line"/>
      <point x="212" y="444" type="line"/>
      <point x="305" y="491" type="line"/>
    </contour>
  </outline>
</glyph>
<glyph name="ncedilla" format="2">
  <advance width="529"/>
  <unicode hex="0146"/>
  <outline>
    <contour>
      <point x="527" y="20" type="line"/>
      <point x="510" y="14"/>
      <point x="435" y="-12" name="n02"/>
      <point x="393" y="-12" type="curve" smooth="yes"/>
      <point x="369" y="-12"/>
      <point x="301" y="-7"/>
      <point x="312" y="47" type="curve" smooth="yes"/>
      <point x="373" y="354" type="line" smooth="yes"/>
      <point x="383" y="407"/>
      <point x="351" y="423"/>
      <point x="329" y="423" type="curve" smooth="yes" name="n10"/>
      <point x="297" y="423"/>
      <point x="229" y="383"/>
      <point x="185" y="336" type="curve"/>
      <point x="116" y="0" type="line" name="n14"/>
      <point x="23" y="0" type="line"/>
      <point x="110" y="425" type="line"/>
      <point x="26" y="434" type="line"/>
      <point x="26" y="463" type="line"/>
      <point x="177" y="494" type="line"/>
      <point x="217" y="494" type="line"/>
      <point x="198" y="401" type="line"/>
      <point x="242" y="446"/>
      <point x="317" y="494"/>
      <point x="384" y="494" type="curve" smooth="yes" name="n24"/>
      <point x="457" y="494"/>
      <point x="489" y="456"/>
      <point x="473" y="366" type="curve"/>
      <point x="420" y="84" type="line" smooth="yes"/>
      <point x="413" y="46"/>
      <point x="451" y="42"/>
      <point x="463" y="42" type="curve" smooth="yes"/>
      <point x="481" y="42"/>
      <point x="503" y="48"/>
      <point x="526" y="55" type="curve"/>
    </contour>
    <contour>
      <point x="243" y="-121" type="curve" smooth="yes" name="n35"/>
      <point x="243" y="-204"/>
      <point x="171" y="-252"/>
      <point x="96" y="-266" type="curve"/>
      <point x="102" y="-232" type="line"/>
      <point x="156" y="-216"/>
      <point x="176" y="-202"/>
      <point x="187" y="-145" type="curve" name="n42"/>
      <point x="134" y="-145" type="line"/>
      <point x="128" y="-138"/>
      <point x="126" y="-127"/>
      <point x="126" y="-118" type="curve" smooth="yes" name="n46"/>
      <point x="126" y="-84"/>
      <point x="155" y="-61"/>
      <point x="187" y="-61" type="curve" smooth="yes" name="n49"/>
      <point x="224" y="-61"/>
      <point x="243" y="-85"/>
    </contour>
  </outline>
</glyph>
<glyph name="ncaron" format="2">
  <advance width="529"/>
  <unicode hex="0148"/>
  <outline>
    <contour>
      <point x="527" y="20" type="line"/>
      <point x="510" y="14"/>
      <point x="435" y="-12" name="n02"/>
      <point x="393" y="-12" type="curve" smooth="yes"/>
      <point x="369" y="-12"/>
      <point x="301" y="-7"/>
      <point x="312" y="47" type="curve" smooth="yes"/>
      <point x="373" y="354" type="line" smooth="yes"/>
      <point x="383" y="407"/>
      <point x="351" y="423"/>
      <point x="329" y="423" type="curve" smooth="yes"/>
      <point x="297" y="423"/>
      <point x="229" y="383"/>
      <point x="185" y="336" type="curve"/>
      <point x="116" y="0" type="line" name="n14"/>
      <point x="23" y="0" type="line"/>
      <point x="110" y="425" type="line"/>
      <point x="26" y="434" type="line"/>
      <point x="26" y="463" type="line"/>
      <point x="177" y="494" type="line" name="n19"/>
      <point x="217" y="494" type="line"/>
      <point x="198" y="401" type="line"/>
      <point x="242" y="446"/>
      <point x="317" y="494"/>
      <point x="384" y="494" type="curve" smooth="yes"/>
      <point x="457" y="494"/>
      <point x="489" y="456"/>
      <point x="473" y="366" type="curve"/>
      <point x="420" y="84" type="line" smooth="yes"/>
      <point x="413" y="46"/>
      <point x="451" y="42"/>
      <point x="463" y="42" type="curve" smooth="yes"/>
      <point x="481" y="42"/>
      <point x="503" y="48"/>
      <point x="526" y="55" type="curve"/>
    </contour>
    <contour>
      <point x="526" y="720" type="line" name="n35"/>
      <point x="360" y="551" type="line"/>
      <point x="281" y="551" type="line"/>
      <point x="183" y="720" type="line"/>
      <point x="253" y="720" type="line"/>
      <point x="336" y="628" type="line"/>
      <point x="455" y="720" type="line"/>
    </contour>
  </outline>
</glyph>
<glyph name="uni0180" format="2">
  <advance width="492"/>
  <unicode hex="0180"/>
  <outline>
    <contour>
      <point x="460" y="310" type="curve" smooth="yes" name="n00"/>
      <point x="460" y="186"/>
      <point x="381" y="-12"/>
      <point x="178" y="-12" type="curve" smooth="yes" name="n03"/>
      <point x="122" y="-12"/>
      <point x="65" y="4"/>
      <point x="18" y="34" type="curve"/>
      <point x="111" y="535" type="line"/>
      <point x="38" y="535" type="line" name="n08"/>
      <point x="48" y="590" type="line" name="n09"/>
      <point x="122" y="590" type="line"/>
      <point x="136" y="668" type="line"/>
      <point x="47" y="677" type="line"/>
      <point x="47" y="707" type="line"/>
      <point x="203" y="737" type="line" name="n14"/>
      <point x="243" y="737" type="line"/>
      <point x="214" y="590" type="line"/>
      <point x="345" y="590" type="line"/>
      <point x="333" y="535" type="line"/>
      <point x="204" y="535" type="line"/>
      <point x="186" y="434" type="line"/>
      <point x="222" y="467"/>
      <point x="274" y="494"/>
      <point x="322" y="494" type="curve" smooth="yes" name="n23"/>
      <point x="425" y="494"/>
      <point x="460" y="393"/>
    </contour>
    <contour>
      <point x="361" y="306" type="curve" smooth="yes" name="n26"/>
      <point x="361" y="396"/>
      <point x="313" y="428"/>
      <point x="289" y="428" type="curve" smooth="yes" name="n29"/>
      <point x="257" y="428"/>
      <point x="208" y="406"/>
      <point x="175" y="377" type="curve"/>
      <point x="118" y="74" type="line"/>
      <point x="131" y="54"/>
      <point x="164" y="35"/>
      <point x="200" y="35" type="curve" smooth="yes" name="n36"/>
      <point x="292" y="35"/>
      <point x="361" y="186"/>
    </contour>
  </outline>
</glyph>
<glyph name="uni0183" format="2">
  <advance width="520"/>
  <unicode hex="0183"/>
  <outline>
    <contour>
      <point x="149" y="737" type="curve"/>
      <point x="489" y="737" type="line" name="n01"/>
      <point x="483.591" y="709.779"/>
      <point x="462.651" y="604.405"/>
      <point x="458" y="581" type="curve" name="n04"/>
      <point x="447.379" y="581"/>
      <point x="411.338" y="581"/>
      <point x="403" y="581" type="curve"/>
      <point x="403.473" y="591.637"/>
      <point x="406.09" y="650.53"/>
      <point x="407" y="671" type="curve"/>
      <point x="408" y="680"/>
      <point x="404" y="690" name="hr01"/>
      <point x="394" y="690" type="curve" smooth="yes" name="n13"/>
      <point x="254" y="690" type="line" smooth="yes"/>
      <point x="240" y="690"/>
      <point x="231" y="677"/>
      <point x="229" y="669" type="curve"/>
      <point x="185" y="434" type="line"/>
      <point x="221" y="467"/>
      <point x="274" y="494"/>
      <point x="322" y="494" type="curve" smooth="yes" name="n21"/>
      <point x="425" y="494"/>
      <point x="460" y="393"/>
      <point x="460" y="310" type="curve" smooth="yes" name="n24"/>
      <point x="460" y="186"/>
      <point x="381" y="-12"/>
      <point x="178" y="-12" type="curve" smooth="yes" name="n27"/>
      <point x="122" y="-12"/>
      <point x="65" y="4"/>
      <point x="18" y="34" type="curve"/>
      <point x="43.729" y="172.073"/>
      <point x="133.35" y="653.014"/>
    </contour>
    <contour>
      <point x="361" y="306" type="curve" smooth="yes" name="n33"/>
      <point x="361" y="396"/>
      <point x="313" y="428"/>
      <point x="289" y="428" type="curve" smooth="yes" name="n36"/>
      <point x="257" y="428"/>
      <point x="208" y="406"/>
      <point x="174" y="377" type="curve"/>
      <point x="118" y="74" type="line"/>
      <point x="131" y="55"/>
      <point x="164" y="35"/>
      <point x="200" y="35" type="curve" smooth="yes" name="n43"/>
      <point x="292" y="35"/>
      <point x="361" y="186"/>
    </contour>
  </outline>
</glyph>
<glyph name="uni0189" format="2">
  <advance width="670"/>
  <unicode hex="0189"/>
  <outline>
    <contour>
      <point x="29" y="326" type="line" name="n00"/>
      <point x="29" y="379" type="line" name="n01"/>
      <point x="347" y="379" type="line"/>
      <point x="347" y="326" type="line"/>
    </contour>
    <contour>
      <point x="653" y="415" type="curve" smooth="yes" name="n04"/>
      <point x="653" y="169"/>
      <point x="476" y="0"/>
      <point x="220" y="0" type="curve" smooth="yes" name="n07"/>
      <point x="-15" y="0" type="line"/>
      <point x="-15" y="42" type="line"/>
      <point x="0.0252198" y="43.2117"/>
      <point x="47" y="47"/>
      <point x="47" y="47" type="curve"/>
      <point x="60" y="48"/>
      <point x="64" y="54"/>
      <point x="67" y="66" type="curve"/>
      <point x="171" y="604" type="line" smooth="yes"/>
      <point x="173" y="615"/>
      <point x="169" y="623"/>
      <point x="151" y="624" type="curve"/>
      <point x="151" y="624"/>
      <point x="108.543" y="627.791"/>
      <point x="95" y="629" type="curve"/>
      <point x="95" y="671" type="line"/>
      <point x="334" y="671" type="line" smooth="yes" name="n24"/>
      <point x="516" y="671"/>
      <point x="653" y="605"/>
    </contour>
    <contour>
      <point x="545" y="424" type="curve" smooth="yes" name="n27"/>
      <point x="545" y="591"/>
      <point x="435" y="617"/>
      <point x="311" y="621" type="curve" name="n30"/>
      <point x="275" y="621" type="line"/>
      <point x="165" y="52" type="line"/>
      <point x="238" y="52" type="line" name="n33"/>
      <point x="440" y="54"/>
      <point x="545" y="234"/>
    </contour>
  </outline>
</glyph>
<glyph name="uni018A" format="2">
  <advance width="686"/>
  <unicode hex="018A"/>
  <outline>
    <contour>
      <point x="668" y="415" type="curve" smooth="yes" name="n00"/>
      <point x="668" y="169"/>
      <point x="491" y="0"/>
      <point x="235" y="0" type="curve" smooth="yes" name="n03"/>
      <point x="0" y="0" type="line"/>
      <point x="0" y="42" type="line"/>
      <point x="14.6883" y="43.1845"/>
      <point x="62" y="47"/>
      <point x="62" y="47" type="curve"/>
      <point x="75" y="48"/>
      <point x="80" y="54"/>
      <point x="82" y="66" type="curve"/>
      <point x="187" y="604" type="line" smooth="yes"/>
      <point x="189" y="614"/>
      <point x="181" y="618"/>
      <point x="171" y="618" type="curve" smooth="yes"/>
      <point x="140" y="618" type="line" smooth="yes"/>
      <point x="105" y="618"/>
      <point x="94" y="598"/>
      <point x="94" y="598" type="curve"/>
      <point x="121" y="528" type="line"/>
      <point x="98" y="507"/>
      <point x="72" y="495"/>
      <point x="53" y="495" type="curve" smooth="yes"/>
      <point x="25" y="495"/>
      <point x="5" y="523"/>
      <point x="5" y="550" type="curve" smooth="yes"/>
      <point x="5" y="630"/>
      <point x="92" y="671"/>
      <point x="142" y="671" type="curve" smooth="yes"/>
      <point x="349" y="671" type="line" smooth="yes" name="n30"/>
      <point x="531" y="671"/>
      <point x="668" y="605"/>
    </contour>
    <contour>
      <point x="560" y="424" type="curve" smooth="yes" name="n33"/>
      <point x="560" y="591"/>
      <point x="450" y="617"/>
      <point x="326" y="621" type="curve" name="n36"/>
      <point x="291" y="621" type="line"/>
      <point x="180" y="52" type="line"/>
      <point x="253" y="52" type="line" name="n39"/>
      <point x="455" y="54"/>
      <point x="560" y="234"/>
    </contour>
  </outline>
</glyph>
<glyph name="uni018B" format="2">
  <advance width="616"/>
  <unicode hex="018B"/>
  <outline>
    <contour>
      <point x="347" y="325" type="curve" smooth="yes" name="n00"/>
      <point x="223" y="325"/>
      <point x="143" y="289"/>
      <point x="143" y="164" type="curve" smooth="yes" name="n03"/>
      <point x="143" y="93"/>
      <point x="200" y="47"/>
      <point x="288" y="47" type="curve" smooth="yes" name="n06"/>
      <point x="322" y="47"/>
      <point x="354" y="49"/>
      <point x="367" y="50" type="curve"/>
      <point x="376.168" y="98.5387"/>
      <point x="407.636" y="265.13"/>
      <point x="418" y="320" type="curve"/>
      <point x="400" y="323"/>
      <point x="375" y="325"/>
    </contour>
    <contour>
      <point x="427" y="364" type="curve"/>
      <point x="474" y="603" type="line" smooth="yes"/>
      <point x="476" y="612"/>
      <point x="472" y="624"/>
      <point x="457" y="624" type="curve" smooth="yes"/>
      <point x="399.201" y="624"/>
      <point x="291.086" y="624"/>
      <point x="265" y="624" type="curve" smooth="yes"/>
      <point x="258" y="624"/>
      <point x="250.962" y="616.015"/>
      <point x="247" y="606" type="curve" smooth="yes"/>
      <point x="239.95" y="588.18"/>
      <point x="216.726" y="529.474"/>
      <point x="211" y="515" type="curve" name="n28"/>
      <point x="157" y="515" type="line" name="hr01"/>
      <point x="161.397" y="537.128"/>
      <point x="181.323" y="637.398"/>
      <point x="188" y="671" type="curve" name="n32"/>
      <point x="659" y="671" type="line" name="n33"/>
      <point x="659" y="664.394"/>
      <point x="659" y="636.115"/>
      <point x="659" y="629" type="curve"/>
      <point x="595" y="624" type="line" smooth="yes" name="n37"/>
      <point x="582.001" y="622.985" name="hr02"/>
      <point x="577" y="617"/>
      <point x="575" y="604" type="curve"/>
      <point x="471" y="66" type="line" smooth="yes"/>
      <point x="469" y="56"/>
      <point x="473" y="48"/>
      <point x="491" y="47" type="curve"/>
      <point x="549" y="42" type="line"/>
      <point x="549" y="0" type="line"/>
      <point x="512.19" y="0"/>
      <point x="355.792" y="0"/>
      <point x="297" y="0" type="curve" smooth="yes" name="n49"/>
      <point x="92" y="0"/>
      <point x="30" y="77"/>
      <point x="30" y="159" type="curve" smooth="yes" name="n52"/>
      <point x="30" y="318"/>
      <point x="188" y="369"/>
      <point x="340" y="369" type="curve" smooth="yes" name="n55"/>
      <point x="380" y="369"/>
      <point x="396" y="366"/>
    </contour>
  </outline>
</glyph>
<glyph name="uni018D" format="2">
  <advance width="502"/>
  <unicode hex="018D"/>
  <outline>
    <contour>
      <point x="37" y="212" type="curve" smooth="yes" name="n00"/>
      <point x="37" y="393"/>
      <point x="187" y="494"/>
      <point x="294" y="494" type="curve" smooth="yes" name="n03"/>
      <point x="388" y="494"/>
      <point x="472" y="450"/>
      <point x="472" y="336" type="curve" smooth="yes" name="n06"/>
      <point x="472" y="175"/>
      <point x="341" y="89"/>
      <point x="217" y="44" type="curve"/>
      <point x="270" y="-17"/>
      <point x="331" y="-65"/>
      <point x="331" y="-120" type="curve" smooth="yes" name="n12"/>
      <point x="331" y="-207"/>
      <point x="232" y="-256"/>
      <point x="157" y="-256" type="curve" smooth="yes" name="n15"/>
      <point x="49" y="-256"/>
      <point x="-12" y="-193"/>
      <point x="-12" y="-148" type="curve" smooth="yes"/>
      <point x="-12" y="-114"/>
      <point x="17" y="-76" name="hr01"/>
      <point x="58" y="-76" type="curve" smooth="yes" name="n21"/>
      <point x="68" y="-76"/>
      <point x="88" y="-80"/>
      <point x="96" y="-88" type="curve"/>
      <point x="96.7865" y="-103.73"/>
      <point x="99.464" y="-157.281"/>
      <point x="100" y="-168" type="curve"/>
      <point x="122" y="-193"/>
      <point x="138" y="-200" name="hr02"/>
      <point x="170" y="-200" type="curve" smooth="yes" name="n30"/>
      <point x="205" y="-200"/>
      <point x="252" y="-188"/>
      <point x="252" y="-143" type="curve" smooth="yes" name="n33"/>
      <point x="252" y="-57"/>
      <point x="37" y="23"/>
    </contour>
    <contour>
      <point x="138" y="221" type="curve" smooth="yes" name="n36"/>
      <point x="138" y="163"/>
      <point x="161" y="116"/>
      <point x="192" y="75" type="curve"/>
      <point x="276" y="115"/>
      <point x="371" y="211"/>
      <point x="371" y="329" type="curve" smooth="yes" name="n42"/>
      <point x="371" y="412"/>
      <point x="342" y="449"/>
      <point x="292" y="449" type="curve" smooth="yes" name="n45"/>
      <point x="207" y="449"/>
      <point x="138" y="338"/>
    </contour>
  </outline>
</glyph>
<glyph name="uni0190" format="2">
  <advance width="543"/>
  <unicode hex="0190"/>
  <outline>
    <contour>
      <point x="559" y="569" type="curve" smooth="yes"/>
      <point x="559" y="532"/>
      <point x="532" y="490"/>
      <point x="481" y="490" type="curve" smooth="yes" name="n03"/>
      <point x="450" y="490"/>
      <point x="437" y="511"/>
      <point x="437" y="511" type="curve"/>
      <point x="394" y="625" type="line"/>
      <point x="384" y="630"/>
      <point x="378" y="631" name="hr01"/>
      <point x="375" y="631" type="curve" smooth="yes" name="n10"/>
      <point x="292" y="631"/>
      <point x="232" y="555"/>
      <point x="232" y="471" type="curve" smooth="yes" name="n13"/>
      <point x="232" y="397"/>
      <point x="287" y="377"/>
      <point x="340" y="377" type="curve" smooth="yes" name="n16"/>
      <point x="346" y="377"/>
      <point x="357" y="377"/>
      <point x="373" y="378" type="curve"/>
      <point x="361" y="313" type="line"/>
      <point x="342" y="315"/>
      <point x="316" y="318"/>
      <point x="303" y="318" type="curve" smooth="yes" name="n23"/>
      <point x="209" y="318"/>
      <point x="132" y="264" name="hr02"/>
      <point x="132" y="162" type="curve" smooth="yes" name="n26"/>
      <point x="132" y="83"/>
      <point x="198" y="36"/>
      <point x="265" y="36" type="curve" smooth="yes" name="n29"/>
      <point x="289" y="36"/>
      <point x="316" y="43"/>
      <point x="343" y="62" type="curve"/>
      <point x="389" y="146" type="line"/>
      <point x="396" y="148"/>
      <point x="415" y="154"/>
      <point x="426" y="154" type="curve" smooth="yes"/>
      <point x="463" y="154"/>
      <point x="480" y="135"/>
      <point x="480" y="108" type="curve" smooth="yes"/>
      <point x="480" y="37"/>
      <point x="359" y="-16"/>
      <point x="254" y="-16" type="curve" smooth="yes" name="n42"/>
      <point x="123" y="-16" name="hr03"/>
      <point x="20" y="27" name="hr04"/>
      <point x="20" y="146" type="curve" smooth="yes" name="n45"/>
      <point x="20" y="301"/>
      <point x="154" y="344"/>
      <point x="232" y="355" type="curve" name="hr05"/>
      <point x="166" y="382"/>
      <point x="123" y="420"/>
      <point x="123" y="482" type="curve" smooth="yes" name="n51"/>
      <point x="123" y="604"/>
      <point x="234" y="687"/>
      <point x="363" y="687" type="curve" smooth="yes" name="n54"/>
      <point x="466" y="687"/>
      <point x="559" y="661"/>
    </contour>
  </outline>
</glyph>
<glyph name="florin" format="2">
  <advance width="321"/>
  <unicode hex="0192"/>
  <outline>
    <contour>
      <point x="441" y="675" type="curve" smooth="yes"/>
      <point x="441" y="643"/>
      <point x="415" y="626"/>
      <point x="378" y="621" type="curve"/>
      <point x="300" y="684" type="line"/>
      <point x="258" y="649"/>
      <point x="230" y="508"/>
      <point x="223" y="457" type="curve"/>
      <point x="345" y="457" type="line" name="n08"/>
      <point x="345" y="407" type="line" name="n09"/>
      <point x="214" y="407" type="line"/>
      <point x="208" y="362"/>
      <point x="172" y="96"/>
      <point x="154" y="22" type="curve" smooth="yes"/>
      <point x="127" y="-90"/>
      <point x="32" y="-229" name="n15"/>
      <point x="-67" y="-229" type="curve" smooth="yes"/>
      <point x="-118" y="-229"/>
      <point x="-130" y="-189"/>
      <point x="-130" y="-179" type="curve" smooth="yes"/>
      <point x="-130" y="-154"/>
      <point x="-119" y="-142"/>
      <point x="-104" y="-131" type="curve"/>
      <point x="-2" y="-157" type="line"/>
      <point x="33" y="-114"/>
      <point x="56" y="-31"/>
      <point x="72" y="62" type="curve" smooth="yes"/>
      <point x="89" y="156"/>
      <point x="101" y="275"/>
      <point x="121" y="406" type="curve"/>
      <point x="44" y="398" type="line"/>
      <point x="45" y="437" type="line"/>
      <point x="132" y="466" type="line"/>
      <point x="152" y="572"/>
      <point x="212" y="737" name="n34"/>
      <point x="349" y="737" type="curve" smooth="yes"/>
      <point x="417" y="737"/>
      <point x="441" y="698"/>
    </contour>
  </outline>
</glyph>
<glyph name="uni0194" format="2">
  <advance width="666"/>
  <unicode hex="0194"/>
  <outline>
    <contour>
      <point x="730" y="632" type="line"/>
      <point x="661" y="626" type="line"/>
      <point x="384" y="262" type="line"/>
      <point x="393" y="235"/>
      <point x="429" y="142"/>
      <point x="429" y="107" type="curve" smooth="yes" name="n05"/>
      <point x="429" y="37"/>
      <point x="354" y="-16"/>
      <point x="289" y="-16" type="curve" smooth="yes" name="n08"/>
      <point x="238" y="-16"/>
      <point x="183" y="7"/>
      <point x="183" y="65" type="curve" smooth="yes" name="n11"/>
      <point x="183" y="101"/>
      <point x="273" y="204"/>
      <point x="286" y="220" type="curve"/>
      <point x="152" y="627" type="line"/>
      <point x="83" y="632" type="line"/>
      <point x="83" y="671" type="line"/>
      <point x="347" y="671" type="line"/>
      <point x="347" y="632" type="line"/>
      <point x="294" y="629" type="line" smooth="yes"/>
      <point x="276.001" y="627.981"/>
      <point x="269" y="618"/>
      <point x="273" y="604" type="curve"/>
      <point x="273" y="604"/>
      <point x="357" y="348"/>
      <point x="365" y="324" type="curve"/>
      <point x="385" y="351"/>
      <point x="582" y="607"/>
      <point x="582" y="607" type="curve"/>
      <point x="590" y="618"/>
      <point x="586" y="627"/>
      <point x="564" y="629" type="curve" smooth="yes" name="n32"/>
      <point x="520" y="632" type="line"/>
      <point x="520" y="671" type="line" name="n34"/>
      <point x="730" y="671" type="line"/>
    </contour>
    <contour>
      <point x="328" y="81" type="curve" smooth="yes" name="n36"/>
      <point x="328" y="96"/>
      <point x="311" y="143"/>
      <point x="306" y="159" type="curve"/>
      <point x="292" y="142"/>
      <point x="249" y="93"/>
      <point x="249" y="71" type="curve" smooth="yes" name="n42"/>
      <point x="249" y="52"/>
      <point x="265" y="42"/>
      <point x="283" y="42" type="curve" smooth="yes" name="n45"/>
      <point x="306" y="42"/>
      <point x="328" y="56"/>
    </contour>
  </outline>
</glyph>
<glyph name="uni0198" format="2">
  <advance width="655"/>
  <unicode hex="0198"/>
  <outline>
    <contour>
      <point x="743" y="591" type="curve" smooth="yes" name="n00"/>
      <point x="743" y="559"/>
      <point x="722" y="515"/>
      <point x="686" y="515" type="curve"/>
      <point x="665" y="514"/>
      <point x="644" y="526"/>
      <point x="640" y="528" type="curve"/>
      <point x="640" y="627" type="line" name="n07"/>
      <point x="633" y="634"/>
      <point x="621" y="641"/>
      <point x="605" y="641" type="curve" smooth="yes" name="n10"/>
      <point x="588" y="641"/>
      <point x="572" y="628"/>
      <point x="554" y="607" type="curve" smooth="yes"/>
      <point x="346" y="368" type="line"/>
      <point x="485" y="99" type="line" smooth="yes"/>
      <point x="510" y="50"/>
      <point x="529" y="40"/>
      <point x="564" y="40" type="curve" smooth="yes" name="n18"/>
      <point x="576" y="40"/>
      <point x="590" y="41"/>
      <point x="606" y="42" type="curve"/>
      <point x="606" y="0" type="line" name="n22"/>
      <point x="575" y="-9"/>
      <point x="538" y="-16" name="hr02"/>
      <point x="512" y="-16" type="curve" smooth="yes" name="n25"/>
      <point x="454" y="-16"/>
      <point x="422" y="0" name="hr03"/>
      <point x="392" y="58" type="curve" smooth="yes"/>
      <point x="269" y="295" type="line"/>
      <point x="212" y="295" type="line"/>
      <point x="167" y="66" type="line" smooth="yes"/>
      <point x="165" y="56"/>
      <point x="170" y="48"/>
      <point x="187" y="47" type="curve"/>
      <point x="187" y="47"/>
      <point x="231.609" y="43.1544"/>
      <point x="245" y="42" type="curve"/>
      <point x="245" y="0" type="line"/>
      <point x="-16" y="0" type="line"/>
      <point x="-16" y="42" type="line"/>
      <point x="-4.02089" y="43.0327"/>
      <point x="42" y="47"/>
      <point x="42" y="47" type="curve"/>
      <point x="55" y="48"/>
      <point x="64" y="54"/>
      <point x="66" y="66" type="curve"/>
      <point x="171" y="604" type="line" smooth="yes"/>
      <point x="173" y="615"/>
      <point x="169" y="623"/>
      <point x="152" y="624" type="curve"/>
      <point x="152" y="624"/>
      <point x="109.783" y="627.769"/>
      <point x="96" y="629" type="curve"/>
      <point x="96" y="671" type="line" name="n54"/>
      <point x="356" y="671" type="line"/>
      <point x="356" y="629" type="line"/>
      <point x="341.473" y="627.769"/>
      <point x="297" y="624"/>
      <point x="297" y="624" type="curve"/>
      <point x="284" y="623"/>
      <point x="275" y="617"/>
      <point x="272" y="604" type="curve"/>
      <point x="222" y="342" type="line"/>
      <point x="238" y="342" type="line"/>
      <point x="491" y="634" type="line" smooth="yes"/>
      <point x="523" y="671"/>
      <point x="571" y="687" name="hr04"/>
      <point x="605" y="687" type="curve" smooth="yes" name="n68"/>
      <point x="659" y="687"/>
      <point x="743" y="652"/>
    </contour>
  </outline>
</glyph>
<glyph name="uni019A" format="2">
  <advance width="265"/>
  <unicode hex="019A"/>
  <outline>
    <contour>
      <point x="307" y="378" type="line"/>
      <point x="296" y="323" type="line"/>
      <point x="179" y="323" type="line" name="n02"/>
      <point x="171.295" y="282.865"/>
      <point x="144.251" y="141.98"/>
      <point x="136" y="99" type="curve" smooth="yes"/>
      <point x="131" y="72"/>
      <point x="154" y="44"/>
      <point x="182" y="44" type="curve" smooth="yes" name="n08"/>
      <point x="201" y="44"/>
      <point x="252" y="61"/>
      <point x="263" y="64" type="curve"/>
      <point x="263" y="57.8313"/>
      <point x="263" y="31.9271"/>
      <point x="263" y="26" type="curve"/>
      <point x="247" y="20"/>
      <point x="171" y="-12"/>
      <point x="124" y="-12" type="curve" smooth="yes" name="n17"/>
      <point x="63" y="-12"/>
      <point x="39" y="18"/>
      <point x="39" y="61" type="curve" smooth="yes"/>
      <point x="39" y="71"/>
      <point x="40" y="83"/>
      <point x="42" y="96" type="curve"/>
      <point x="86" y="323" type="line"/>
      <point x="-13" y="323" type="line"/>
      <point x="-2" y="378" type="line"/>
      <point x="97" y="378" type="line"/>
      <point x="152" y="668" type="line"/>
      <point x="63" y="677" type="line"/>
      <point x="63" y="707" type="line"/>
      <point x="219" y="737" type="line" name="n31"/>
      <point x="258" y="737" type="line"/>
      <point x="189" y="378" type="line" name="n33"/>
    </contour>
  </outline>
</glyph>
<glyph name="uni019B" format="2">
  <advance width="566"/>
  <unicode hex="019B"/>
  <outline>
    <contour>
      <point x="363" y="665" type="curve"/>
      <point x="347.768" y="651.519"/>
      <point x="286.74" y="597.506"/>
      <point x="276" y="588" type="curve"/>
      <point x="294.016" y="501.795"/>
      <point x="352.625" y="221.354"/>
      <point x="369" y="143" type="curve" smooth="yes"/>
      <point x="389" y="49"/>
      <point x="396" y="35"/>
      <point x="444" y="35" type="curve" name="n09"/>
      <point x="511" y="140" type="line"/>
      <point x="550" y="140"/>
      <point x="574" y="107"/>
      <point x="574" y="80" type="curve" smooth="yes"/>
      <point x="574" y="14"/>
      <point x="498" y="-12"/>
      <point x="413" y="-12" type="curve" smooth="yes" name="n16"/>
      <point x="345" y="-12"/>
      <point x="325" y="33"/>
      <point x="310" y="110" type="curve"/>
      <point x="263" y="337" type="line"/>
      <point x="63" y="0" type="line" name="n21"/>
      <point x="-34" y="0" type="line"/>
      <point x="10.6748" y="74.896"/>
      <point x="184.907" y="366.992"/>
      <point x="238" y="456" type="curve"/>
      <point x="219" y="539" type="line"/>
      <point x="197.435" y="519.951"/>
      <point x="122.482" y="453.743"/>
      <point x="99" y="433" type="curve"/>
      <point x="99" y="445.378"/>
      <point x="99" y="495.113"/>
      <point x="99" y="504" type="curve"/>
      <point x="119.917" y="522.571"/>
      <point x="188.091" y="583.1"/>
      <point x="206" y="599" type="curve"/>
      <point x="189" y="677"/>
      <point x="180" y="690"/>
      <point x="136" y="690" type="curve" name="n38"/>
      <point x="69" y="585" type="line"/>
      <point x="29" y="585"/>
      <point x="6" y="618"/>
      <point x="6" y="645" type="curve" smooth="yes"/>
      <point x="6" y="711"/>
      <point x="82" y="737"/>
      <point x="167" y="737" type="curve" smooth="yes" name="n45"/>
      <point x="224" y="737"/>
      <point x="247" y="704"/>
      <point x="263" y="648" type="curve"/>
      <point x="363" y="736" type="line"/>
      <point x="363" y="723.263"/>
      <point x="363" y="678.866"/>
    </contour>
  </outline>
</glyph>
<glyph name="uni019D" format="2">
  <advance width="769"/>
  <unicode hex="019D"/>
  <outline>
    <contour>
      <point x="290" y="531" type="line"/>
      <point x="186" y="-14" type="line" smooth="yes"/>
      <point x="164" y="-132"/>
      <point x="90" y="-229" name="n03"/>
      <point x="-14" y="-229" type="curve" smooth="yes"/>
      <point x="-88" y="-229"/>
      <point x="-102" y="-198"/>
      <point x="-102" y="-172" type="curve" smooth="yes"/>
      <point x="-102" y="-142"/>
      <point x="-74" y="-110"/>
      <point x="-43" y="-105" type="curve"/>
      <point x="25" y="-172" type="line"/>
      <point x="75" y="-153"/>
      <point x="95" y="-97"/>
      <point x="114" y="1" type="curve" smooth="yes"/>
      <point x="229" y="604" type="line" smooth="yes"/>
      <point x="231" y="615"/>
      <point x="227" y="623"/>
      <point x="210" y="624" type="curve" name="n18"/>
      <point x="210" y="624"/>
      <point x="168.533" y="627.77"/>
      <point x="155" y="629" type="curve"/>
      <point x="155" y="671" type="line" name="n22"/>
      <point x="348" y="671" type="line"/>
      <point x="348" y="645" type="line"/>
      <point x="573" y="168" type="line"/>
      <point x="658" y="604" type="line" smooth="yes"/>
      <point x="660" y="615"/>
      <point x="656" y="623"/>
      <point x="639" y="624" type="curve"/>
      <point x="639" y="624"/>
      <point x="595.529" y="627.813"/>
      <point x="582" y="629" type="curve"/>
      <point x="582" y="671" type="line"/>
      <point x="813" y="671" type="line"/>
      <point x="813" y="629" type="line"/>
      <point x="757" y="624" type="line" smooth="yes"/>
      <point x="744" y="623"/>
      <point x="734" y="617"/>
      <point x="731" y="604" type="curve"/>
      <point x="614" y="0" type="line" name="n40"/>
      <point x="542" y="0" type="line"/>
    </contour>
  </outline>
</glyph>
<glyph name="ohorn" format="2">
  <advance width="602"/>
  <unicode hex="01A1"/>
  <outline>
    <contour>
      <point x="597" y="493" type="curve" smooth="yes" name="n00"/>
      <point x="597" y="421"/>
      <point x="541" y="346"/>
      <point x="475" y="313" type="curve" name="hr01"/>
      <point x="475" y="300" type="line" smooth="yes" name="n04"/>
      <point x="475" y="138"/>
      <point x="363" y="-12"/>
      <point x="209" y="-12" type="curve" smooth="yes" name="n07"/>
      <point x="99" y="-12"/>
      <point x="31" y="61"/>
      <point x="31" y="177" type="curve" smooth="yes" name="n10"/>
      <point x="31" y="339"/>
      <point x="139" y="494"/>
      <point x="296" y="494" type="curve" smooth="yes" name="n13"/>
      <point x="379" y="494"/>
      <point x="451" y="450"/>
      <point x="470" y="353" type="curve"/>
      <point x="501" y="382"/>
      <point x="519" y="418"/>
      <point x="525" y="458" type="curve" name="n19"/>
      <point x="457" y="458" type="line"/>
      <point x="457" y="458"/>
      <point x="441" y="477"/>
      <point x="441" y="504" type="curve" smooth="yes" name="n23"/>
      <point x="441" y="544"/>
      <point x="478" y="574"/>
      <point x="521" y="574" type="curve" smooth="yes" name="n26"/>
      <point x="565" y="574"/>
      <point x="597" y="541"/>
    </contour>
    <contour>
      <point x="374" y="304" type="curve" smooth="yes" name="n29"/>
      <point x="374" y="399" name="hr03"/>
      <point x="336" y="451"/>
      <point x="285" y="451" type="curve" smooth="yes" name="n32"/>
      <point x="198" y="451"/>
      <point x="132" y="312"/>
      <point x="132" y="182" type="curve" smooth="yes" name="n35"/>
      <point x="132" y="83"/>
      <point x="171" y="33"/>
      <point x="221" y="33" type="curve" smooth="yes" name="n38"/>
      <point x="316" y="33"/>
      <point x="374" y="186"/>
    </contour>
  </outline>
</glyph>
<glyph name="uni01A5" format="2">
  <advance width="494"/>
  <unicode hex="01A5"/>
  <outline>
    <contour>
      <point x="509" y="640" type="curve" smooth="yes"/>
      <point x="509" y="609"/>
      <point x="478" y="583"/>
      <point x="448" y="583" type="curve" smooth="yes" name="n03"/>
      <point x="434" y="583"/>
      <point x="425" y="588"/>
      <point x="425" y="588" type="curve"/>
      <point x="408" y="672" type="line"/>
      <point x="398" y="682"/>
      <point x="380" y="686" name="hr01"/>
      <point x="358" y="686" type="curve" smooth="yes" name="n10"/>
      <point x="294" y="686"/>
      <point x="227" y="631"/>
      <point x="205" y="521" type="curve" smooth="yes"/>
      <point x="187" y="432" type="line"/>
      <point x="221" y="454"/>
      <point x="275" y="494"/>
      <point x="331" y="494" type="curve" smooth="yes" name="n17"/>
      <point x="432" y="494"/>
      <point x="462" y="398"/>
      <point x="462" y="309" type="curve" smooth="yes" name="n20"/>
      <point x="462" y="145"/>
      <point x="339" y="-12"/>
      <point x="176" y="-12" type="curve" smooth="yes" name="n23"/>
      <point x="146" y="-12"/>
      <point x="121" y="-1"/>
      <point x="105" y="6" type="curve"/>
      <point x="73" y="-155" type="line" smooth="yes"/>
      <point x="71" y="-166"/>
      <point x="75" y="-173"/>
      <point x="93" y="-175" type="curve"/>
      <point x="156" y="-180" type="line"/>
      <point x="156" y="-218" type="line"/>
      <point x="-96" y="-218" type="line"/>
      <point x="-96" y="-180" type="line"/>
      <point x="-86.8906" y="-179.124"/>
      <point x="-44" y="-175"/>
      <point x="-44" y="-175" type="curve"/>
      <point x="-31" y="-174"/>
      <point x="-22" y="-168"/>
      <point x="-20" y="-155" type="curve"/>
      <point x="116" y="542" type="line" smooth="yes"/>
      <point x="135" y="637"/>
      <point x="225" y="737"/>
      <point x="363" y="737" type="curve" smooth="yes" name="n44"/>
      <point x="451" y="737"/>
      <point x="509" y="708"/>
    </contour>
    <contour>
      <point x="363" y="305" type="curve" smooth="yes" name="n47"/>
      <point x="363" y="364"/>
      <point x="339" y="433"/>
      <point x="285" y="433" type="curve" smooth="yes" name="n50"/>
      <point x="237" y="433"/>
      <point x="186" y="383"/>
      <point x="176" y="375" type="curve"/>
      <point x="116" y="65" type="line"/>
      <point x="128" y="58"/>
      <point x="161" y="35"/>
      <point x="196" y="35" type="curve" smooth="yes" name="n57"/>
      <point x="305" y="35"/>
      <point x="363" y="194"/>
    </contour>
  </outline>
</glyph>
<glyph name="uni01AC" format="2">
  <advance width="585"/>
  <unicode hex="01AC"/>
  <outline>
    <contour>
      <point x="649" y="671" type="line" name="n00"/>
      <point x="618" y="518" type="line" name="n01"/>
      <point x="555" y="518" type="line"/>
      <point x="559" y="606" type="line" smooth="yes"/>
      <point x="560" y="620"/>
      <point x="554" y="626" name="hr01"/>
      <point x="540" y="626" type="curve" smooth="yes"/>
      <point x="411" y="626" type="line"/>
      <point x="307" y="66" type="line" smooth="yes"/>
      <point x="305" y="56"/>
      <point x="309" y="48"/>
      <point x="327" y="47" type="curve"/>
      <point x="327" y="47"/>
      <point x="370.702" y="43.1665"/>
      <point x="384" y="42" type="curve"/>
      <point x="384" y="0" type="line" name="n15"/>
      <point x="124" y="0" type="line"/>
      <point x="124" y="42" type="line"/>
      <point x="137.713" y="43.1822"/>
      <point x="182" y="47"/>
      <point x="182" y="47" type="curve"/>
      <point x="194" y="48"/>
      <point x="204" y="54"/>
      <point x="206" y="66" type="curve" smooth="yes"/>
      <point x="310" y="626" type="line"/>
      <point x="200" y="626" type="line" smooth="yes" name="n25"/>
      <point x="152" y="626"/>
      <point x="129" y="614"/>
      <point x="129" y="581" type="curve"/>
      <point x="202" y="513" type="line"/>
      <point x="179" y="492"/>
      <point x="151" y="478" name="hr02"/>
      <point x="127" y="478" type="curve" smooth="yes" name="n32"/>
      <point x="98" y="478"/>
      <point x="66" y="498"/>
      <point x="66" y="558" type="curve" smooth="yes"/>
      <point x="66" y="640"/>
      <point x="127" y="671"/>
      <point x="203" y="671" type="curve" smooth="yes" name="n38"/>
    </contour>
  </outline>
</glyph>
<glyph name="Uhorn" format="2">
  <advance width="810"/>
  <unicode hex="01AF"/>
  <outline>
    <contour>
      <point x="874" y="772" type="curve" smooth="yes" name="n00"/>
      <point x="874" y="637.135"/>
      <point x="780" y="523.303"/>
      <point x="646" y="499.338" type="curve"/>
      <point x="590" y="214.757" type="line" smooth="yes"/>
      <point x="562" y="69.9706"/>
      <point x="470" y="-16"/>
      <point x="308.992" y="-16" type="curve" smooth="yes" name="n07"/>
      <point x="188" y="-16"/>
      <point x="92" y="32.7385"/>
      <point x="92" y="154.926" type="curve" smooth="yes" name="n10"/>
      <point x="92" y="179.809"/>
      <point x="96" y="218.751"/>
      <point x="105" y="264.684" type="curve" smooth="yes"/>
      <point x="175" y="604.184" type="line"/>
      <point x="175.465" y="608.917" type="line"/>
      <point x="175.457" y="617.271"/>
      <point x="170.238" y="622.796"/>
      <point x="155" y="624.154" type="curve" smooth="yes"/>
      <point x="99" y="629.147" type="line"/>
      <point x="99" y="671.085" type="line" name="n20"/>
      <point x="359" y="671.085" type="line"/>
      <point x="359" y="629.147" type="line"/>
      <point x="300" y="624.154" type="line" smooth="yes"/>
      <point x="288" y="623.156"/>
      <point x="278.616" y="617.055"/>
      <point x="276" y="604.184" type="curve" smooth="yes"/>
      <point x="207" y="264.684" type="line" smooth="yes"/>
      <point x="199" y="225.741"/>
      <point x="196" y="193.788"/>
      <point x="196" y="174.505" type="curve" smooth="yes" name="n30"/>
      <point x="196" y="91.9382"/>
      <point x="251" y="50"/>
      <point x="337" y="50" type="curve" smooth="yes" name="n33"/>
      <point x="467" y="50"/>
      <point x="508" y="142.863"/>
      <point x="529" y="249.706" type="curve" smooth="yes"/>
      <point x="599" y="604.184" type="line"/>
      <point x="599.465" y="608.917" type="line"/>
      <point x="599.457" y="617.271"/>
      <point x="594.238" y="622.796"/>
      <point x="579" y="624.154" type="curve" smooth="yes"/>
      <point x="523" y="629.147" type="line"/>
      <point x="523" y="671.085" type="line"/>
      <point x="729" y="671.085" type="line"/>
      <point x="729" y="629.147" type="line"/>
      <point x="691" y="624.154" type="line" smooth="yes"/>
      <point x="678.938" y="622.57"/>
      <point x="669.58" y="617.062"/>
      <point x="667" y="604.184" type="curve" smooth="yes"/>
      <point x="657" y="554.257" type="line"/>
      <point x="757" y="576.225"/>
      <point x="788" y="645.124"/>
      <point x="788" y="729" type="curve" name="n53"/>
      <point x="700" y="729" type="line"/>
      <point x="689.895" y="745.453"/>
      <point x="683" y="767.842" name="hr01"/>
      <point x="683" y="786.299" type="curve" smooth="yes" name="n57"/>
      <point x="683" y="836"/>
      <point x="733" y="872"/>
      <point x="783.804" y="872" type="curve" smooth="yes" name="n60"/>
      <point x="836" y="872"/>
      <point x="874" y="834"/>
    </contour>
  </outline>
</glyph>
<glyph name="uni01B1" format="2">
  <advance width="708"/>
  <unicode hex="01B1"/>
  <outline>
    <contour>
      <point x="708" y="671" type="line" name="n00"/>
      <point x="697" y="619" type="line"/>
      <point x="636" y="612" type="line"/>
      <point x="623" y="611"/>
      <point x="616" y="602"/>
      <point x="621" y="591" type="curve"/>
      <point x="621" y="591"/>
      <point x="640" y="542"/>
      <point x="643" y="535" type="curve"/>
      <point x="659" y="485"/>
      <point x="676" y="432"/>
      <point x="676" y="379" type="curve" smooth="yes" name="n11"/>
      <point x="676" y="180"/>
      <point x="507" y="-16"/>
      <point x="300" y="-16" type="curve" smooth="yes" name="n14"/>
      <point x="145" y="-16"/>
      <point x="48" y="86"/>
      <point x="48" y="237" type="curve" smooth="yes" name="n17"/>
      <point x="48" y="328"/>
      <point x="94" y="417"/>
      <point x="144" y="493" type="curve"/>
      <point x="149" y="502"/>
      <point x="216" y="591"/>
      <point x="216" y="591" type="curve"/>
      <point x="223" y="601"/>
      <point x="223" y="613"/>
      <point x="207" y="614" type="curve" smooth="yes"/>
      <point x="150" y="619" type="line"/>
      <point x="162" y="671" type="line"/>
      <point x="335" y="671" type="line"/>
      <point x="246" y="557"/>
      <point x="173" y="381"/>
      <point x="173" y="237" type="curve" smooth="yes" name="n32"/>
      <point x="173" y="147"/>
      <point x="208" y="52"/>
      <point x="312" y="52" type="curve" smooth="yes" name="n35"/>
      <point x="504" y="52"/>
      <point x="570" y="335"/>
      <point x="570" y="485" type="curve" smooth="yes" name="n38"/>
      <point x="570" y="544"/>
      <point x="555" y="615"/>
      <point x="534" y="671" type="curve"/>
    </contour>
  </outline>
</glyph>
<glyph name="uni01B4.RtHook" format="2">
  <advance width="527"/>
  <unicode hex="01B4"/>
  <outline>
    <contour>
      <point x="650" y="563" type="curve" smooth="yes"/>
      <point x="650" y="534"/>
      <point x="627" y="509"/>
      <point x="604" y="493" type="curve"/>
      <point x="528" y="542" type="line"/>
      <point x="507" y="542"/>
      <point x="487" y="523"/>
      <point x="442" y="420" type="curve"/>
      <point x="442" y="420"/>
      <point x="285" y="41"/>
      <point x="251" y="-16" type="curve" smooth="yes"/>
      <point x="189" y="-122"/>
      <point x="109" y="-229"/>
      <point x="13" y="-229" type="curve" smooth="yes" name="n13"/>
      <point x="-60" y="-229"/>
      <point x="-80" y="-188"/>
      <point x="-80" y="-163" type="curve" smooth="yes"/>
      <point x="-80" y="-133"/>
      <point x="-51" y="-106"/>
      <point x="-11" y="-104" type="curve" name="n19"/>
      <point x="47" y="-162" type="line"/>
      <point x="89" y="-158"/>
      <point x="124" y="-105"/>
      <point x="192" y="18" type="curve"/>
      <point x="189" y="34"/>
      <point x="171" y="133"/>
      <point x="150" y="229" type="curve" smooth="yes"/>
      <point x="129" y="323"/>
      <point x="102" y="427"/>
      <point x="93" y="428" type="curve"/>
      <point x="2" y="435" type="line"/>
      <point x="2" y="460" type="line"/>
      <point x="20" y="466"/>
      <point x="104" y="494" name="n33"/>
      <point x="122" y="494" type="curve" smooth="yes"/>
      <point x="165" y="494"/>
      <point x="185" y="452"/>
      <point x="205" y="386" type="curve" smooth="yes"/>
      <point x="222" y="327"/>
      <point x="240" y="237"/>
      <point x="260" y="130" type="curve"/>
      <point x="326" y="289"/>
      <point x="380" y="430"/>
      <point x="380" y="430" type="curve"/>
      <point x="439" y="577"/>
      <point x="491" y="622" name="n45"/>
      <point x="583" y="622" type="curve" smooth="yes"/>
      <point x="625" y="622"/>
      <point x="650" y="590"/>
    </contour>
  </outline>
</glyph>
<glyph name="uni01B6" format="2">
  <advance width="444"/>
  <unicode hex="01B6"/>
  <outline>
    <contour>
      <point x="358" y="222" type="curve" name="n00"/>
      <point x="330.818" y="222"/>
      <point x="245.197" y="222"/>
      <point x="240" y="222" type="curve"/>
      <point x="214.789" y="192.49"/>
      <point x="131.2" y="94.6448"/>
      <point x="111" y="71" type="curve"/>
      <point x="195" y="93" type="line"/>
      <point x="222" y="83"/>
      <point x="269" y="59"/>
      <point x="296" y="59" type="curve" smooth="yes" name="n10"/>
      <point x="324" y="59"/>
      <point x="338" y="78"/>
      <point x="349" y="92" type="curve"/>
      <point x="294" y="153" type="line"/>
      <point x="307" y="177"/>
      <point x="332" y="191"/>
      <point x="350" y="191" type="curve" smooth="yes"/>
      <point x="386" y="191"/>
      <point x="407" y="158"/>
      <point x="407" y="129" type="curve" smooth="yes"/>
      <point x="407" y="48"/>
      <point x="327" y="-12"/>
      <point x="262" y="-12" type="curve" smooth="yes" name="n23"/>
      <point x="201" y="-12"/>
      <point x="153" y="31" name="hr01"/>
      <point x="104" y="31" type="curve" smooth="yes" name="n26"/>
      <point x="99" y="31"/>
      <point x="87" y="30"/>
      <point x="78" y="21" type="curve"/>
      <point x="75.5212" y="16.3399"/>
      <point x="55.9468" y="-20.46"/>
      <point x="53" y="-26" type="curve"/>
      <point x="-16" y="11" type="line"/>
      <point x="-4.07528" y="24.9784"/>
      <point x="130.256" y="182.445"/>
      <point x="164" y="222" type="curve" name="hr02"/>
      <point x="148.765" y="222"/>
      <point x="99.5662" y="222"/>
      <point x="90" y="222" type="curve"/>
      <point x="90" y="228.744"/>
      <point x="90" y="262.045"/>
      <point x="90" y="272" type="curve" name="n42"/>
      <point x="116.952" y="272"/>
      <point x="201.847" y="272"/>
      <point x="207" y="272" type="curve"/>
      <point x="230.209" y="299.211"/>
      <point x="304.765" y="386.621"/>
      <point x="323" y="408" type="curve"/>
      <point x="235" y="389" type="line"/>
      <point x="208" y="404"/>
      <point x="177" y="418"/>
      <point x="150" y="418" type="curve" smooth="yes" name="n52"/>
      <point x="133" y="418"/>
      <point x="107" y="407"/>
      <point x="96" y="389" type="curve"/>
      <point x="149" y="325" type="line"/>
      <point x="144" y="317"/>
      <point x="122" y="292" name="hr03"/>
      <point x="94" y="292" type="curve" smooth="yes" name="n59"/>
      <point x="56" y="292"/>
      <point x="39" y="326"/>
      <point x="39" y="351" type="curve" smooth="yes"/>
      <point x="39" y="412"/>
      <point x="92" y="494"/>
      <point x="180" y="494" type="curve" smooth="yes" name="n65"/>
      <point x="240" y="494"/>
      <point x="290" y="444" name="hr04"/>
      <point x="330" y="444" type="curve" smooth="yes" name="n68"/>
      <point x="334" y="444"/>
      <point x="341" y="445"/>
      <point x="353" y="451" type="curve"/>
      <point x="355.172" y="456.528"/>
      <point x="372.286" y="500.093"/>
      <point x="375" y="507" type="curve"/>
      <point x="450" y="468" type="line"/>
      <point x="438.514" y="454.519"/>
      <point x="314.053" y="308.445"/>
      <point x="283" y="272" type="curve" name="hr05"/>
      <point x="298.441" y="272"/>
      <point x="348.305" y="272"/>
      <point x="358" y="272" type="curve" name="n81"/>
      <point x="358" y="265.155"/>
      <point x="358" y="231.946"/>
    </contour>
  </outline>
</glyph>
<glyph name="uni01B8" format="2">
  <advance width="588"/>
  <unicode hex="01B8"/>
  <outline>
    <contour>
      <point x="621" y="671" type="line" name="n00"/>
      <point x="579" y="458" type="line" name="n01"/>
      <point x="522" y="458" type="line"/>
      <point x="531" y="553" type="line"/>
      <point x="531" y="564"/>
      <point x="523" y="576" name="hr01"/>
      <point x="514" y="576" type="curve" smooth="yes"/>
      <point x="235" y="576" type="line" name="n07"/>
      <point x="417" y="271" type="line"/>
      <point x="380" y="236" type="line"/>
      <point x="375" y="241"/>
      <point x="364" y="250"/>
      <point x="339" y="250" type="curve" smooth="yes" name="n12"/>
      <point x="258" y="250"/>
      <point x="114" y="185"/>
      <point x="114" y="31" type="curve" smooth="yes" name="n15"/>
      <point x="114" y="-63"/>
      <point x="176" y="-162"/>
      <point x="269" y="-162" type="curve" smooth="yes" name="n18"/>
      <point x="305" y="-162"/>
      <point x="358" y="-152"/>
      <point x="384" y="-131" type="curve"/>
      <point x="411" y="-24" type="line"/>
      <point x="429" y="-12"/>
      <point x="442" y="-10"/>
      <point x="461" y="-10" type="curve" smooth="yes"/>
      <point x="505" y="-10"/>
      <point x="530" y="-29"/>
      <point x="530" y="-78" type="curve" smooth="yes"/>
      <point x="530" y="-146"/>
      <point x="411" y="-229"/>
      <point x="259" y="-229" type="curve" smooth="yes" name="n31"/>
      <point x="112" y="-229"/>
      <point x="0" y="-113"/>
      <point x="0" y="18" type="curve" smooth="yes" name="n34"/>
      <point x="0" y="184"/>
      <point x="161" y="300"/>
      <point x="315" y="300" type="curve" name="n37"/>
      <point x="140" y="599" type="line"/>
      <point x="154" y="671" type="line" name="n39"/>
    </contour>
  </outline>
</glyph>
<glyph name="uni01BA" format="2">
  <advance width="474"/>
  <unicode hex="01BA"/>
  <outline>
    <contour>
      <point x="508" y="452" type="line"/>
      <point x="287" y="247" type="line"/>
      <point x="307" y="247"/>
      <point x="403" y="253"/>
      <point x="403" y="162" type="curve" smooth="yes" name="n04"/>
      <point x="403" y="-26"/>
      <point x="111" y="8"/>
      <point x="111" y="-121" type="curve" smooth="yes" name="n07"/>
      <point x="111" y="-152"/>
      <point x="148" y="-184"/>
      <point x="181" y="-184" type="curve" smooth="yes" name="n10"/>
      <point x="214" y="-184"/>
      <point x="264" y="-173"/>
      <point x="276" y="-154" type="curve" name="hr01"/>
      <point x="276" y="-87" type="line" name="n14"/>
      <point x="286" y="-75"/>
      <point x="308" y="-64"/>
      <point x="329" y="-64" type="curve" smooth="yes"/>
      <point x="356" y="-64"/>
      <point x="369" y="-86"/>
      <point x="369" y="-113" type="curve" smooth="yes" name="n20"/>
      <point x="369" y="-156"/>
      <point x="286" y="-229"/>
      <point x="181" y="-229" type="curve" smooth="yes" name="n23"/>
      <point x="119" y="-229"/>
      <point x="38" y="-181"/>
      <point x="38" y="-104" type="curve" smooth="yes" name="n26"/>
      <point x="38" y="58"/>
      <point x="323" y="44" name="hr02"/>
      <point x="323" y="150" type="curve" smooth="yes" name="n29"/>
      <point x="323" y="181"/>
      <point x="274" y="207"/>
      <point x="239" y="207" type="curve" smooth="yes"/>
      <point x="205" y="207"/>
      <point x="176" y="183"/>
      <point x="176" y="183" type="curve"/>
      <point x="153" y="203" type="line"/>
      <point x="372" y="400" type="line"/>
      <point x="372" y="400"/>
      <point x="292" y="396"/>
      <point x="258" y="396" type="curve" smooth="yes" name="n40"/>
      <point x="221" y="396"/>
      <point x="186" y="418" name="hr03"/>
      <point x="147" y="418" type="curve" smooth="yes" name="n43"/>
      <point x="127" y="418"/>
      <point x="105" y="405"/>
      <point x="95" y="389" type="curve"/>
      <point x="146" y="325" type="line"/>
      <point x="136" y="308"/>
      <point x="114" y="292" name="hr04"/>
      <point x="93" y="292" type="curve" smooth="yes" name="n50"/>
      <point x="60" y="292"/>
      <point x="39" y="320"/>
      <point x="39" y="351" type="curve" smooth="yes"/>
      <point x="39" y="425"/>
      <point x="101" y="494"/>
      <point x="176" y="494" type="curve" smooth="yes" name="n56"/>
      <point x="244" y="494"/>
      <point x="304" y="449"/>
      <point x="370" y="449" type="curve" smooth="yes"/>
      <point x="384" y="449"/>
      <point x="398" y="453"/>
      <point x="412" y="455" type="curve"/>
      <point x="444" y="500" type="line"/>
    </contour>
  </outline>
</glyph>
<glyph name="uni01BB" format="2">
  <advance width="556"/>
  <unicode hex="01BB"/>
  <outline>
    <contour>
      <point x="516" y="532" type="curve" smooth="yes" name="n00"/>
      <point x="516" y="454"/>
      <point x="472" y="384"/>
      <point x="405" y="317" type="curve"/>
      <point x="503" y="317" type="line" name="n04"/>
      <point x="501.554" y="308.901"/>
      <point x="494.86" y="271.418"/>
      <point x="493" y="261" type="curve" name="n07"/>
      <point x="343" y="261" type="line"/>
      <point x="274" y="203"/>
      <point x="191" y="147"/>
      <point x="107" y="87" type="curve"/>
      <point x="386" y="87" type="line" name="n12"/>
      <point x="419" y="171" type="line" name="n13"/>
      <point x="472" y="171" type="line"/>
      <point x="440" y="0" type="line" name="n15"/>
      <point x="393.159" y="0"/>
      <point x="66.2711" y="0"/>
      <point x="-25" y="0" type="curve"/>
      <point x="-12" y="69" type="line"/>
      <point x="94" y="145"/>
      <point x="179" y="206"/>
      <point x="244" y="261" type="curve"/>
      <point x="22" y="261" type="line"/>
      <point x="23.9873" y="271.117"/>
      <point x="31.3106" y="308.399"/>
      <point x="33" y="317" type="curve"/>
      <point x="89.4186" y="317"/>
      <point x="253.504" y="317"/>
      <point x="306" y="317" type="curve"/>
      <point x="376" y="387"/>
      <point x="411" y="449"/>
      <point x="411" y="521" type="curve" smooth="yes" name="n32"/>
      <point x="411" y="593"/>
      <point x="370" y="624"/>
      <point x="306" y="624" type="curve" smooth="yes" name="n35"/>
      <point x="263" y="624"/>
      <point x="227" y="605"/>
      <point x="219" y="601" type="curve"/>
      <point x="214.888" y="578.494"/>
      <point x="203.769" y="517.628"/>
      <point x="200" y="497" type="curve"/>
      <point x="198" y="496"/>
      <point x="179" y="479"/>
      <point x="147" y="479" type="curve" smooth="yes"/>
      <point x="134" y="479"/>
      <point x="98" y="484"/>
      <point x="98" y="524" type="curve" smooth="yes"/>
      <point x="98" y="602"/>
      <point x="213" y="683"/>
      <point x="336" y="683" type="curve" smooth="yes" name="n50"/>
      <point x="431" y="683"/>
      <point x="516" y="643"/>
    </contour>
  </outline>
</glyph>
<glyph name="uni01BC" format="2">
  <advance width="544"/>
  <unicode hex="01BC"/>
  <outline>
    <contour>
      <point x="248" y="598" type="curve"/>
      <point x="221" y="459" type="line" name="n01"/>
      <point x="339" y="459"/>
      <point x="499" y="396"/>
      <point x="499" y="236" type="curve" smooth="yes" name="n04"/>
      <point x="499" y="78"/>
      <point x="364" y="-16"/>
      <point x="183" y="-16" type="curve" smooth="yes" name="n07"/>
      <point x="81" y="-16"/>
      <point x="14" y="38"/>
      <point x="14" y="102" type="curve" smooth="yes"/>
      <point x="14" y="135"/>
      <point x="46" y="159" name="hr01"/>
      <point x="82" y="159" type="curve" smooth="yes" name="n13"/>
      <point x="93" y="159"/>
      <point x="109" y="155"/>
      <point x="112" y="154" type="curve"/>
      <point x="128" y="62" type="line"/>
      <point x="141" y="47"/>
      <point x="180" y="34" name="hr02"/>
      <point x="217" y="34" type="curve" smooth="yes" name="n20"/>
      <point x="306" y="34"/>
      <point x="395" y="121"/>
      <point x="395" y="212" type="curve" smooth="yes" name="n23"/>
      <point x="395" y="322"/>
      <point x="277" y="378"/>
      <point x="116" y="378" type="curve" name="n26"/>
      <point x="159" y="598" type="line"/>
      <point x="160" y="606"/>
      <point x="156" y="617"/>
      <point x="142" y="619" type="curve" name="n30"/>
      <point x="91" y="623" type="line"/>
      <point x="100" y="671" type="line" name="n32"/>
      <point x="583" y="671" type="line" name="n33"/>
      <point x="553" y="515" type="line" name="n34"/>
      <point x="499" y="515" type="line"/>
      <point x="503" y="600" type="line"/>
      <point x="503" y="610"/>
      <point x="499" y="619" name="hr04"/>
      <point x="490" y="619" type="curve" smooth="yes"/>
      <point x="273" y="619" type="line" smooth="yes"/>
      <point x="259" y="619"/>
      <point x="249" y="606"/>
    </contour>
  </outline>
</glyph>
<glyph name="uni01BE" format="2">
  <advance width="438"/>
  <unicode hex="01BE"/>
  <outline>
    <contour>
      <point x="413" y="435" type="curve" name="n00"/>
      <point x="389.066" y="435"/>
      <point x="305.143" y="435"/>
      <point x="283" y="435" type="curve"/>
      <point x="281.609" y="428.463"/>
      <point x="274.839" y="396.643"/>
      <point x="273" y="388" type="curve"/>
      <point x="341" y="355"/>
      <point x="406" y="327"/>
      <point x="406" y="194" type="curve" smooth="yes" name="n09"/>
      <point x="406" y="43"/>
      <point x="267" y="-12"/>
      <point x="137" y="-12" type="curve" smooth="yes" name="n12"/>
      <point x="40" y="-12"/>
      <point x="9" y="31"/>
      <point x="9" y="70" type="curve" smooth="yes"/>
      <point x="9" y="110"/>
      <point x="39" y="141" name="hr01"/>
      <point x="81" y="141" type="curve" smooth="yes"/>
      <point x="84.9332" y="141"/>
      <point x="100.237" y="141"/>
      <point x="104" y="141" type="curve" name="n21"/>
      <point x="124" y="42" type="line" name="n22"/>
      <point x="229" y="42"/>
      <point x="300" y="86"/>
      <point x="300" y="200" type="curve" smooth="yes" name="n25"/>
      <point x="300" y="289"/>
      <point x="231" y="331"/>
      <point x="173" y="352" type="curve"/>
      <point x="190" y="435" type="line"/>
      <point x="62" y="435" type="line"/>
      <point x="62" y="443.097"/>
      <point x="62" y="473.673"/>
      <point x="62" y="486" type="curve"/>
      <point x="200" y="486" type="line"/>
      <point x="223" y="600" type="line" smooth="yes"/>
      <point x="225" y="609"/>
      <point x="213" y="619"/>
      <point x="204" y="620" type="curve" smooth="yes"/>
      <point x="152" y="625" type="line"/>
      <point x="152" y="671" type="line" name="hr03"/>
      <point x="196.905" y="671"/>
      <point x="356.158" y="671"/>
      <point x="393" y="671" type="curve" name="n43"/>
      <point x="393" y="625" type="line"/>
      <point x="341" y="620" type="line" smooth="yes"/>
      <point x="332" y="619"/>
      <point x="318" y="609"/>
      <point x="316" y="600" type="curve" smooth="yes"/>
      <point x="293" y="486" type="line" name="hr04"/>
      <point x="413" y="486" type="line" name="n50"/>
      <point x="413" y="477.29"/>
      <point x="413" y="443.946"/>
    </contour>
  </outline>
</glyph>
<glyph name="uni01C2" format="2">
  <advance width="436"/>
  <unicode hex="01C2"/>
  <outline>
    <contour>
      <point x="49" y="302" type="line" name="n00"/>
      <point x="49" y="353" type="line" name="n01"/>
      <point x="417" y="353" type="line"/>
      <point x="417" y="302" type="line"/>
    </contour>
    <contour>
      <point x="20" y="167" type="line" name="n04"/>
      <point x="20" y="218" type="line" name="n05"/>
      <point x="387" y="218" type="line"/>
      <point x="387" y="167" type="line"/>
    </contour>
    <contour>
      <point x="149" y="-215" type="line" name="n08"/>
      <point x="93" y="-215" type="line"/>
      <point x="274" y="736" type="line" name="n10"/>
      <point x="330" y="736" type="line"/>
    </contour>
  </outline>
</glyph>
<glyph name="uni01C8" format="2">
  <advance width="791"/>
  <unicode hex="01C8"/>
  <outline>
    <contour>
      <point x="483" y="185" type="line"/>
      <point x="447" y="0" type="line" name="n01"/>
      <point x="-15" y="0" type="line"/>
      <point x="-15" y="42" type="line"/>
      <point x="-1.21767" y="43.1881"/>
      <point x="43" y="47"/>
      <point x="43" y="47" type="curve"/>
      <point x="56" y="48"/>
      <point x="65" y="54"/>
      <point x="67" y="66" type="curve" smooth="yes"/>
      <point x="171" y="604" type="line" smooth="yes"/>
      <point x="173" y="615"/>
      <point x="169" y="623"/>
      <point x="152" y="624" type="curve"/>
      <point x="152" y="624"/>
      <point x="109.786" y="627.769"/>
      <point x="96" y="629" type="curve"/>
      <point x="96" y="671" type="line" name="n17"/>
      <point x="356" y="671" type="line"/>
      <point x="356" y="629" type="line"/>
      <point x="341.006" y="627.729"/>
      <point x="297" y="624"/>
      <point x="297" y="624" type="curve"/>
      <point x="282" y="623"/>
      <point x="274" y="614"/>
      <point x="272" y="604" type="curve" smooth="yes"/>
      <point x="166" y="50" type="line"/>
      <point x="363" y="50" type="line" smooth="yes" name="n27"/>
      <point x="376" y="50"/>
      <point x="384.221" y="57.9285"/>
      <point x="388" y="70" type="curve" smooth="yes"/>
      <point x="424" y="185" type="line" name="n31"/>
    </contour>
    <contour>
      <point x="784" y="641" type="curve" smooth="yes" name="n32"/>
      <point x="784" y="617"/>
      <point x="759" y="585"/>
      <point x="722" y="585" type="curve" smooth="yes" name="n35"/>
      <point x="686" y="585"/>
      <point x="660" y="609"/>
      <point x="660" y="641" type="curve" smooth="yes" name="n38"/>
      <point x="660" y="671" name="hr02"/>
      <point x="680" y="698" name="hr03"/>
      <point x="722" y="698" type="curve" smooth="yes" name="n41"/>
      <point x="762" y="698"/>
      <point x="784" y="671" name="hr04"/>
    </contour>
    <contour>
      <point x="749" y="494" type="line" name="n44"/>
      <point x="678" y="80" type="line" smooth="yes"/>
      <point x="660.855" y="-19.9752"/>
      <point x="590" y="-229" name="n47"/>
      <point x="456" y="-229" type="curve" smooth="yes"/>
      <point x="414" y="-229"/>
      <point x="389" y="-206"/>
      <point x="389" y="-176" type="curve" smooth="yes"/>
      <point x="389" y="-151"/>
      <point x="407" y="-137"/>
      <point x="417" y="-131" type="curve"/>
      <point x="517" y="-158" type="line"/>
      <point x="536" y="-137"/>
      <point x="560" y="-67"/>
      <point x="570" y="-12" type="curve" smooth="yes"/>
      <point x="645" y="425" type="line"/>
      <point x="561" y="434" type="line"/>
      <point x="561" y="463" type="line"/>
      <point x="712" y="494" type="line"/>
    </contour>
  </outline>
</glyph>
<glyph name="uni01CB" format="2">
  <advance width="983"/>
  <unicode hex="01CB"/>
  <outline>
    <contour>
      <point x="755" y="629" type="line"/>
      <point x="698" y="624" type="line" smooth="yes"/>
      <point x="685.011" y="622.861"/>
      <point x="676" y="617"/>
      <point x="673" y="604" type="curve"/>
      <point x="555" y="0" type="line" name="n05"/>
      <point x="483" y="0" type="line"/>
      <point x="231" y="531" type="line"/>
      <point x="142" y="66" type="line" smooth="yes"/>
      <point x="140" y="56"/>
      <point x="144" y="48"/>
      <point x="162" y="47" type="curve"/>
      <point x="162" y="47"/>
      <point x="203.978" y="43.2519"/>
      <point x="218" y="42" type="curve"/>
      <point x="218" y="0" type="line"/>
      <point x="-14" y="0" type="line"/>
      <point x="-14" y="42" type="line"/>
      <point x="0.0250099" y="43.2303"/>
      <point x="43" y="47"/>
      <point x="43" y="47" type="curve"/>
      <point x="56" y="48"/>
      <point x="65" y="54"/>
      <point x="68" y="66" type="curve"/>
      <point x="171" y="604" type="line" smooth="yes"/>
      <point x="173" y="615"/>
      <point x="169" y="623"/>
      <point x="152" y="624" type="curve" name="n27"/>
      <point x="152" y="624"/>
      <point x="109.779" y="627.77"/>
      <point x="96" y="629" type="curve"/>
      <point x="96" y="671" type="line" name="n31"/>
      <point x="289" y="671" type="line"/>
      <point x="289" y="645" type="line"/>
      <point x="514" y="168" type="line"/>
      <point x="599" y="604" type="line" smooth="yes"/>
      <point x="601" y="615"/>
      <point x="597" y="623"/>
      <point x="580" y="624" type="curve"/>
      <point x="580" y="624"/>
      <point x="536.529" y="627.813"/>
      <point x="523" y="629" type="curve"/>
      <point x="523" y="671" type="line"/>
      <point x="755" y="671" type="line"/>
    </contour>
    <contour>
      <point x="977" y="641" type="curve" smooth="yes" name="n44"/>
      <point x="977" y="617"/>
      <point x="952" y="585" name="hr01"/>
      <point x="915" y="585" type="curve" smooth="yes" name="n47"/>
      <point x="879" y="585"/>
      <point x="853" y="609"/>
      <point x="853" y="641" type="curve" smooth="yes" name="n50"/>
      <point x="853" y="671" name="hr02"/>
      <point x="873" y="698" name="hr03"/>
      <point x="915" y="698" type="curve" smooth="yes" name="n53"/>
      <point x="955" y="698"/>
      <point x="977" y="671" name="hr04"/>
    </contour>
    <contour>
      <point x="942" y="494" type="line" name="n56"/>
      <point x="871" y="80" type="line" smooth="yes"/>
      <point x="853.855" y="-19.9752"/>
      <point x="783" y="-229" name="n59"/>
      <point x="649" y="-229" type="curve" smooth="yes"/>
      <point x="607" y="-229"/>
      <point x="582" y="-206"/>
      <point x="582" y="-176" type="curve" smooth="yes"/>
      <point x="582" y="-151"/>
      <point x="600" y="-137"/>
      <point x="610" y="-131" type="curve"/>
      <point x="710" y="-158" type="line"/>
      <point x="729" y="-137"/>
      <point x="753" y="-67"/>
      <point x="763" y="-12" type="curve" smooth="yes"/>
      <point x="838" y="425" type="line"/>
      <point x="754" y="434" type="line"/>
      <point x="754" y="463" type="line"/>
      <point x="905" y="494" type="line"/>
    </contour>
  </outline>
</glyph>
<glyph name="uni01D5" format="2">
  <advance width="707"/>
  <unicode hex="01D5"/>
  <outline>
    <contour>
      <point x="749" y="629" type="line"/>
      <point x="691" y="624" type="line" smooth="yes"/>
      <point x="679.003" y="622.966"/>
      <point x="669" y="617"/>
      <point x="667" y="604" type="curve"/>
      <point x="590" y="214" type="line" smooth="yes"/>
      <point x="562" y="69"/>
      <point x="470" y="-16"/>
      <point x="311" y="-16" type="curve" smooth="yes" name="n08"/>
      <point x="188" y="-16"/>
      <point x="92" y="32"/>
      <point x="92" y="159" type="curve" smooth="yes" name="n11"/>
      <point x="92" y="179"/>
      <point x="96" y="218"/>
      <point x="105" y="264" type="curve" smooth="yes"/>
      <point x="175" y="604" type="line" smooth="yes"/>
      <point x="177" y="615"/>
      <point x="173" y="623"/>
      <point x="155" y="624" type="curve" name="n18"/>
      <point x="155" y="624"/>
      <point x="112.528" y="627.792"/>
      <point x="99" y="629" type="curve"/>
      <point x="99" y="671" type="line" name="n22"/>
      <point x="359" y="671" type="line"/>
      <point x="359" y="629" type="line"/>
      <point x="344.23" y="627.748"/>
      <point x="300" y="624"/>
      <point x="300" y="624" type="curve"/>
      <point x="288" y="623"/>
      <point x="278" y="617"/>
      <point x="276" y="604" type="curve"/>
      <point x="207" y="264" type="line" smooth="yes"/>
      <point x="199" y="225"/>
      <point x="196" y="193"/>
      <point x="196" y="175" type="curve" smooth="yes" name="n34"/>
      <point x="196" y="91"/>
      <point x="251" y="49"/>
      <point x="337" y="49" type="curve" smooth="yes" name="n37"/>
      <point x="467" y="49"/>
      <point x="508" y="142"/>
      <point x="529" y="249" type="curve" smooth="yes"/>
      <point x="599" y="604" type="line" smooth="yes"/>
      <point x="601" y="615"/>
      <point x="597" y="623"/>
      <point x="579" y="624" type="curve"/>
      <point x="579" y="624"/>
      <point x="536.292" y="627.813"/>
      <point x="523" y="629" type="curve"/>
      <point x="523" y="671" type="line"/>
      <point x="749" y="671" type="line"/>
    </contour>
    <contour>
      <point x="618" y="836" type="curve" smooth="yes" name="n50"/>
      <point x="618" y="806"/>
      <point x="594" y="780"/>
      <point x="564" y="780" type="curve" smooth="yes" name="n53"/>
      <point x="534" y="780"/>
      <point x="509" y="806"/>
      <point x="509" y="836" type="curve" smooth="yes" name="n56"/>
      <point x="509" y="864"/>
      <point x="536" y="891"/>
      <point x="564" y="891" type="curve" smooth="yes" name="n59"/>
      <point x="594" y="891"/>
      <point x="618" y="866"/>
    </contour>
    <contour>
      <point x="411" y="836" type="curve" smooth="yes" name="n62"/>
      <point x="411" y="806"/>
      <point x="386" y="780"/>
      <point x="356" y="780" type="curve" smooth="yes"/>
      <point x="327" y="780"/>
      <point x="302" y="806"/>
      <point x="302" y="835" type="curve" smooth="yes" name="n68"/>
      <point x="302" y="864"/>
      <point x="327" y="891"/>
      <point x="356" y="891" type="curve" smooth="yes"/>
      <point x="386" y="891"/>
      <point x="411" y="866"/>
    </contour>
    <contour>
      <point x="635" y="1042" type="line" name="n74"/>
      <point x="622" y="977" type="line" name="n75"/>
      <point x="319" y="977" type="line"/>
      <point x="333" y="1042" type="line"/>
    </contour>
  </outline>
</glyph>
<glyph name="uni01D6" format="2">
  <advance width="526"/>
  <unicode hex="01D6"/>
  <outline>
    <contour>
      <point x="524" y="24" type="line"/>
      <point x="499" y="10"/>
      <point x="431" y="-12"/>
      <point x="388" y="-12" type="curve" smooth="yes"/>
      <point x="313" y="-12"/>
      <point x="323" y="47"/>
      <point x="323" y="63" type="curve"/>
      <point x="271" y="13"/>
      <point x="214" y="-12"/>
      <point x="147" y="-12" type="curve" smooth="yes" name="n09"/>
      <point x="54" y="-12"/>
      <point x="34" y="61"/>
      <point x="45" y="113" type="curve" smooth="yes"/>
      <point x="110" y="425" type="line"/>
      <point x="26" y="434" type="line"/>
      <point x="26" y="463" type="line"/>
      <point x="177" y="494" type="line" name="n16"/>
      <point x="218" y="494" type="line"/>
      <point x="138" y="113" type="line" smooth="yes"/>
      <point x="131" y="79"/>
      <point x="164" y="50"/>
      <point x="190" y="50" type="curve" smooth="yes" name="n21"/>
      <point x="238" y="50"/>
      <point x="290" y="79"/>
      <point x="328" y="114" type="curve"/>
      <point x="404" y="482" type="line"/>
      <point x="497" y="482" type="line"/>
      <point x="417" y="97" type="line" smooth="yes"/>
      <point x="408" y="56"/>
      <point x="439" y="41"/>
      <point x="461" y="41" type="curve" smooth="yes"/>
      <point x="474" y="41"/>
      <point x="496" y="43"/>
      <point x="524" y="59" type="curve"/>
    </contour>
    <contour>
      <point x="499" y="641" type="curve" smooth="yes" name="n34"/>
      <point x="499" y="611"/>
      <point x="475" y="585"/>
      <point x="445" y="585" type="curve" smooth="yes" name="n37"/>
      <point x="415" y="585"/>
      <point x="390" y="611"/>
      <point x="390" y="641" type="curve" smooth="yes" name="n40"/>
      <point x="390" y="669"/>
      <point x="417" y="696"/>
      <point x="445" y="696" type="curve" smooth="yes" name="n43"/>
      <point x="475" y="696"/>
      <point x="499" y="671"/>
    </contour>
    <contour>
      <point x="292" y="641" type="curve" smooth="yes" name="n46"/>
      <point x="292" y="611"/>
      <point x="267" y="585"/>
      <point x="237" y="585" type="curve" smooth="yes"/>
      <point x="208" y="585"/>
      <point x="183" y="611"/>
      <point x="183" y="640" type="curve" smooth="yes" name="n52"/>
      <point x="183" y="669"/>
      <point x="208" y="696"/>
      <point x="237" y="696" type="curve" smooth="yes"/>
      <point x="267" y="696"/>
      <point x="292" y="671"/>
    </contour>
    <contour>
      <point x="516" y="847" type="line" name="n58"/>
      <point x="503" y="781" type="line" name="n59"/>
      <point x="200" y="781" type="line"/>
      <point x="214" y="847" type="line"/>
    </contour>
  </outline>
</glyph>
<glyph name="uni01D7" format="2">
  <advance width="707"/>
  <unicode hex="01D7"/>
  <outline>
    <contour>
      <point x="749" y="629" type="line"/>
      <point x="691" y="624" type="line" smooth="yes"/>
      <point x="679.003" y="622.966"/>
      <point x="669" y="617"/>
      <point x="667" y="604" type="curve"/>
      <point x="590" y="214" type="line" smooth="yes"/>
      <point x="562" y="69"/>
      <point x="470" y="-16"/>
      <point x="311" y="-16" type="curve" smooth="yes" name="n08"/>
      <point x="188" y="-16"/>
      <point x="92" y="32"/>
      <point x="92" y="159" type="curve" smooth="yes" name="n11"/>
      <point x="92" y="179"/>
      <point x="96" y="218"/>
      <point x="105" y="264" type="curve" smooth="yes"/>
      <point x="175" y="604" type="line" smooth="yes"/>
      <point x="177" y="615"/>
      <point x="173" y="623"/>
      <point x="155" y="624" type="curve" name="n18"/>
      <point x="155" y="624"/>
      <point x="112.528" y="627.792"/>
      <point x="99" y="629" type="curve"/>
      <point x="99" y="671" type="line" name="n22"/>
      <point x="359" y="671" type="line"/>
      <point x="359" y="629" type="line"/>
      <point x="344.23" y="627.748"/>
      <point x="300" y="624"/>
      <point x="300" y="624" type="curve"/>
      <point x="288" y="623"/>
      <point x="278" y="617"/>
      <point x="276" y="604" type="curve"/>
      <point x="207" y="264" type="line" smooth="yes"/>
      <point x="199" y="225"/>
      <point x="196" y="193"/>
      <point x="196" y="175" type="curve" smooth="yes" name="n34"/>
      <point x="196" y="91"/>
      <point x="251" y="49"/>
      <point x="337" y="49" type="curve" smooth="yes" name="n37"/>
      <point x="467" y="49"/>
      <point x="508" y="142"/>
      <point x="529" y="249" type="curve" smooth="yes"/>
      <point x="599" y="604" type="line" smooth="yes"/>
      <point x="601" y="615"/>
      <point x="597" y="623"/>
      <point x="579" y="624" type="curve"/>
      <point x="579" y="624"/>
      <point x="536.292" y="627.813"/>
      <point x="523" y="629" type="curve"/>
      <point x="523" y="671" type="line"/>
      <point x="749" y="671" type="line"/>
    </contour>
    <contour>
      <point x="618" y="836" type="curve" smooth="yes" name="n50"/>
      <point x="618" y="806"/>
      <point x="594" y="780"/>
      <point x="564" y="780" type="curve" smooth="yes" name="n53"/>
      <point x="534" y="780"/>
      <point x="509" y="806"/>
      <point x="509" y="836" type="curve" smooth="yes" name="n56"/>
      <point x="509" y="864"/>
      <point x="536" y="891"/>
      <point x="564" y="891" type="curve" smooth="yes" name="n59"/>
      <point x="594" y="891"/>
      <point x="618" y="866"/>
    </contour>
    <contour>
      <point x="411" y="836" type="curve" smooth="yes" name="n62"/>
      <point x="411" y="806"/>
      <point x="386" y="780"/>
      <point x="356" y="780" type="curve" smooth="yes"/>
      <point x="327" y="780"/>
      <point x="302" y="806"/>
      <point x="302" y="835" type="curve" smooth="yes" name="n68"/>
      <point x="302" y="864"/>
      <point x="327" y="891"/>
      <point x="356" y="891" type="curve" smooth="yes"/>
      <point x="386" y="891"/>
      <point x="411" y="866"/>
    </contour>
    <contour>
      <point x="626" y="1080" type="curve" smooth="yes"/>
      <point x="626" y="1061"/>
      <point x="617" y="1049"/>
      <point x="602" y="1039" type="curve" smooth="yes"/>
      <point x="452" y="941" type="line"/>
      <point x="382" y="941" type="line"/>
      <point x="518" y="1098" type="line" smooth="yes"/>
      <point x="531" y="1113"/>
      <point x="545" y="1123" name="n82"/>
      <point x="575" y="1123" type="curve" smooth="yes"/>
      <point x="610" y="1123"/>
      <point x="626" y="1100"/>
    </contour>
  </outline>
</glyph>
<glyph name="uni01E0" format="2">
  <advance width="672"/>
  <unicode hex="01E0"/>
  <outline>
    <contour>
      <point x="626" y="0" type="line" name="n00"/>
      <point x="391" y="0" type="line"/>
      <point x="391" y="42" type="line"/>
      <point x="401.485" y="43.1397"/>
      <point x="437" y="47"/>
      <point x="437" y="47" type="curve"/>
      <point x="452" y="49"/>
      <point x="457.735" y="54.9551"/>
      <point x="456" y="66" type="curve" smooth="yes"/>
      <point x="426" y="257" type="line" name="n09"/>
      <point x="199" y="257" type="line"/>
      <point x="97" y="66" type="line" smooth="yes"/>
      <point x="90" y="53"/>
      <point x="97" y="49"/>
      <point x="116" y="47" type="curve"/>
      <point x="116" y="47"/>
      <point x="150.959" y="43.2002"/>
      <point x="162" y="42" type="curve"/>
      <point x="162" y="0" type="line"/>
      <point x="-53" y="0" type="line"/>
      <point x="-53" y="42" type="line"/>
      <point x="3" y="48" type="line"/>
      <point x="372" y="687" type="line" name="n22"/>
      <point x="452" y="687" type="line"/>
      <point x="560" y="66" type="line" smooth="yes"/>
      <point x="562" y="53"/>
      <point x="566" y="48"/>
      <point x="580" y="47" type="curve"/>
      <point x="580" y="47"/>
      <point x="614.996" y="43.1961"/>
      <point x="626" y="42" type="curve"/>
    </contour>
    <contour>
      <point x="417" y="304" type="line" name="n31"/>
      <point x="374" y="564" type="line"/>
      <point x="226" y="304" type="line"/>
    </contour>
    <contour>
      <point x="605" y="1042" type="line" name="n34"/>
      <point x="592" y="977" type="line" name="n35"/>
      <point x="290" y="977" type="line"/>
      <point x="304" y="1042" type="line"/>
    </contour>
    <contour>
      <point x="487" y="836" type="curve" smooth="yes" name="n38"/>
      <point x="487" y="805"/>
      <point x="462" y="780"/>
      <point x="431" y="780" type="curve" smooth="yes" name="n41"/>
      <point x="400" y="780"/>
      <point x="375" y="805"/>
      <point x="375" y="836" type="curve" smooth="yes" name="n44"/>
      <point x="375" y="867"/>
      <point x="399" y="894"/>
      <point x="431" y="894" type="curve" smooth="yes" name="n47"/>
      <point x="462" y="894"/>
      <point x="487" y="868"/>
    </contour>
  </outline>
</glyph>
<glyph name="uni021D" format="2">
  <advance width="387"/>
  <unicode hex="021D"/>
  <outline>
    <contour>
      <point x="375" y="374.624" type="curve" smooth="yes" name="n00"/>
      <point x="375" y="299"/>
      <point x="318" y="237"/>
      <point x="240" y="188" type="curve"/>
      <point x="290" y="174"/>
      <point x="327" y="137" name="hr01"/>
      <point x="327" y="79.1325" type="curve" smooth="yes" name="n06"/>
      <point x="327" y="-52"/>
      <point x="137" y="-165"/>
      <point x="-40" y="-229" type="curve"/>
      <point x="-29" y="-177" type="line"/>
      <point x="127" y="-108"/>
      <point x="232" y="-18"/>
      <point x="232" y="61" type="curve" smooth="yes" name="n13"/>
      <point x="232" y="122"/>
      <point x="201" y="146"/>
      <point x="171" y="150" type="curve"/>
      <point x="137" y="134"/>
      <point x="101.787" y="119"/>
      <point x="67" y="107" type="curve"/>
      <point x="78" y="159" type="line"/>
      <point x="211" y="220"/>
      <point x="280" y="292" name="hr02"/>
      <point x="280" y="371.808" type="curve" smooth="yes" name="n23"/>
      <point x="280" y="427"/>
      <point x="247" y="450"/>
      <point x="217.098" y="450" type="curve" smooth="yes" name="n26"/>
      <point x="191.275" y="450"/>
      <point x="125.385" y="432.847"/>
      <point x="118" y="407" type="curve"/>
      <point x="95" y="349" type="line"/>
      <point x="51" y="349" type="line"/>
      <point x="73" y="458" type="line"/>
      <point x="142" y="488"/>
      <point x="190" y="494"/>
      <point x="237" y="494" type="curve" smooth="yes" name="n35"/>
      <point x="309" y="494"/>
      <point x="375" y="456"/>
    </contour>
  </outline>
</glyph>
<glyph name="uni0221" format="2">
  <advance width="575"/>
  <unicode hex="0221"/>
  <outline>
    <contour>
      <point x="591" y="127" type="curve" smooth="yes" name="n00"/>
      <point x="591" y="37"/>
      <point x="503" y="-12"/>
      <point x="422" y="-12" type="curve" smooth="yes" name="n03"/>
      <point x="360" y="-12"/>
      <point x="325" y="7"/>
      <point x="325" y="66" type="curve" name="n06"/>
      <point x="275" y="24"/>
      <point x="224" y="-50"/>
      <point x="189" y="-113" type="curve"/>
      <point x="147" y="-99" type="line"/>
      <point x="162" y="-69"/>
      <point x="181" y="-38"/>
      <point x="202" y="-9" type="curve"/>
      <point x="191" y="-12"/>
      <point x="178" y="-12"/>
      <point x="175" y="-12" type="curve" smooth="yes" name="n16"/>
      <point x="63" y="-12"/>
      <point x="32" y="83"/>
      <point x="32" y="167" type="curve" smooth="yes" name="n19"/>
      <point x="32" y="326"/>
      <point x="138" y="494"/>
      <point x="315" y="494" type="curve" smooth="yes" name="n22"/>
      <point x="345" y="494"/>
      <point x="373" y="482"/>
      <point x="390" y="476" type="curve"/>
      <point x="424" y="668" type="line"/>
      <point x="333" y="677" type="line"/>
      <point x="333" y="707" type="line"/>
      <point x="488" y="737" type="line" name="n29"/>
      <point x="529" y="737" type="line"/>
      <point x="448" y="278"/>
      <point x="433" y="193"/>
      <point x="431" y="181" type="curve"/>
      <point x="462" y="191"/>
      <point x="489" y="199"/>
      <point x="522" y="199" type="curve" smooth="yes" name="n36"/>
      <point x="567" y="199"/>
      <point x="591" y="161"/>
    </contour>
    <contour>
      <point x="375" y="388" type="curve"/>
      <point x="375" y="395"/>
      <point x="339" y="449"/>
      <point x="313" y="449" type="curve" smooth="yes" name="n42"/>
      <point x="216" y="449"/>
      <point x="129" y="329"/>
      <point x="129" y="173" type="curve" smooth="yes" name="n45"/>
      <point x="129" y="87"/>
      <point x="168" y="49"/>
      <point x="207" y="49" type="curve" smooth="yes" name="n48"/>
      <point x="243" y="49"/>
      <point x="293" y="88"/>
      <point x="329" y="130" type="curve"/>
      <point x="336.978" y="174.747"/>
      <point x="366.613" y="340.958"/>
    </contour>
    <contour>
      <point x="542" y="118" type="curve" smooth="yes" name="n54"/>
      <point x="542" y="140"/>
      <point x="529" y="158"/>
      <point x="502" y="158" type="curve" smooth="yes" name="n57"/>
      <point x="473" y="158"/>
      <point x="450" y="142"/>
      <point x="423" y="130" type="curve"/>
      <point x="419" y="106"/>
      <point x="417" y="90"/>
      <point x="417" y="86" type="curve" smooth="yes" name="n63"/>
      <point x="417" y="52"/>
      <point x="439" y="37"/>
      <point x="456" y="37" type="curve" smooth="yes" name="n66"/>
      <point x="499" y="37" name="hr02"/>
      <point x="542" y="74"/>
    </contour>
  </outline>
</glyph>
<glyph name="uni0222" format="2">
  <advance width="599"/>
  <unicode hex="0222"/>
  <outline>
    <contour>
      <point x="580" y="543" type="curve" smooth="yes" name="n00"/>
      <point x="580" y="437"/>
      <point x="482" y="369"/>
      <point x="402" y="357" type="curve"/>
      <point x="480" y="345"/>
      <point x="542" y="295" name="hr01"/>
      <point x="542" y="210" type="curve" smooth="yes" name="n06"/>
      <point x="542" y="79"/>
      <point x="397" y="-16"/>
      <point x="258" y="-16" type="curve" smooth="yes" name="n09"/>
      <point x="134" y="-16"/>
      <point x="48" y="46"/>
      <point x="48" y="146" type="curve" smooth="yes" name="n12"/>
      <point x="48" y="263"/>
      <point x="150" y="343"/>
      <point x="255" y="357" type="curve"/>
      <point x="197" y="366"/>
      <point x="138" y="401" name="hr02"/>
      <point x="138" y="483" type="curve" smooth="yes" name="n18"/>
      <point x="138" y="613"/>
      <point x="272" y="687"/>
      <point x="392" y="687" type="curve" smooth="yes" name="n21"/>
      <point x="496" y="687"/>
      <point x="580" y="635"/>
    </contour>
    <contour>
      <point x="382" y="636" type="curve" smooth="yes" name="n24"/>
      <point x="302" y="636"/>
      <point x="242" y="577"/>
      <point x="242" y="483" type="curve" smooth="yes" name="n27"/>
      <point x="242" y="430"/>
      <point x="272" y="383"/>
      <point x="333" y="383" type="curve" smooth="yes" name="n30"/>
      <point x="417" y="383"/>
      <point x="474" y="465"/>
      <point x="474" y="545" type="curve" smooth="yes" name="n33"/>
      <point x="474" y="603"/>
      <point x="435" y="636"/>
    </contour>
    <contour>
      <point x="268" y="38" type="curve" smooth="yes" name="n36"/>
      <point x="363" y="38"/>
      <point x="429" y="123"/>
      <point x="429" y="218" type="curve" smooth="yes" name="n39"/>
      <point x="429" y="284" name="hr03"/>
      <point x="386" y="332"/>
      <point x="324" y="332" type="curve" smooth="yes" name="n42"/>
      <point x="226" y="332"/>
      <point x="162" y="245"/>
      <point x="162" y="149" type="curve" smooth="yes" name="n45"/>
      <point x="162" y="88"/>
      <point x="195" y="38"/>
    </contour>
  </outline>
</glyph>
<glyph name="uni0224" format="2">
  <advance width="562"/>
  <unicode hex="0224"/>
  <outline>
    <contour>
      <point x="115" y="53" type="line"/>
      <point x="511" y="53" type="line" name="n01"/>
      <point x="514" y="44"/>
      <point x="515" y="33"/>
      <point x="515" y="21" type="curve" smooth="yes" name="n04"/>
      <point x="515" y="-43"/>
      <point x="473" y="-99"/>
      <point x="404" y="-159" type="curve" name="n07"/>
      <point x="400.811" y="-159"/>
      <point x="376.019" y="-159"/>
      <point x="367" y="-159" type="curve"/>
      <point x="402" y="-124"/>
      <point x="426" y="-72"/>
      <point x="426" y="-26" type="curve" smooth="yes" name="n13"/>
      <point x="426" y="-15"/>
      <point x="424" y="-6"/>
      <point x="421" y="0" type="curve" name="n16"/>
      <point x="366.349" y="0"/>
      <point x="47.92" y="0"/>
      <point x="-20" y="0" type="curve"/>
      <point x="-18.1643" y="8.9747"/>
      <point x="-12.0686" y="38.7758"/>
      <point x="-11" y="44" type="curve"/>
      <point x="458" y="619" type="line"/>
      <point x="224" y="619" type="line" smooth="yes" name="n24"/>
      <point x="210" y="619"/>
      <point x="204" y="613"/>
      <point x="200" y="600" type="curve" smooth="yes"/>
      <point x="173" y="512" type="line" name="hr01"/>
      <point x="162.645" y="512"/>
      <point x="115.153" y="512"/>
      <point x="104" y="512" type="curve" name="n31"/>
      <point x="136" y="671" type="line" name="n32"/>
      <point x="595" y="671" type="line"/>
      <point x="586" y="626" type="line"/>
    </contour>
  </outline>
</glyph>
<glyph name="uni023A" format="2">
  <advance width="672"/>
  <unicode hex="023A"/>
  <outline>
    <contour>
      <point x="628" y="718" type="line"/>
      <point x="104" y="-80" type="line"/>
      <point x="61" y="-48" type="line"/>
      <point x="577" y="749" type="line"/>
    </contour>
    <contour>
      <point x="626" y="0" type="line" name="n04"/>
      <point x="391" y="0" type="line"/>
      <point x="391" y="42" type="line"/>
      <point x="401.485" y="43.1397"/>
      <point x="437" y="47"/>
      <point x="437" y="47" type="curve"/>
      <point x="452" y="49"/>
      <point x="457.735" y="54.9551"/>
      <point x="456" y="66" type="curve" smooth="yes"/>
      <point x="426" y="257" type="line" name="n13"/>
      <point x="199" y="257" type="line"/>
      <point x="97" y="66" type="line" smooth="yes"/>
      <point x="90" y="53"/>
      <point x="97" y="49"/>
      <point x="116" y="47" type="curve"/>
      <point x="116" y="47"/>
      <point x="150.959" y="43.2002"/>
      <point x="162" y="42" type="curve"/>
      <point x="162" y="0" type="line"/>
      <point x="-53" y="0" type="line"/>
      <point x="-53" y="42" type="line"/>
      <point x="3" y="48" type="line"/>
      <point x="372" y="687" type="line" name="n26"/>
      <point x="452" y="687" type="line"/>
      <point x="560" y="66" type="line" smooth="yes"/>
      <point x="562" y="53"/>
      <point x="566" y="48"/>
      <point x="580" y="47" type="curve"/>
      <point x="580" y="47"/>
      <point x="614.996" y="43.1961"/>
      <point x="626" y="42" type="curve"/>
    </contour>
    <contour>
      <point x="417" y="304" type="line" name="n35"/>
      <point x="374" y="564" type="line"/>
      <point x="226" y="304" type="line"/>
    </contour>
  </outline>
</glyph>
<glyph name="uni023C" format="2">
  <advance width="435"/>
  <unicode hex="023C"/>
  <outline>
    <contour>
      <point x="403" y="424" type="curve" smooth="yes"/>
      <point x="403" y="398"/>
      <point x="390" y="367"/>
      <point x="326" y="359" type="curve"/>
      <point x="269" y="436" type="line" name="n04"/>
      <point x="161" y="431"/>
      <point x="127" y="266"/>
      <point x="127" y="186" type="curve" smooth="yes" name="n07"/>
      <point x="127" y="121"/>
      <point x="150" y="53"/>
      <point x="216" y="53" type="curve" smooth="yes" name="n10"/>
      <point x="269" y="53"/>
      <point x="325" y="93"/>
      <point x="382" y="149" type="curve"/>
      <point x="382" y="86" type="line"/>
      <point x="341" y="46"/>
      <point x="275" y="-12"/>
      <point x="186" y="-12" type="curve" smooth="yes" name="n17"/>
      <point x="91" y="-12"/>
      <point x="32" y="55"/>
      <point x="32" y="174" type="curve" smooth="yes" name="n20"/>
      <point x="32" y="353"/>
      <point x="165" y="494"/>
      <point x="301" y="494" type="curve" smooth="yes" name="n23"/>
      <point x="373" y="494"/>
      <point x="403" y="454"/>
    </contour>
    <contour>
      <point x="438" y="527" type="line"/>
      <point x="52" y="-86" type="line"/>
      <point x="15" y="-61" type="line"/>
      <point x="399" y="552" type="line"/>
    </contour>
  </outline>
</glyph>
<glyph name="uni023D" format="2">
  <advance width="518"/>
  <unicode hex="023D"/>
  <outline>
    <contour>
      <point x="483" y="185" type="line"/>
      <point x="447" y="0" type="line" name="n01"/>
      <point x="-15" y="0" type="line"/>
      <point x="-15" y="42" type="line"/>
      <point x="-1.21767" y="43.1881"/>
      <point x="43" y="47"/>
      <point x="43" y="47" type="curve"/>
      <point x="56" y="48"/>
      <point x="65" y="54"/>
      <point x="67" y="66" type="curve"/>
      <point x="117" y="323" type="line" name="n10"/>
      <point x="6" y="323" type="line"/>
      <point x="17" y="379" type="line"/>
      <point x="128" y="379" type="line" name="n13"/>
      <point x="171" y="604" type="line" smooth="yes"/>
      <point x="173.099" y="614.982"/>
      <point x="169" y="623"/>
      <point x="152" y="624" type="curve"/>
      <point x="152" y="624"/>
      <point x="109.786" y="627.769"/>
      <point x="96" y="629" type="curve"/>
      <point x="96" y="671" type="line" name="n21"/>
      <point x="356" y="671" type="line"/>
      <point x="356" y="629" type="line"/>
      <point x="341.006" y="627.729"/>
      <point x="297" y="624"/>
      <point x="297" y="624" type="curve"/>
      <point x="282" y="623"/>
      <point x="274" y="614"/>
      <point x="272" y="604" type="curve" smooth="yes"/>
      <point x="229" y="379" type="line"/>
      <point x="351" y="379" type="line"/>
      <point x="339" y="323" type="line"/>
      <point x="218" y="323" type="line"/>
      <point x="166" y="50" type="line"/>
      <point x="363" y="50" type="line" smooth="yes" name="n35"/>
      <point x="376" y="50"/>
      <point x="384.221" y="57.9285"/>
      <point x="388" y="70" type="curve" smooth="yes"/>
      <point x="424" y="185" type="line" name="n39"/>
    </contour>
  </outline>
</glyph>
<glyph name="uni023F" format="2">
  <advance width="370"/>
  <unicode hex="023F"/>
  <outline>
    <contour>
      <point x="349" y="431" type="curve" smooth="yes"/>
      <point x="349" y="385"/>
      <point x="302" y="378"/>
      <point x="277" y="376" type="curve"/>
      <point x="232" y="437" type="line"/>
      <point x="228" y="440"/>
      <point x="219" y="445"/>
      <point x="207" y="445" type="curve" smooth="yes" name="n07"/>
      <point x="163" y="445"/>
      <point x="148" y="402"/>
      <point x="148" y="376" type="curve" smooth="yes" name="n10"/>
      <point x="148" y="340"/>
      <point x="194" y="301"/>
      <point x="237" y="267" type="curve" smooth="yes"/>
      <point x="281" y="232"/>
      <point x="323" y="194"/>
      <point x="323" y="145" type="curve" smooth="yes" name="n16"/>
      <point x="323" y="42"/>
      <point x="228" y="-12"/>
      <point x="143" y="-12" type="curve" smooth="yes" name="n19"/>
      <point x="135" y="-12"/>
      <point x="94" y="-11"/>
      <point x="88" y="-9" type="curve"/>
      <point x="110" y="-28"/>
      <point x="157" y="-176"/>
      <point x="192" y="-176" type="curve" name="n25"/>
      <point x="278" y="-114" type="line"/>
      <point x="290" y="-114"/>
      <point x="303" y="-133"/>
      <point x="303" y="-155" type="curve" smooth="yes"/>
      <point x="303" y="-197"/>
      <point x="265" y="-231"/>
      <point x="215" y="-231" type="curve" smooth="yes" name="n32"/>
      <point x="67" y="-231"/>
      <point x="80" y="13" name="hr01"/>
      <point x="-11" y="13" type="curve" name="n35"/>
      <point x="16" y="146" type="line" name="n36"/>
      <point x="62" y="146" type="line"/>
      <point x="72" y="48"/>
      <point x="111" y="28" name="hr02"/>
      <point x="147" y="28" type="curve" smooth="yes" name="n40"/>
      <point x="199" y="28"/>
      <point x="231" y="66"/>
      <point x="231" y="111" type="curve" smooth="yes" name="n43"/>
      <point x="231" y="152"/>
      <point x="196" y="180"/>
      <point x="149" y="217" type="curve" smooth="yes"/>
      <point x="108" y="249"/>
      <point x="68" y="293"/>
      <point x="68" y="343" type="curve" smooth="yes" name="n49"/>
      <point x="68" y="441"/>
      <point x="166" y="494"/>
      <point x="248" y="494" type="curve" smooth="yes" name="n52"/>
      <point x="323" y="494"/>
      <point x="349" y="455"/>
    </contour>
  </outline>
</glyph>
<glyph name="uni0246" format="2">
  <advance width="558"/>
  <unicode hex="0246"/>
  <outline>
    <contour>
      <point x="570" y="718" type="line"/>
      <point x="45" y="-80" type="line"/>
      <point x="2" y="-48" type="line"/>
      <point x="519" y="749" type="line"/>
    </contour>
    <contour>
      <point x="580" y="671" type="line" name="n04"/>
      <point x="550" y="521" type="line" name="n05"/>
      <point x="486" y="521" type="line"/>
      <point x="486" y="602" type="line" smooth="yes"/>
      <point x="486" y="616"/>
      <point x="482" y="621" name="hr01"/>
      <point x="467" y="621" type="curve" smooth="yes" name="n10"/>
      <point x="275" y="621" type="line"/>
      <point x="229" y="375" type="line"/>
      <point x="363" y="375" type="line" smooth="yes" name="n13"/>
      <point x="377" y="375"/>
      <point x="384" y="380"/>
      <point x="388" y="394" type="curve" smooth="yes"/>
      <point x="407" y="461" type="line"/>
      <point x="463" y="461" type="line"/>
      <point x="419" y="232" type="line"/>
      <point x="362" y="232" type="line" name="n20"/>
      <point x="372" y="303" type="line" smooth="yes"/>
      <point x="373.834" y="316.024"/>
      <point x="367" y="323" name="hr02"/>
      <point x="353" y="323" type="curve" smooth="yes" name="n24"/>
      <point x="218" y="323" type="line"/>
      <point x="166" y="50" type="line"/>
      <point x="401" y="50" type="line" smooth="yes" name="n27"/>
      <point x="415" y="50"/>
      <point x="422.113" y="57.9629"/>
      <point x="426" y="70" type="curve" smooth="yes"/>
      <point x="457" y="166" type="line" name="n31"/>
      <point x="518" y="166" type="line"/>
      <point x="485" y="0" type="line" name="n33"/>
      <point x="-15" y="0" type="line"/>
      <point x="-15" y="42" type="line"/>
      <point x="-0.479011" y="43.2518"/>
      <point x="43" y="47"/>
      <point x="43" y="47" type="curve"/>
      <point x="56" y="48"/>
      <point x="65" y="54"/>
      <point x="67" y="66" type="curve" smooth="yes"/>
      <point x="171" y="604" type="line" smooth="yes"/>
      <point x="173" y="615"/>
      <point x="169" y="623"/>
      <point x="152" y="624" type="curve"/>
      <point x="152" y="624"/>
      <point x="109.292" y="627.813"/>
      <point x="96" y="629" type="curve"/>
      <point x="96" y="671" type="line"/>
    </contour>
  </outline>
</glyph>
<glyph name="uni0248" format="2">
  <advance width="467"/>
  <unicode hex="0248"/>
  <outline>
    <contour>
      <point x="507" y="629" type="line"/>
      <point x="450" y="624" type="line" smooth="yes"/>
      <point x="437" y="623"/>
      <point x="428" y="617"/>
      <point x="425" y="604" type="curve"/>
      <point x="384" y="379" type="line"/>
      <point x="489" y="379" type="line" name="n06"/>
      <point x="489" y="326" type="line" name="n07"/>
      <point x="374" y="326" type="line"/>
      <point x="361" y="256" type="line" smooth="yes"/>
      <point x="331" y="91"/>
      <point x="283" y="-12"/>
      <point x="112" y="-12" type="curve" smooth="yes" name="n12"/>
      <point x="33" y="-12"/>
      <point x="-10" y="9"/>
      <point x="-20" y="14" type="curve"/>
      <point x="13" y="185" type="line" name="hr01"/>
      <point x="79" y="185" type="line" name="n17"/>
      <point x="79" y="63" type="line" smooth="yes"/>
      <point x="79" y="46"/>
      <point x="98" y="40" name="hr02"/>
      <point x="119" y="40" type="curve" smooth="yes" name="n21"/>
      <point x="204" y="40"/>
      <point x="233" y="113"/>
      <point x="258" y="247" type="curve" smooth="yes"/>
      <point x="273" y="326" type="line"/>
      <point x="161" y="326" type="line"/>
      <point x="161" y="379" type="line"/>
      <point x="283" y="379" type="line"/>
      <point x="324" y="604" type="line" smooth="yes"/>
      <point x="326" y="615"/>
      <point x="322" y="623"/>
      <point x="305" y="624" type="curve"/>
      <point x="305" y="624"/>
      <point x="260.791" y="627.811"/>
      <point x="247" y="629" type="curve"/>
      <point x="247" y="671" type="line" name="n36"/>
      <point x="507" y="671" type="line"/>
    </contour>
  </outline>
</glyph>
<glyph name="uni0255" format="2">
  <advance width="435"/>
  <unicode hex="0255"/>
  <outline>
    <contour>
      <point x="403" y="424" type="curve" smooth="yes"/>
      <point x="403" y="398"/>
      <point x="390" y="367"/>
      <point x="326" y="359" type="curve"/>
      <point x="269" y="436" type="line" name="n04"/>
      <point x="161" y="431"/>
      <point x="127" y="266"/>
      <point x="127" y="186" type="curve" smooth="yes" name="n07"/>
      <point x="127" y="146"/>
      <point x="136" y="105"/>
      <point x="158" y="80" type="curve"/>
      <point x="189" y="148"/>
      <point x="231" y="210"/>
      <point x="310" y="210" type="curve" smooth="yes" name="n13"/>
      <point x="352" y="210"/>
      <point x="383" y="183"/>
      <point x="383" y="140" type="curve" smooth="yes" name="n16"/>
      <point x="383" y="45"/>
      <point x="272" y="-12"/>
      <point x="192" y="-12" type="curve" smooth="yes" name="n19"/>
      <point x="186" y="-12"/>
      <point x="173" y="-11"/>
      <point x="167" y="-10" type="curve"/>
      <point x="153" y="-48"/>
      <point x="139" y="-90"/>
      <point x="132" y="-129" type="curve" name="n25"/>
      <point x="84" y="-129" type="line"/>
      <point x="92" y="-88"/>
      <point x="106" y="-43"/>
      <point x="121" y="0" type="curve"/>
      <point x="65" y="25"/>
      <point x="32" y="85"/>
      <point x="32" y="174" type="curve" smooth="yes" name="n32"/>
      <point x="32" y="353"/>
      <point x="165" y="494"/>
      <point x="301" y="494" type="curve" smooth="yes" name="n35"/>
      <point x="373" y="494"/>
      <point x="403" y="454"/>
    </contour>
    <contour>
      <point x="328" y="136" type="curve" smooth="yes" name="n38"/>
      <point x="328" y="151"/>
      <point x="319" y="162"/>
      <point x="301" y="162" type="curve" smooth="yes" name="n41"/>
      <point x="249" y="162"/>
      <point x="216" y="106"/>
      <point x="194" y="56" type="curve"/>
      <point x="205" y="54"/>
      <point x="220" y="51"/>
      <point x="233" y="51" type="curve" smooth="yes" name="n47"/>
      <point x="273" y="51"/>
      <point x="328" y="93"/>
    </contour>
  </outline>
</glyph>
<glyph name="uni0256" format="2">
  <advance width="525"/>
  <unicode hex="0256"/>
  <outline>
    <contour>
      <point x="550" y="-169" type="curve" smooth="yes"/>
      <point x="550" y="-198"/>
      <point x="513" y="-229" name="n02"/>
      <point x="452" y="-229" type="curve" smooth="yes"/>
      <point x="349" y="-229"/>
      <point x="297" y="-160"/>
      <point x="297" y="-69" type="curve" smooth="yes" name="n06"/>
      <point x="297" y="-38"/>
      <point x="317" y="63"/>
      <point x="317" y="63" type="curve"/>
      <point x="282" y="26"/>
      <point x="231" y="-12"/>
      <point x="175" y="-12" type="curve" smooth="yes" name="n12"/>
      <point x="63" y="-12"/>
      <point x="32" y="83"/>
      <point x="32" y="167" type="curve" smooth="yes" name="n15"/>
      <point x="32" y="326"/>
      <point x="138" y="494"/>
      <point x="315" y="494" type="curve" smooth="yes" name="n18"/>
      <point x="345" y="494"/>
      <point x="373" y="481"/>
      <point x="390" y="475" type="curve"/>
      <point x="424" y="668" type="line"/>
      <point x="333" y="677" type="line"/>
      <point x="333" y="707" type="line"/>
      <point x="488" y="737" type="line" name="n25"/>
      <point x="529" y="737" type="line"/>
      <point x="397" y="-9" type="line" smooth="yes"/>
      <point x="391" y="-45"/>
      <point x="385" y="-84"/>
      <point x="385" y="-106" type="curve" smooth="yes" name="n30"/>
      <point x="385" y="-143"/>
      <point x="396" y="-162"/>
      <point x="423" y="-174" type="curve"/>
      <point x="514" y="-115" type="line"/>
      <point x="514" y="-115"/>
      <point x="550" y="-121"/>
    </contour>
    <contour>
      <point x="376" y="394" type="line" smooth="yes"/>
      <point x="377" y="400"/>
      <point x="339" y="449"/>
      <point x="313" y="449" type="curve" smooth="yes" name="n40"/>
      <point x="216" y="449"/>
      <point x="129" y="329"/>
      <point x="129" y="173" type="curve" smooth="yes" name="n43"/>
      <point x="129" y="87"/>
      <point x="168" y="49"/>
      <point x="207" y="49" type="curve" smooth="yes" name="n46"/>
      <point x="243" y="49"/>
      <point x="294" y="89"/>
      <point x="330" y="131" type="curve"/>
    </contour>
  </outline>
</glyph>
<glyph name="uni025A" format="2">
  <advance width="541"/>
  <unicode hex="025A"/>
  <outline>
    <contour>
      <point x="600" y="362" type="line"/>
      <point x="585" y="325"/>
      <point x="561" y="268"/>
      <point x="494" y="268" type="curve" smooth="yes" name="n03"/>
      <point x="449" y="268"/>
      <point x="437" y="299"/>
      <point x="437" y="333" type="curve" smooth="yes" name="n06"/>
      <point x="437" y="366"/>
      <point x="449" y="401"/>
      <point x="451" y="407" type="curve"/>
      <point x="430" y="395"/>
      <point x="406" y="382"/>
      <point x="378" y="366" type="curve"/>
      <point x="382" y="345"/>
      <point x="385" y="325"/>
      <point x="385" y="302" type="curve" smooth="yes" name="n15"/>
      <point x="385" y="145"/>
      <point x="285" y="-12"/>
      <point x="131" y="-12" type="curve" smooth="yes" name="n18"/>
      <point x="43" y="-12"/>
      <point x="18" y="43"/>
      <point x="18" y="92" type="curve" smooth="yes" name="n21"/>
      <point x="18" y="172"/>
      <point x="139" y="284"/>
      <point x="281" y="356" type="curve"/>
      <point x="266" y="403"/>
      <point x="236" y="434"/>
      <point x="199" y="434" type="curve" smooth="yes" name="n27"/>
      <point x="156" y="434"/>
      <point x="113" y="400"/>
      <point x="41" y="335" type="curve"/>
      <point x="41" y="398" type="line"/>
      <point x="80" y="437"/>
      <point x="144" y="494"/>
      <point x="230" y="494" type="curve" smooth="yes" name="n34"/>
      <point x="258" y="494"/>
      <point x="329" y="476"/>
      <point x="366" y="401" type="curve"/>
      <point x="414" y="429"/>
      <point x="450" y="448"/>
      <point x="473" y="461" type="curve"/>
      <point x="500" y="443" type="line"/>
      <point x="485" y="365" type="line" smooth="yes"/>
      <point x="479" y="335"/>
      <point x="475" y="303"/>
      <point x="505" y="303" type="curve" smooth="yes" name="n45"/>
      <point x="534" y="303"/>
      <point x="545" y="330"/>
      <point x="556" y="354" type="curve" smooth="yes"/>
      <point x="556.823" y="355.899"/>
      <point x="564.446" y="373.491"/>
      <point x="569" y="384" type="curve"/>
    </contour>
    <contour>
      <point x="288" y="316" type="curve"/>
      <point x="187" y="262"/>
      <point x="104" y="177"/>
      <point x="104" y="96" type="curve" smooth="yes" name="n55"/>
      <point x="104" y="69"/>
      <point x="120" y="35"/>
      <point x="152" y="35" type="curve" smooth="yes" name="n58"/>
      <point x="259" y="35"/>
      <point x="291" y="238"/>
    </contour>
  </outline>
</glyph>
<glyph name="uni025B" format="2">
  <advance width="418"/>
  <unicode hex="025B"/>
  <outline>
    <contour>
      <point x="417" y="418.434" type="curve" smooth="yes"/>
      <point x="417" y="387.018"/>
      <point x="391.574" y="367.282"/>
      <point x="342" y="360.217" type="curve"/>
      <point x="276" y="450" type="line" name="n04"/>
      <point x="217.033" y="446.012"/>
      <point x="176" y="401.146"/>
      <point x="176" y="340.659" type="curve" smooth="yes" name="n07"/>
      <point x="176" y="288.135"/>
      <point x="207.077" y="259.46"/>
      <point x="264" y="259.46" type="curve" name="n10"/>
      <point x="264" y="212.573" type="line" name="n11"/>
      <point x="212" y="212.573" type="line" smooth="yes"/>
      <point x="146.878" y="212.573"/>
      <point x="106" y="175.552" name="hr01"/>
      <point x="106" y="116.574" type="curve" smooth="yes" name="n15"/>
      <point x="106" y="64.9873"/>
      <point x="138.115" y="36"/>
      <point x="195.268" y="36" type="curve" smooth="yes" name="n18"/>
      <point x="254.857" y="36"/>
      <point x="323.913" y="67.6678"/>
      <point x="378" y="119.798" type="curve"/>
      <point x="378" y="55.9518" type="line"/>
      <point x="341.539" y="22.5982"/>
      <point x="246.326" y="-12"/>
      <point x="191" y="-12" type="curve" smooth="yes" name="n25"/>
      <point x="66.9976" y="-12"/>
      <point x="7" y="26.5197"/>
      <point x="7" y="106.132" type="curve" smooth="yes" name="n28"/>
      <point x="7" y="179.245"/>
      <point x="57.6327" y="228.582"/>
      <point x="149" y="244.496" type="curve"/>
      <point x="101.661" y="266.381"/>
      <point x="77" y="300.118" name="hr02"/>
      <point x="77" y="342.994" type="curve" smooth="yes" name="n34"/>
      <point x="77" y="423.363"/>
      <point x="169.619" y="494"/>
      <point x="275" y="494" type="curve" smooth="yes" name="n37"/>
      <point x="305" y="494" type="line" smooth="yes"/>
      <point x="369.13" y="494"/>
      <point x="417" y="461.702"/>
    </contour>
  </outline>
</glyph>
<glyph name="uni0262" format="2">
  <advance width="524"/>
  <unicode hex="0262"/>
  <outline>
    <contour>
      <point x="528" y="200" type="line"/>
      <point x="484" y="196" type="line" smooth="yes"/>
      <point x="475" y="195"/>
      <point x="470" y="192"/>
      <point x="469" y="186" type="curve"/>
      <point x="433" y="17" type="line"/>
      <point x="377" y="3"/>
      <point x="316" y="-12"/>
      <point x="259" y="-12" type="curve" smooth="yes" name="n08"/>
      <point x="77" y="-12"/>
      <point x="32" y="113"/>
      <point x="32" y="193" type="curve" smooth="yes" name="n11"/>
      <point x="32" y="378"/>
      <point x="204" y="494"/>
      <point x="375" y="494" type="curve" smooth="yes" name="n14"/>
      <point x="426" y="494"/>
      <point x="461" y="486"/>
      <point x="526" y="468" type="curve"/>
      <point x="500" y="347" type="line"/>
      <point x="438" y="347" type="line"/>
      <point x="441" y="417" type="line"/>
      <point x="441" y="425"/>
      <point x="437" y="430"/>
      <point x="429" y="432" type="curve"/>
      <point x="407" y="442"/>
      <point x="389" y="446"/>
      <point x="365" y="446" type="curve" smooth="yes" name="n26"/>
      <point x="250" y="446"/>
      <point x="131" y="343"/>
      <point x="131" y="183" type="curve" smooth="yes" name="n29"/>
      <point x="131" y="72"/>
      <point x="220" y="35"/>
      <point x="275" y="35" type="curve" smooth="yes" name="n32"/>
      <point x="300" y="35"/>
      <point x="324" y="41"/>
      <point x="348" y="46" type="curve"/>
      <point x="376" y="187" type="line"/>
      <point x="377" y="191"/>
      <point x="377" y="195"/>
      <point x="365" y="196" type="curve"/>
      <point x="365" y="196"/>
      <point x="333.192" y="198.959"/>
      <point x="322" y="200" type="curve"/>
      <point x="322" y="238" type="line"/>
      <point x="528" y="238" type="line"/>
    </contour>
  </outline>
</glyph>
<glyph name="uni0267" format="2">
  <advance width="523"/>
  <unicode hex="0267"/>
  <outline>
    <contour>
      <point x="537" y="650" type="curve" smooth="yes"/>
      <point x="537" y="614"/>
      <point x="508" y="583"/>
      <point x="471" y="583" type="curve" smooth="yes"/>
      <point x="457" y="583"/>
      <point x="447" y="588"/>
      <point x="447" y="588" type="curve"/>
      <point x="430" y="672" type="line"/>
      <point x="420" y="682"/>
      <point x="398" y="686"/>
      <point x="376" y="686" type="curve" smooth="yes" name="n10"/>
      <point x="312" y="686"/>
      <point x="241" y="631"/>
      <point x="218" y="521" type="curve" smooth="yes"/>
      <point x="195" y="414" type="line"/>
      <point x="237" y="459"/>
      <point x="309" y="494"/>
      <point x="376" y="494" type="curve" smooth="yes" name="n17"/>
      <point x="449" y="494"/>
      <point x="488" y="449"/>
      <point x="471" y="359" type="curve"/>
      <point x="396" y="-21" type="line" smooth="yes"/>
      <point x="371" y="-149"/>
      <point x="272" y="-229"/>
      <point x="150" y="-229" type="curve" smooth="yes" name="n24"/>
      <point x="81" y="-229"/>
      <point x="66" y="-191"/>
      <point x="66" y="-155" type="curve" smooth="yes"/>
      <point x="66" y="-111"/>
      <point x="119" y="-93"/>
      <point x="127" y="-92" type="curve"/>
      <point x="187" y="-179" type="line" name="n31"/>
      <point x="251" y="-179"/>
      <point x="281" y="-123"/>
      <point x="294" y="-55" type="curve"/>
      <point x="294" y="-55"/>
      <point x="374.333" y="344.68"/>
      <point x="375" y="348" type="curve" smooth="yes"/>
      <point x="386" y="401"/>
      <point x="343" y="428"/>
      <point x="321" y="428" type="curve" smooth="yes" name="n40"/>
      <point x="288" y="428"/>
      <point x="226" y="396"/>
      <point x="182" y="350" type="curve"/>
      <point x="110" y="0" type="line" name="n44"/>
      <point x="17" y="0" type="line"/>
      <point x="125" y="523" type="line" smooth="yes"/>
      <point x="136" y="575"/>
      <point x="211" y="737"/>
      <point x="381" y="737" type="curve" smooth="yes" name="n49"/>
      <point x="486" y="737"/>
      <point x="537" y="709"/>
    </contour>
  </outline>
</glyph>
<glyph name="uni026A" format="2">
  <advance width="257"/>
  <unicode hex="026A"/>
  <outline>
    <contour>
      <point x="285" y="444" type="line"/>
      <point x="238" y="439" type="line"/>
      <point x="225" y="438"/>
      <point x="216" y="432"/>
      <point x="213" y="419" type="curve" smooth="yes"/>
      <point x="137" y="63" type="line"/>
      <point x="135" y="52"/>
      <point x="139" y="45"/>
      <point x="157" y="43" type="curve" smooth="yes"/>
      <point x="204" y="38" type="line"/>
      <point x="204" y="0" type="line" name="n10"/>
      <point x="-27" y="0" type="line"/>
      <point x="-27" y="38" type="line"/>
      <point x="-16.367" y="39.1312"/>
      <point x="14.4344" y="42.4079"/>
      <point x="20" y="43" type="curve"/>
      <point x="33" y="44"/>
      <point x="42" y="50"/>
      <point x="44" y="62" type="curve"/>
      <point x="121" y="419" type="line"/>
      <point x="123" y="430"/>
      <point x="118" y="437"/>
      <point x="101" y="439" type="curve"/>
      <point x="101" y="439"/>
      <point x="64.0609" y="442.93"/>
      <point x="54" y="444" type="curve"/>
      <point x="54" y="482" type="line" name="n26"/>
      <point x="285" y="482" type="line"/>
    </contour>
  </outline>
</glyph>
